SplineFontDB: 3.2
FontName: Spectral-Share-Regular-Italic
FullName: Spectral Share Regular Italic
FamilyName: Spectral Share
Weight: Regular
Copyright: Copyright 2017 The Spectral Project Authors (https://github.com/productiontype/Spectral)\n"Fair and Share" tax glyphs by Vector Hasting and shared under CC 4.0 SA-BY.
Version: 2.005; ttfautohint (v1.8.4.7-5d5b)
ItalicAngle: -10
UnderlinePosition: -148
UnderlineWidth: 51
Ascent: 819
Descent: 205
InvalidEm: 0
sfntRevision: 0x00020148
LayerCount: 2
Layer: 0 1 "Back" 1
Layer: 1 1 "Fore" 0
XUID: [1021 508 542950195 17819]
StyleMap: 0x0021
FSType: 0
OS2Version: 4
OS2_WeightWidthSlopeOnly: 0
OS2_UseTypoMetrics: 1
CreationTime: 1492190907
ModificationTime: 1758670045
PfmFamily: 81
TTFWeight: 400
TTFWidth: 5
LineGap: 0
VLineGap: 0
Panose: 0 0 0 0 0 0 0 0 0 0
OS2TypoAscent: 1084
OS2TypoAOffset: 0
OS2TypoDescent: -474
OS2TypoDOffset: 0
OS2TypoLinegap: 0
OS2WinAscent: 1084
OS2WinAOffset: 0
OS2WinDescent: 474
OS2WinDOffset: 0
HheadAscent: 1084
HheadAOffset: 0
HheadDescent: -474
HheadDOffset: 0
OS2SubXSize: 666
OS2SubYSize: 614
OS2SubXOff: -13
OS2SubYOff: 77
OS2SupXSize: 666
OS2SupYSize: 614
OS2SupXOff: 63
OS2SupYOff: 358
OS2StrikeYSize: 51
OS2StrikeYPos: 266
OS2CapHeight: 676
OS2XHeight: 467
OS2Vendor: 'PROD'
OS2CodePages: 20000197.00000000
OS2UnicodeRanges: a000027f.4000e43b.00000000.00000000
Lookup: 1 0 0 "'aalt' Access All Alternates lookup 0" { "'aalt' Access All Alternates lookup 0 subtable"  } ['aalt' ('DFLT' <'dflt' > 'cyrl' <'BGR ' 'SRB ' 'dflt' > 'latn' <'AZE ' 'CAT ' 'CRT ' 'MOL ' 'NLD ' 'ROM ' 'TRK ' 'dflt' > ) ]
Lookup: 3 0 0 "'aalt' Access All Alternates lookup 1" { "'aalt' Access All Alternates lookup 1 subtable"  } ['aalt' ('DFLT' <'dflt' > 'cyrl' <'BGR ' 'SRB ' 'dflt' > 'latn' <'AZE ' 'CAT ' 'CRT ' 'MOL ' 'NLD ' 'ROM ' 'TRK ' 'dflt' > ) ]

StartChar: .notdef
Encoding: 65536 -1 0
Width: 501
GlyphClass: 1
Flags: W
LayerCount: 2
Fore
SplineSet
55 0 m 1,0,-1
 55 768 l 1,1,-1
 446 768 l 1,2,-1
 446 0 l 1,3,-1
 55 0 l 1,0,-1
251 416 m 1,4,-1
 401 735 l 1,5,-1
 100 735 l 1,6,-1
 251 416 l 1,4,-1
85 63 m 1,7,-1
 236 384 l 1,8,-1
 85 705 l 1,9,-1
 85 63 l 1,7,-1
417 63 m 1,10,-1
 417 705 l 1,11,-1
 266 384 l 1,12,-1
 417 63 l 1,10,-1
100 33 m 1,13,-1
 401 33 l 1,14,-1
 251 352 l 1,15,-1
 100 33 l 1,13,-1
EndSplineSet
Validated: 1
EndChar

StartChar: A
Encoding: 65 65 9
Width: 734
GlyphClass: 2
Flags: W
AnchorPoint: "Anchor-3" 435 727 basechar 0
AnchorPoint: "Anchor-2" 537 0 basechar 0
AnchorPoint: "Anchor-0" 271 0 basechar 0
LayerCount: 2
Fore
SplineSet
-34 0 m 1,0,-1
 -31 16 l 1,1,-1
 29 48 l 1,2,-1
 388 681 l 1,3,-1
 469 681 l 1,4,-1
 601 52 l 1,5,-1
 660 16 l 1,6,-1
 656 0 l 1,7,-1
 360 0 l 1,8,-1
 364 16 l 1,9,-1
 453 53 l 1,10,-1
 418 224 l 1,11,-1
 191 224 l 1,12,-1
 94 50 l 1,13,-1
 171 16 l 1,14,-1
 167 0 l 1,15,-1
 -34 0 l 1,0,-1
222 279 m 1,16,-1
 408 279 l 1,17,-1
 358 523 l 1,18,-1
 222 279 l 1,16,-1
EndSplineSet
Validated: 1
Substitution2: "'c2sc' Capitals to Small Capitals lookup 59 subtable" a.sc
Substitution2: "Single Substitution lookup 21 subtable" ordfeminine
AlternateSubs2: "'aalt' Access All Alternates lookup 1 subtable" ordfeminine a.sc
Position2: "'cpsp' Capital Spacing lookup 0 subtable" dx=5 dy=0 dh=10 dv=0
EndChar

StartChar: B
Encoding: 66 66 10
Width: 673
GlyphClass: 1
Flags: W
LayerCount: 2
Fore
SplineSet
-14 0 m 1,0,-1
 -11 16 l 1,1,-1
 76 58 l 1,2,-1
 174 617 l 1,3,-1
 101 659 l 1,4,-1
 104 676 l 1,5,-1
 387 676 l 2,6,7
 487 676 487 676 550 640.5 c 128,-1,8
 613 605 613 605 613 535 c 0,9,10
 613 481 613 481 568.5 432.5 c 128,-1,11
 524 384 524 384 446 365 c 1,12,13
 530 353 530 353 572.5 312 c 128,-1,14
 615 271 615 271 615 209 c 0,15,16
 615 157 615 157 581.5 109 c 128,-1,17
 548 61 548 61 482 30.5 c 128,-1,18
 416 0 416 0 316 0 c 2,19,-1
 -14 0 l 1,0,-1
349 622 m 2,20,-1
 315 622 l 1,21,-1
 271 373 l 1,22,-1
 311 373 l 2,23,24
 387 373 387 373 426.5 413.5 c 128,-1,25
 466 454 466 454 466 512 c 0,26,27
 466 565 466 565 440 593.5 c 128,-1,28
 414 622 414 622 349 622 c 2,20,-1
327 325 m 2,29,-1
 263 325 l 1,30,-1
 216 54 l 1,31,-1
 298 54 l 2,32,33
 355 54 355 54 391.5 75 c 128,-1,34
 428 96 428 96 446 131 c 128,-1,35
 464 166 464 166 464 208 c 0,36,37
 464 267 464 267 432 296 c 128,-1,38
 400 325 400 325 327 325 c 2,29,-1
EndSplineSet
Validated: 1
Substitution2: "'c2sc' Capitals to Small Capitals lookup 59 subtable" b.sc
Substitution2: "'aalt' Access All Alternates lookup 0 subtable" b.sc
Position2: "'cpsp' Capital Spacing lookup 0 subtable" dx=5 dy=0 dh=10 dv=0
EndChar

StartChar: C
Encoding: 67 67 11
Width: 680
GlyphClass: 2
Flags: W
AnchorPoint: "Anchor-3" 454 727 basechar 0
AnchorPoint: "Anchor-0" 336 0 basechar 0
LayerCount: 2
Fore
SplineSet
333 -10 m 0,0,1
 245 -10 245 -10 181.5 25 c 128,-1,2
 118 60 118 60 83.5 122.5 c 128,-1,3
 49 185 49 185 49 266 c 0,4,5
 49 350 49 350 81 426 c 128,-1,6
 113 502 113 502 169.5 560 c 128,-1,7
 226 618 226 618 300.5 652 c 128,-1,8
 375 686 375 686 460 686 c 0,9,10
 521 686 521 686 559 673 c 128,-1,11
 597 660 597 660 637 637 c 1,12,-1
 616 445 l 1,13,-1
 599 445 l 1,14,-1
 532 607 l 1,15,16
 515 622 515 622 495.5 630 c 128,-1,17
 476 638 476 638 445 638 c 0,18,19
 390 638 390 638 344 608.5 c 128,-1,20
 298 579 298 579 265 527 c 128,-1,21
 232 475 232 475 214.5 406.5 c 128,-1,22
 197 338 197 338 197 260 c 0,23,24
 197 160 197 160 240.5 100.5 c 128,-1,25
 284 41 284 41 358 41 c 0,26,27
 389 41 389 41 417.5 50.5 c 128,-1,28
 446 60 446 60 473 76 c 1,29,-1
 585 216 l 1,30,-1
 602 216 l 1,31,-1
 561 43 l 1,32,33
 518 18 518 18 461 4 c 128,-1,34
 404 -10 404 -10 333 -10 c 0,0,1
EndSplineSet
Validated: 1
Substitution2: "'c2sc' Capitals to Small Capitals lookup 59 subtable" c.sc
Substitution2: "'aalt' Access All Alternates lookup 0 subtable" c.sc
Position2: "'cpsp' Capital Spacing lookup 0 subtable" dx=5 dy=0 dh=10 dv=0
EndChar

StartChar: D
Encoding: 68 68 12
Width: 764
GlyphClass: 2
Flags: W
AnchorPoint: "Anchor-3" 413 727 basechar 0
AnchorPoint: "Anchor-0" 321 0 basechar 0
LayerCount: 2
Fore
SplineSet
-14 0 m 1,0,-1
 -11 16 l 1,1,-1
 74 57 l 1,2,-1
 172 618 l 1,3,-1
 101 659 l 1,4,-1
 104 676 l 1,5,-1
 373 676 l 2,6,7
 489 676 489 676 566 640 c 128,-1,8
 643 604 643 604 681.5 540 c 128,-1,9
 720 476 720 476 720 391 c 0,10,11
 720 316 720 316 689.5 246 c 128,-1,12
 659 176 659 176 603 121 c 128,-1,13
 547 66 547 66 468 33 c 128,-1,14
 389 0 389 0 291 0 c 2,15,-1
 -14 0 l 1,0,-1
350 623 m 2,16,-1
 314 623 l 1,17,-1
 213 50 l 1,18,-1
 302 50 l 2,19,20
 383 50 383 50 444 93 c 128,-1,21
 505 136 505 136 539 213.5 c 128,-1,22
 573 291 573 291 573 393 c 0,23,24
 573 499 573 499 516.5 561 c 128,-1,25
 460 623 460 623 350 623 c 2,16,-1
EndSplineSet
Validated: 1
Substitution2: "'c2sc' Capitals to Small Capitals lookup 59 subtable" d.sc
Substitution2: "'aalt' Access All Alternates lookup 0 subtable" d.sc
Position2: "'cpsp' Capital Spacing lookup 0 subtable" dx=5 dy=0 dh=10 dv=0
EndChar

StartChar: E
Encoding: 69 69 13
Width: 637
GlyphClass: 2
Flags: W
AnchorPoint: "Anchor-3" 400 727 basechar 0
AnchorPoint: "Anchor-2" 450 0 basechar 0
AnchorPoint: "Anchor-0" 296 0 basechar 0
LayerCount: 2
Fore
SplineSet
-14 0 m 1,0,-1
 -11 16 l 1,1,-1
 76 58 l 1,2,-1
 174 617 l 1,3,-1
 101 659 l 1,4,-1
 104 676 l 1,5,-1
 614 676 l 1,6,-1
 584 499 l 1,7,-1
 567 499 l 1,8,-1
 519 622 l 1,9,-1
 315 622 l 1,10,-1
 272 373 l 1,11,-1
 412 373 l 1,12,-1
 485 462 l 1,13,-1
 502 462 l 1,14,-1
 462 238 l 1,15,-1
 445 238 l 1,16,-1
 403 325 l 1,17,-1
 263 325 l 1,18,-1
 216 54 l 1,19,-1
 447 54 l 1,20,-1
 549 209 l 1,21,-1
 565 209 l 1,22,-1
 528 0 l 1,23,-1
 -14 0 l 1,0,-1
EndSplineSet
Validated: 1
Substitution2: "'c2sc' Capitals to Small Capitals lookup 59 subtable" e.sc
Substitution2: "'aalt' Access All Alternates lookup 0 subtable" e.sc
Position2: "'cpsp' Capital Spacing lookup 0 subtable" dx=5 dy=0 dh=10 dv=0
EndChar

StartChar: F
Encoding: 70 70 14
Width: 615
GlyphClass: 1
Flags: W
LayerCount: 2
Fore
SplineSet
-14 0 m 1,0,-1
 -11 16 l 1,1,-1
 76 58 l 1,2,-1
 174 617 l 1,3,-1
 101 659 l 1,4,-1
 104 676 l 1,5,-1
 610 676 l 1,6,-1
 580 499 l 1,7,-1
 563 499 l 1,8,-1
 515 622 l 1,9,-1
 315 622 l 1,10,-1
 272 373 l 1,11,-1
 406 373 l 1,12,-1
 478 462 l 1,13,-1
 495 462 l 1,14,-1
 455 238 l 1,15,-1
 438 238 l 1,16,-1
 397 325 l 1,17,-1
 263 325 l 1,18,-1
 216 58 l 1,19,-1
 315 16 l 1,20,-1
 312 0 l 1,21,-1
 -14 0 l 1,0,-1
EndSplineSet
Validated: 1
Substitution2: "'c2sc' Capitals to Small Capitals lookup 59 subtable" f.sc
Substitution2: "'aalt' Access All Alternates lookup 0 subtable" f.sc
Position2: "'cpsp' Capital Spacing lookup 0 subtable" dx=5 dy=0 dh=10 dv=0
EndChar

StartChar: G
Encoding: 71 71 15
Width: 726
GlyphClass: 2
Flags: W
AnchorPoint: "Anchor-3" 464 727 basechar 0
AnchorPoint: "Anchor-0" 330 0 basechar 0
LayerCount: 2
Fore
SplineSet
318 -10 m 0,0,1
 237 -10 237 -10 176.5 25 c 128,-1,2
 116 60 116 60 82.5 122 c 128,-1,3
 49 184 49 184 49 264 c 0,4,5
 49 351 49 351 84 427.5 c 128,-1,6
 119 504 119 504 178.5 562.5 c 128,-1,7
 238 621 238 621 313 653.5 c 128,-1,8
 388 686 388 686 468 686 c 0,9,10
 515 686 515 686 549 681 c 128,-1,11
 583 676 583 676 610.5 664.5 c 128,-1,12
 638 653 638 653 667 637 c 1,13,-1
 644 457 l 1,14,-1
 628 457 l 1,15,-1
 563 606 l 1,16,17
 540 623 540 623 518 630.5 c 128,-1,18
 496 638 496 638 463 638 c 0,19,20
 404 638 404 638 355 606.5 c 128,-1,21
 306 575 306 575 270 521.5 c 128,-1,22
 234 468 234 468 215 400 c 128,-1,23
 196 332 196 332 196 258 c 0,24,25
 196 160 196 160 240.5 104 c 128,-1,26
 285 48 285 48 356 48 c 0,27,28
 372 48 372 48 391.5 50 c 128,-1,29
 411 52 411 52 431 56 c 1,30,-1
 464 243 l 1,31,-1
 388 291 l 1,32,-1
 391 307 l 1,33,-1
 686 307 l 1,34,-1
 683 291 l 1,35,-1
 604 242 l 1,36,-1
 575 76 l 1,37,38
 541 50 541 50 497 30.5 c 128,-1,39
 453 11 453 11 405.5 0.5 c 128,-1,40
 358 -10 358 -10 318 -10 c 0,0,1
EndSplineSet
Validated: 1
Substitution2: "'c2sc' Capitals to Small Capitals lookup 59 subtable" g.sc
Substitution2: "'aalt' Access All Alternates lookup 0 subtable" g.sc
Position2: "'cpsp' Capital Spacing lookup 0 subtable" dx=5 dy=0 dh=10 dv=0
EndChar

StartChar: H
Encoding: 72 72 16
Width: 789
GlyphClass: 2
Flags: W
AnchorPoint: "Anchor-3" 463 727 basechar 0
AnchorPoint: "Anchor-0" 335 0 basechar 0
LayerCount: 2
Fore
SplineSet
-14 0 m 1,0,-1
 -11 16 l 1,1,-1
 73 58 l 1,2,-1
 172 617 l 1,3,-1
 97 659 l 1,4,-1
 100 676 l 1,5,-1
 396 676 l 1,6,-1
 393 659 l 1,7,-1
 312 617 l 1,8,-1
 269 376 l 1,9,-1
 532 376 l 1,10,-1
 575 617 l 1,11,-1
 506 659 l 1,12,-1
 509 676 l 1,13,-1
 804 676 l 1,14,-1
 801 659 l 1,15,-1
 716 617 l 1,16,-1
 616 58 l 1,17,-1
 692 16 l 1,18,-1
 689 0 l 1,19,-1
 394 0 l 1,20,-1
 397 16 l 1,21,-1
 476 58 l 1,22,-1
 523 322 l 1,23,-1
 260 322 l 1,24,-1
 214 58 l 1,25,-1
 284 16 l 1,26,-1
 281 0 l 1,27,-1
 -14 0 l 1,0,-1
EndSplineSet
Validated: 1
Substitution2: "'c2sc' Capitals to Small Capitals lookup 59 subtable" h.sc
Substitution2: "'aalt' Access All Alternates lookup 0 subtable" h.sc
Position2: "'cpsp' Capital Spacing lookup 0 subtable" dx=5 dy=0 dh=10 dv=0
EndChar

StartChar: I
Encoding: 73 73 17
Width: 387
GlyphClass: 2
Flags: W
AnchorPoint: "Anchor-3" 261 727 basechar 0
AnchorPoint: "Anchor-2" 153 0 basechar 0
AnchorPoint: "Anchor-0" 133 0 basechar 0
LayerCount: 2
Fore
SplineSet
-14 0 m 1,0,-1
 -11 16 l 1,1,-1
 73 58 l 1,2,-1
 172 617 l 1,3,-1
 97 659 l 1,4,-1
 100 676 l 1,5,-1
 402 676 l 1,6,-1
 399 659 l 1,7,-1
 312 617 l 1,8,-1
 214 58 l 1,9,-1
 290 16 l 1,10,-1
 287 0 l 1,11,-1
 -14 0 l 1,0,-1
EndSplineSet
Validated: 1
Substitution2: "'c2sc' Capitals to Small Capitals lookup 59 subtable" i.sc
Substitution2: "'aalt' Access All Alternates lookup 0 subtable" i.sc
Position2: "'cpsp' Capital Spacing lookup 0 subtable" dx=5 dy=0 dh=10 dv=0
EndChar

StartChar: J
Encoding: 74 74 18
Width: 397
GlyphClass: 2
Flags: W
AnchorPoint: "Anchor-3" 279 727 basechar 0
LayerCount: 2
Fore
SplineSet
-33 -177 m 0,0,1
 -78 -177 -78 -177 -78 -145 c 0,2,3
 -78 -139 -78 -139 -75 -131 c 2,4,-1
 -57 -73 l 1,5,-1
 30 -91 l 1,6,7
 53 -73 53 -73 67.5 -36 c 128,-1,8
 82 1 82 1 95 75 c 2,9,-1
 190 617 l 1,10,-1
 112 659 l 1,11,-1
 114 676 l 1,12,-1
 416 676 l 1,13,-1
 413 659 l 1,14,-1
 332 617 l 1,15,-1
 262 239 l 2,16,17
 246 147 246 147 209 66 c 128,-1,18
 172 -15 172 -15 106 -82 c 0,19,20
 63 -126 63 -126 37.5 -146 c 128,-1,21
 12 -166 12 -166 -4 -171.5 c 128,-1,22
 -20 -177 -20 -177 -33 -177 c 0,0,1
EndSplineSet
Validated: 1
Substitution2: "'c2sc' Capitals to Small Capitals lookup 59 subtable" j.sc
Substitution2: "Single Substitution lookup 13 subtable" Jacute
AlternateSubs2: "'aalt' Access All Alternates lookup 1 subtable" Jacute j.sc
Position2: "'cpsp' Capital Spacing lookup 0 subtable" dx=5 dy=0 dh=10 dv=0
EndChar

StartChar: K
Encoding: 75 75 19
Width: 738
GlyphClass: 2
Flags: W
AnchorPoint: "Anchor-3" 456 727 basechar 0
AnchorPoint: "Anchor-0" 340 0 basechar 0
LayerCount: 2
Fore
SplineSet
-14 0 m 1,0,-1
 -11 16 l 1,1,-1
 76 58 l 1,2,-1
 174 617 l 1,3,-1
 101 659 l 1,4,-1
 104 676 l 1,5,-1
 407 676 l 1,6,-1
 402 659 l 1,7,-1
 315 617 l 1,8,-1
 216 58 l 1,9,-1
 291 16 l 1,10,-1
 287 0 l 1,11,-1
 -14 0 l 1,0,-1
479 0 m 1,12,-1
 268 342 l 1,13,-1
 572 624 l 1,14,-1
 508 659 l 1,15,-1
 511 676 l 1,16,-1
 731 676 l 1,17,-1
 727 659 l 1,18,-1
 665 635 l 1,19,-1
 394 389 l 1,20,-1
 613 53 l 1,21,-1
 673 16 l 1,22,-1
 670 0 l 1,23,-1
 479 0 l 1,12,-1
EndSplineSet
Validated: 1
Substitution2: "'c2sc' Capitals to Small Capitals lookup 59 subtable" k.sc
Substitution2: "'aalt' Access All Alternates lookup 0 subtable" k.sc
Position2: "'cpsp' Capital Spacing lookup 0 subtable" dx=5 dy=0 dh=10 dv=0
EndChar

StartChar: L
Encoding: 76 76 20
Width: 594
GlyphClass: 2
Flags: W
AnchorPoint: "Anchor-3" 264 727 basechar 0
AnchorPoint: "Anchor-2" 530 676 basechar 0
AnchorPoint: "Anchor-1" 498 360 basechar 0
AnchorPoint: "Anchor-0" 269 0 basechar 0
LayerCount: 2
Fore
SplineSet
-14 0 m 1,0,-1
 -11 16 l 1,1,-1
 76 58 l 1,2,-1
 174 617 l 1,3,-1
 101 659 l 1,4,-1
 104 676 l 1,5,-1
 416 676 l 1,6,-1
 413 659 l 1,7,-1
 315 617 l 1,8,-1
 216 54 l 1,9,-1
 412 54 l 1,10,-1
 526 242 l 1,11,-1
 543 242 l 1,12,-1
 498 0 l 1,13,-1
 -14 0 l 1,0,-1
EndSplineSet
Validated: 1
Substitution2: "'c2sc' Capitals to Small Capitals lookup 59 subtable" l.sc
Substitution2: "'aalt' Access All Alternates lookup 0 subtable" l.sc
Position2: "'cpsp' Capital Spacing lookup 0 subtable" dx=5 dy=0 dh=10 dv=0
EndChar

StartChar: M
Encoding: 77 77 21
Width: 956
GlyphClass: 2
Flags: W
AnchorPoint: "Anchor-0" 393 0 basechar 0
LayerCount: 2
Fore
SplineSet
-14 0 m 1,0,-1
 -11 16 l 1,1,-1
 76 58 l 1,2,-1
 195 617 l 1,3,-1
 112 659 l 1,4,-1
 116 676 l 1,5,-1
 352 676 l 1,6,-1
 466 196 l 1,7,-1
 728 676 l 1,8,-1
 952 676 l 1,9,-1
 948 659 l 1,10,-1
 862 617 l 1,11,-1
 798 58 l 1,12,-1
 863 16 l 1,13,-1
 860 0 l 1,14,-1
 574 0 l 1,15,-1
 578 16 l 1,16,-1
 658 57 l 1,17,-1
 714 528 l 1,18,-1
 420 -5 l 1,19,-1
 367 -5 l 1,20,-1
 240 543 l 1,21,-1
 140 57 l 1,22,-1
 216 16 l 1,23,-1
 213 0 l 1,24,-1
 -14 0 l 1,0,-1
EndSplineSet
Validated: 1
Substitution2: "'c2sc' Capitals to Small Capitals lookup 59 subtable" m.sc
Substitution2: "'aalt' Access All Alternates lookup 0 subtable" m.sc
Position2: "'cpsp' Capital Spacing lookup 0 subtable" dx=5 dy=0 dh=10 dv=0
EndChar

StartChar: N
Encoding: 78 78 22
Width: 779
GlyphClass: 2
Flags: W
AnchorPoint: "Anchor-3" 469 727 basechar 0
AnchorPoint: "Anchor-0" 348 0 basechar 0
LayerCount: 2
Fore
SplineSet
-11 0 m 1,0,-1
 -8 16 l 1,1,-1
 80 58 l 1,2,-1
 178 616 l 1,3,-1
 104 659 l 1,4,-1
 108 676 l 1,5,-1
 286 676 l 1,6,-1
 565 210 l 1,7,-1
 637 618 l 1,8,-1
 536 659 l 1,9,-1
 539 676 l 1,10,-1
 796 676 l 1,11,-1
 793 659 l 1,12,-1
 706 617 l 1,13,-1
 596 -5 l 1,14,-1
 534 -5 l 1,15,-1
 226 498 l 1,16,-1
 150 58 l 1,17,-1
 251 16 l 1,18,-1
 248 0 l 1,19,-1
 -11 0 l 1,0,-1
EndSplineSet
Validated: 1
Substitution2: "'c2sc' Capitals to Small Capitals lookup 59 subtable" n.sc
Substitution2: "'aalt' Access All Alternates lookup 0 subtable" n.sc
Position2: "'cpsp' Capital Spacing lookup 0 subtable" dx=5 dy=0 dh=10 dv=0
EndChar

StartChar: O
Encoding: 79 79 23
Width: 792
GlyphClass: 2
Flags: W
AnchorPoint: "Anchor-3" 464 727 basechar 0
AnchorPoint: "Anchor-2" 365 0 basechar 0
AnchorPoint: "Anchor-0" 339 0 basechar 0
LayerCount: 2
Fore
SplineSet
344 -10 m 0,0,1
 251 -10 251 -10 185 26.5 c 128,-1,2
 119 63 119 63 84 129.5 c 128,-1,3
 49 196 49 196 49 282 c 0,4,5
 49 365 49 365 79.5 437.5 c 128,-1,6
 110 510 110 510 164 566.5 c 128,-1,7
 218 623 218 623 290 654.5 c 128,-1,8
 362 686 362 686 447 686 c 0,9,10
 540 686 540 686 606.5 649 c 128,-1,11
 673 612 673 612 708 546 c 128,-1,12
 743 480 743 480 743 394 c 0,13,14
 743 312 743 312 714 239.5 c 128,-1,15
 685 167 685 167 632 110.5 c 128,-1,16
 579 54 579 54 505.5 22 c 128,-1,17
 432 -10 432 -10 344 -10 c 0,0,1
364 41 m 0,18,19
 415 41 415 41 457.5 70 c 128,-1,20
 500 99 500 99 530.5 150 c 128,-1,21
 561 201 561 201 578 267 c 128,-1,22
 595 333 595 333 595 408 c 0,23,24
 595 509 595 509 554 572 c 128,-1,25
 513 635 513 635 431 635 c 0,26,27
 381 635 381 635 338.5 606.5 c 128,-1,28
 296 578 296 578 264.5 527 c 128,-1,29
 233 476 233 476 216 410 c 128,-1,30
 199 344 199 344 199 269 c 0,31,32
 199 169 199 169 242 105 c 128,-1,33
 285 41 285 41 364 41 c 0,18,19
EndSplineSet
Validated: 1
Substitution2: "'c2sc' Capitals to Small Capitals lookup 59 subtable" o.sc
Substitution2: "Single Substitution lookup 21 subtable" ordmasculine
AlternateSubs2: "'aalt' Access All Alternates lookup 1 subtable" ordmasculine o.sc
Position2: "'cpsp' Capital Spacing lookup 0 subtable" dx=5 dy=0 dh=10 dv=0
EndChar

StartChar: P
Encoding: 80 80 24
Width: 651
GlyphClass: 1
Flags: W
LayerCount: 2
Fore
SplineSet
-14 0 m 1,0,-1
 -11 16 l 1,1,-1
 76 58 l 1,2,-1
 174 617 l 1,3,-1
 101 659 l 1,4,-1
 104 676 l 1,5,-1
 377 676 l 2,6,7
 636 676 636 676 636 513 c 0,8,9
 636 457 636 457 599.5 408.5 c 128,-1,10
 563 360 563 360 491 331 c 128,-1,11
 419 302 419 302 310 302 c 2,12,-1
 259 302 l 1,13,-1
 216 58 l 1,14,-1
 306 16 l 1,15,-1
 303 0 l 1,16,-1
 -14 0 l 1,0,-1
349 622 m 2,17,-1
 315 622 l 1,18,-1
 267 350 l 1,19,-1
 328 350 l 2,20,21
 410 350 410 350 448 395.5 c 128,-1,22
 486 441 486 441 486 507 c 0,23,24
 486 564 486 564 451 593 c 128,-1,25
 416 622 416 622 349 622 c 2,17,-1
EndSplineSet
Validated: 1
Substitution2: "'c2sc' Capitals to Small Capitals lookup 59 subtable" p.sc
Substitution2: "'aalt' Access All Alternates lookup 0 subtable" p.sc
Position2: "'cpsp' Capital Spacing lookup 0 subtable" dx=5 dy=0 dh=10 dv=0
EndChar

StartChar: Q
Encoding: 81 81 25
Width: 792
GlyphClass: 1
Flags: W
LayerCount: 2
Fore
SplineSet
623 -153 m 256,0,1
 585 -153 585 -153 534 -141 c 128,-1,2
 483 -129 483 -129 424.5 -98 c 128,-1,3
 366 -67 366 -67 302 -8 c 1,4,5
 222 0 222 0 165.5 39 c 128,-1,6
 109 78 109 78 79 140 c 128,-1,7
 49 202 49 202 49 282 c 0,8,9
 49 365 49 365 79.5 437.5 c 128,-1,10
 110 510 110 510 164 566.5 c 128,-1,11
 218 623 218 623 290 654.5 c 128,-1,12
 362 686 362 686 447 686 c 0,13,14
 540 686 540 686 606.5 649 c 128,-1,15
 673 612 673 612 708 546 c 128,-1,16
 743 480 743 480 743 394 c 0,17,18
 743 305 743 305 708.5 226 c 128,-1,19
 674 147 674 147 611.5 90 c 128,-1,20
 549 33 549 33 464 7 c 1,21,22
 523 -42 523 -42 563 -67 c 128,-1,23
 603 -92 603 -92 634 -101 c 128,-1,24
 665 -110 665 -110 698 -110 c 0,25,26
 714 -110 714 -110 729.5 -107 c 128,-1,27
 745 -104 745 -104 756 -100 c 1,28,-1
 749 -125 l 1,29,30
 726 -137 726 -137 693.5 -145 c 128,-1,31
 661 -153 661 -153 623 -153 c 256,0,1
364 41 m 0,32,33
 415 41 415 41 457.5 70 c 128,-1,34
 500 99 500 99 530.5 150 c 128,-1,35
 561 201 561 201 578 267 c 128,-1,36
 595 333 595 333 595 408 c 0,37,38
 595 509 595 509 554 572 c 128,-1,39
 513 635 513 635 431 635 c 0,40,41
 381 635 381 635 338.5 606.5 c 128,-1,42
 296 578 296 578 264.5 527 c 128,-1,43
 233 476 233 476 216 410 c 128,-1,44
 199 344 199 344 199 269 c 0,45,46
 199 169 199 169 242 105 c 128,-1,47
 285 41 285 41 364 41 c 0,32,33
EndSplineSet
Validated: 1
Substitution2: "'c2sc' Capitals to Small Capitals lookup 59 subtable" q.sc
Substitution2: "'aalt' Access All Alternates lookup 0 subtable" q.sc
Position2: "'cpsp' Capital Spacing lookup 0 subtable" dx=5 dy=0 dh=10 dv=0
EndChar

StartChar: R
Encoding: 82 82 26
Width: 701
GlyphClass: 2
Flags: W
AnchorPoint: "Anchor-3" 369 727 basechar 0
AnchorPoint: "Anchor-0" 305 0 basechar 0
LayerCount: 2
Fore
SplineSet
-14 0 m 1,0,-1
 -12 16 l 1,1,-1
 76 58 l 1,2,-1
 174 617 l 1,3,-1
 100 659 l 1,4,-1
 103 676 l 1,5,-1
 372 676 l 2,6,7
 485 676 485 676 547 636 c 128,-1,8
 609 596 609 596 609 522 c 0,9,10
 609 460 609 460 566.5 415.5 c 128,-1,11
 524 371 524 371 452 345 c 1,12,-1
 583 57 l 1,13,-1
 644 16 l 1,14,-1
 642 0 l 1,15,-1
 454 0 l 1,16,-1
 325 314 l 1,17,-1
 261 314 l 1,18,-1
 216 59 l 1,19,-1
 288 16 l 1,20,-1
 285 0 l 1,21,-1
 -14 0 l 1,0,-1
346 622 m 2,22,-1
 314 622 l 1,23,-1
 269 362 l 1,24,-1
 324 362 l 2,25,26
 369 362 369 362 400.5 382 c 128,-1,27
 432 402 432 402 449 435.5 c 128,-1,28
 466 469 466 469 466 509 c 0,29,30
 466 622 466 622 346 622 c 2,22,-1
EndSplineSet
Validated: 1
Substitution2: "'c2sc' Capitals to Small Capitals lookup 59 subtable" r.sc
Substitution2: "'aalt' Access All Alternates lookup 0 subtable" r.sc
Position2: "'cpsp' Capital Spacing lookup 0 subtable" dx=5 dy=0 dh=10 dv=0
EndChar

StartChar: S
Encoding: 83 83 27
Width: 552
GlyphClass: 2
Flags: W
AnchorPoint: "Anchor-3" 365 727 basechar 0
AnchorPoint: "Anchor-0" 218 0 basechar 0
LayerCount: 2
Fore
SplineSet
211 -10 m 0,0,1
 149 -10 149 -10 104 3.5 c 128,-1,2
 59 17 59 17 18 42 c 1,3,-1
 38 215 l 1,4,-1
 55 215 l 1,5,-1
 109 81 l 1,6,7
 128 63 128 63 153.5 51.5 c 128,-1,8
 179 40 179 40 212 40 c 0,9,10
 272 40 272 40 310.5 73 c 128,-1,11
 349 106 349 106 349 163 c 0,12,13
 349 192 349 192 337 213 c 128,-1,14
 325 234 325 234 295 256.5 c 128,-1,15
 265 279 265 279 213 309 c 0,16,17
 156 344 156 344 130 380 c 128,-1,18
 104 416 104 416 104 471 c 0,19,20
 104 531 104 531 138 580 c 128,-1,21
 172 629 172 629 229.5 657.5 c 128,-1,22
 287 686 287 686 355 686 c 0,23,24
 403 686 403 686 444 674 c 128,-1,25
 485 662 485 662 519 639 c 1,26,-1
 502 475 l 1,27,-1
 484 475 l 1,28,-1
 432 599 l 1,29,30
 417 613 417 613 396.5 624 c 128,-1,31
 376 635 376 635 345 635 c 0,32,33
 298 635 298 635 265 602.5 c 128,-1,34
 232 570 232 570 232 522 c 0,35,36
 232 486 232 486 253.5 459 c 128,-1,37
 275 432 275 432 336 395 c 0,38,39
 386 366 386 366 417.5 340.5 c 128,-1,40
 449 315 449 315 463.5 285.5 c 128,-1,41
 478 256 478 256 478 214 c 0,42,43
 478 152 478 152 443.5 101 c 128,-1,44
 409 50 409 50 348 20 c 128,-1,45
 287 -10 287 -10 211 -10 c 0,0,1
EndSplineSet
Validated: 1
Substitution2: "'c2sc' Capitals to Small Capitals lookup 59 subtable" s.sc
Substitution2: "'aalt' Access All Alternates lookup 0 subtable" s.sc
Position2: "'cpsp' Capital Spacing lookup 0 subtable" dx=5 dy=0 dh=10 dv=0
EndChar

StartChar: T
Encoding: 84 84 28
Width: 655
GlyphClass: 2
Flags: W
AnchorPoint: "Anchor-3" 400 727 basechar 0
AnchorPoint: "Anchor-0" 271 0 basechar 0
LayerCount: 2
Fore
SplineSet
102 0 m 1,0,-1
 106 16 l 1,1,-1
 212 58 l 1,2,-1
 312 622 l 1,3,-1
 178 622 l 1,4,-1
 75 451 l 1,5,-1
 58 451 l 1,6,-1
 96 676 l 1,7,-1
 688 676 l 1,8,-1
 649 451 l 1,9,-1
 633 451 l 1,10,-1
 588 622 l 1,11,-1
 454 622 l 1,12,-1
 353 58 l 1,13,-1
 446 16 l 1,14,-1
 443 0 l 1,15,-1
 102 0 l 1,0,-1
EndSplineSet
Validated: 1
Substitution2: "'c2sc' Capitals to Small Capitals lookup 59 subtable" t.sc
Substitution2: "'aalt' Access All Alternates lookup 0 subtable" t.sc
Position2: "'cpsp' Capital Spacing lookup 0 subtable" dx=5 dy=0 dh=10 dv=0
EndChar

StartChar: U
Encoding: 85 85 29
Width: 779
GlyphClass: 2
Flags: W
AnchorPoint: "Anchor-3" 498 727 basechar 0
AnchorPoint: "Anchor-2" 370 0 basechar 0
AnchorPoint: "Anchor-0" 347 0 basechar 0
LayerCount: 2
Fore
SplineSet
354 -10 m 0,0,1
 280 -10 280 -10 224.5 11.5 c 128,-1,2
 169 33 169 33 138.5 80.5 c 128,-1,3
 108 128 108 128 108 206 c 0,4,5
 108 225 108 225 110 246 c 128,-1,6
 112 267 112 267 116 291 c 2,7,-1
 173 617 l 1,8,-1
 98 659 l 1,9,-1
 101 676 l 1,10,-1
 404 676 l 1,11,-1
 401 659 l 1,12,-1
 313 617 l 1,13,-1
 256 290 l 2,14,15
 253 270 253 270 251 251.5 c 128,-1,16
 249 233 249 233 249 217 c 0,17,18
 249 134 249 134 290.5 100 c 128,-1,19
 332 66 332 66 399 66 c 0,20,21
 440 66 440 66 479 84.5 c 128,-1,22
 518 103 518 103 547.5 145 c 128,-1,23
 577 187 577 187 588 254 c 2,24,-1
 651 620 l 1,25,-1
 569 659 l 1,26,-1
 572 676 l 1,27,-1
 807 676 l 1,28,-1
 804 659 l 1,29,-1
 717 618 l 1,30,-1
 659 291 l 2,31,32
 640 179 640 179 598 113 c 128,-1,33
 556 47 556 47 494 18.5 c 128,-1,34
 432 -10 432 -10 354 -10 c 0,0,1
EndSplineSet
Validated: 1
Substitution2: "'c2sc' Capitals to Small Capitals lookup 59 subtable" u.sc
Substitution2: "'aalt' Access All Alternates lookup 0 subtable" u.sc
Position2: "'cpsp' Capital Spacing lookup 0 subtable" dx=5 dy=0 dh=10 dv=0
EndChar

StartChar: V
Encoding: 86 86 30
Width: 706
GlyphClass: 1
Flags: W
LayerCount: 2
Fore
SplineSet
272 -5 m 1,0,-1
 132 623 l 1,1,-1
 73 659 l 1,2,-1
 77 676 l 1,3,-1
 365 676 l 1,4,-1
 360 659 l 1,5,-1
 278 624 l 1,6,-1
 377 172 l 1,7,-1
 384 172 l 1,8,-1
 629 624 l 1,9,-1
 553 659 l 1,10,-1
 556 676 l 1,11,-1
 758 676 l 1,12,-1
 754 659 l 1,13,-1
 694 627 l 1,14,-1
 345 -5 l 1,15,-1
 272 -5 l 1,0,-1
EndSplineSet
Validated: 1
Substitution2: "'c2sc' Capitals to Small Capitals lookup 59 subtable" v.sc
Substitution2: "'aalt' Access All Alternates lookup 0 subtable" v.sc
Position2: "'cpsp' Capital Spacing lookup 0 subtable" dx=5 dy=0 dh=10 dv=0
EndChar

StartChar: W
Encoding: 87 87 31
Width: 973
GlyphClass: 2
Flags: W
AnchorPoint: "Anchor-3" 605 727 basechar 0
LayerCount: 2
Fore
SplineSet
210 -5 m 1,0,-1
 138 623 l 1,1,-1
 73 659 l 1,2,-1
 76 676 l 1,3,-1
 370 676 l 1,4,-1
 367 659 l 1,5,-1
 279 623 l 1,6,-1
 322 210 l 1,7,-1
 329 210 l 1,8,-1
 564 681 l 1,9,-1
 633 681 l 1,10,-1
 714 212 l 1,11,-1
 720 212 l 1,12,-1
 896 625 l 1,13,-1
 818 659 l 1,14,-1
 821 676 l 1,15,-1
 1033 676 l 1,16,-1
 1030 659 l 1,17,-1
 962 626 l 1,18,-1
 682 -5 l 1,19,-1
 612 -5 l 1,20,-1
 527 470 l 1,21,-1
 521 470 l 1,22,-1
 281 -5 l 1,23,-1
 210 -5 l 1,0,-1
EndSplineSet
Validated: 1
Substitution2: "'c2sc' Capitals to Small Capitals lookup 59 subtable" w.sc
Substitution2: "'aalt' Access All Alternates lookup 0 subtable" w.sc
Position2: "'cpsp' Capital Spacing lookup 0 subtable" dx=5 dy=0 dh=10 dv=0
EndChar

StartChar: X
Encoding: 88 88 32
Width: 731
GlyphClass: 1
Flags: W
LayerCount: 2
Fore
SplineSet
-39 0 m 1,0,-1
 -35 16 l 1,1,-1
 44 54 l 1,2,-1
 300 330 l 1,3,-1
 144 626 l 1,4,-1
 90 659 l 1,5,-1
 93 676 l 1,6,-1
 390 676 l 1,7,-1
 387 659 l 1,8,-1
 300 624 l 1,9,-1
 299 618 l 1,10,-1
 413 410 l 1,11,-1
 603 618 l 1,12,-1
 604 623 l 1,13,-1
 534 659 l 1,14,-1
 537 676 l 1,15,-1
 755 676 l 1,16,-1
 752 659 l 1,17,-1
 684 625 l 1,18,-1
 438 361 l 1,19,-1
 603 55 l 1,20,-1
 665 16 l 1,21,-1
 662 0 l 1,22,-1
 360 0 l 1,23,-1
 364 16 l 1,24,-1
 443 52 l 1,25,-1
 443 56 l 1,26,-1
 327 280 l 1,27,-1
 123 58 l 1,28,-1
 120 54 l 1,29,-1
 193 16 l 1,30,-1
 189 0 l 1,31,-1
 -39 0 l 1,0,-1
EndSplineSet
Validated: 1
Substitution2: "'c2sc' Capitals to Small Capitals lookup 59 subtable" x.sc
Substitution2: "'aalt' Access All Alternates lookup 0 subtable" x.sc
Position2: "'cpsp' Capital Spacing lookup 0 subtable" dx=5 dy=0 dh=10 dv=0
EndChar

StartChar: Y
Encoding: 89 89 33
Width: 702
GlyphClass: 2
Flags: W
AnchorPoint: "Anchor-3" 459 727 basechar 0
AnchorPoint: "Anchor-0" 306 0 basechar 0
LayerCount: 2
Fore
SplineSet
151 0 m 1,0,-1
 154 16 l 1,1,-1
 245 58 l 1,2,-1
 290 314 l 1,3,-1
 128 625 l 1,4,-1
 75 659 l 1,5,-1
 79 676 l 1,6,-1
 364 676 l 1,7,-1
 359 659 l 1,8,-1
 278 625 l 1,9,-1
 276 621 l 1,10,-1
 410 370 l 1,11,-1
 611 620 l 1,12,-1
 612 624 l 1,13,-1
 542 659 l 1,14,-1
 546 676 l 1,15,-1
 761 676 l 1,16,-1
 758 659 l 1,17,-1
 692 628 l 1,18,-1
 431 316 l 1,19,-1
 385 58 l 1,20,-1
 463 16 l 1,21,-1
 460 0 l 1,22,-1
 151 0 l 1,0,-1
EndSplineSet
Validated: 1
Substitution2: "'c2sc' Capitals to Small Capitals lookup 59 subtable" y.sc
Substitution2: "'aalt' Access All Alternates lookup 0 subtable" y.sc
Position2: "'cpsp' Capital Spacing lookup 0 subtable" dx=5 dy=0 dh=10 dv=0
EndChar

StartChar: Z
Encoding: 90 90 34
Width: 625
GlyphClass: 2
Flags: W
AnchorPoint: "Anchor-3" 386 727 basechar 0
AnchorPoint: "Anchor-0" 271 0 basechar 0
LayerCount: 2
Fore
SplineSet
8 0 m 1,0,-1
 14 37 l 1,1,-1
 439 622 l 1,2,-1
 214 622 l 1,3,-1
 113 467 l 1,4,-1
 96 467 l 1,5,-1
 135 676 l 1,6,-1
 613 676 l 1,7,-1
 607 639 l 1,8,-1
 185 60 l 1,9,-1
 429 60 l 1,10,-1
 532 219 l 1,11,-1
 549 219 l 1,12,-1
 508 0 l 1,13,-1
 8 0 l 1,0,-1
EndSplineSet
Validated: 1
Substitution2: "'c2sc' Capitals to Small Capitals lookup 59 subtable" z.sc
Substitution2: "'aalt' Access All Alternates lookup 0 subtable" z.sc
Position2: "'cpsp' Capital Spacing lookup 0 subtable" dx=5 dy=0 dh=10 dv=0
EndChar

StartChar: Aogonek
Encoding: 260 260 45
Width: 734
GlyphClass: 1
Flags: W
LayerCount: 2
Fore
SplineSet
-34 0 m 1,0,-1
 -31 16 l 1,1,-1
 29 49 l 1,2,-1
 388 681 l 1,3,-1
 469 681 l 1,4,-1
 600 54 l 1,5,-1
 660 16 l 1,6,-1
 656 0 l 1,7,-1
 536 0 l 1,8,9
 513 -34 513 -34 498.5 -69 c 128,-1,10
 484 -104 484 -104 484 -137 c 0,11,12
 484 -192 484 -192 541 -193 c 0,13,14
 551 -193 551 -193 564 -188.5 c 128,-1,15
 577 -184 577 -184 587 -176 c 1,16,-1
 590 -176 l 1,17,-1
 586 -196 l 1,18,19
 571 -220 571 -220 547 -233 c 128,-1,20
 523 -246 523 -246 492 -246 c 0,21,22
 450 -246 450 -246 426 -224 c 128,-1,23
 402 -202 402 -202 402 -164 c 0,24,25
 402 -121 402 -121 431 -80 c 128,-1,26
 460 -39 460 -39 502 0 c 1,27,-1
 360 0 l 1,28,-1
 364 16 l 1,29,-1
 452 52 l 1,30,-1
 417 224 l 1,31,-1
 191 224 l 1,32,-1
 94 51 l 1,33,-1
 171 16 l 1,34,-1
 167 0 l 1,35,-1
 -34 0 l 1,0,-1
222 279 m 1,36,-1
 406 279 l 1,37,-1
 356 520 l 1,38,-1
 222 279 l 1,36,-1
EndSplineSet
Validated: 1
Substitution2: "'c2sc' Capitals to Small Capitals lookup 59 subtable" aogonek.sc
Substitution2: "'aalt' Access All Alternates lookup 0 subtable" aogonek.sc
Position2: "'cpsp' Capital Spacing lookup 0 subtable" dx=5 dy=0 dh=10 dv=0
EndChar

StartChar: AE
Encoding: 198 198 59
Width: 980
GlyphClass: 2
Flags: W
AnchorPoint: "Anchor-3" 614 727 basechar 0
LayerCount: 2
Fore
SplineSet
-34 0 m 1,0,-1
 -31 16 l 1,1,-1
 33 48 l 1,2,-1
 511 676 l 1,3,-1
 957 676 l 1,4,-1
 927 499 l 1,5,-1
 910 499 l 1,6,-1
 863 622 l 1,7,-1
 658 622 l 1,8,-1
 615 376 l 1,9,-1
 756 376 l 1,10,-1
 828 465 l 1,11,-1
 845 465 l 1,12,-1
 804 234 l 1,13,-1
 787 234 l 1,14,-1
 745 322 l 1,15,-1
 606 322 l 1,16,-1
 559 54 l 1,17,-1
 791 54 l 1,18,-1
 892 209 l 1,19,-1
 908 209 l 1,20,-1
 871 0 l 1,21,-1
 329 0 l 1,22,-1
 332 16 l 1,23,-1
 419 58 l 1,24,-1
 451 237 l 1,25,-1
 245 237 l 1,26,-1
 101 48 l 1,27,-1
 171 16 l 1,28,-1
 167 0 l 1,29,-1
 -34 0 l 1,0,-1
286 291 m 1,30,-1
 460 291 l 1,31,-1
 513 591 l 1,32,-1
 286 291 l 1,30,-1
EndSplineSet
Validated: 1
Substitution2: "'c2sc' Capitals to Small Capitals lookup 59 subtable" ae.sc
Substitution2: "'aalt' Access All Alternates lookup 0 subtable" ae.sc
Position2: "'cpsp' Capital Spacing lookup 0 subtable" dx=5 dy=0 dh=10 dv=0
EndChar

StartChar: Ccedilla
Encoding: 199 199 65
Width: 680
GlyphClass: 1
Flags: W
LayerCount: 2
Fore
SplineSet
301 -246 m 0,0,1
 275 -246 275 -246 256 -239 c 128,-1,2
 237 -232 237 -232 224 -222 c 1,3,-1
 227 -204 l 1,4,-1
 231 -204 l 1,5,6
 254 -215 254 -215 286 -215 c 0,7,8
 315 -215 315 -215 331 -203 c 128,-1,9
 347 -191 347 -191 347 -170 c 0,10,11
 347 -150 347 -150 327.5 -133.5 c 128,-1,12
 308 -117 308 -117 258 -104 c 1,13,-1
 315 -10 l 1,14,15
 232 -6 232 -6 172.5 30.5 c 128,-1,16
 113 67 113 67 81 127.5 c 128,-1,17
 49 188 49 188 49 266 c 0,18,19
 49 350 49 350 81 426 c 128,-1,20
 113 502 113 502 169.5 560 c 128,-1,21
 226 618 226 618 300.5 652 c 128,-1,22
 375 686 375 686 460 686 c 0,23,24
 521 686 521 686 559 673 c 128,-1,25
 597 660 597 660 637 637 c 1,26,-1
 616 445 l 1,27,-1
 599 445 l 1,28,-1
 532 607 l 1,29,30
 515 622 515 622 495.5 630 c 128,-1,31
 476 638 476 638 445 638 c 0,32,33
 390 638 390 638 344 608.5 c 128,-1,34
 298 579 298 579 265 527 c 128,-1,35
 232 475 232 475 214.5 406.5 c 128,-1,36
 197 338 197 338 197 260 c 0,37,38
 197 160 197 160 240.5 100.5 c 128,-1,39
 284 41 284 41 358 41 c 0,40,41
 389 41 389 41 417.5 50.5 c 128,-1,42
 446 60 446 60 473 76 c 1,43,-1
 585 216 l 1,44,-1
 602 216 l 1,45,-1
 561 43 l 1,46,47
 521 19 521 19 467.5 5.5 c 128,-1,48
 414 -8 414 -8 349 -10 c 1,49,-1
 327 -49 l 1,50,51
 376 -63 376 -63 397 -87.5 c 128,-1,52
 418 -112 418 -112 418 -145 c 0,53,54
 418 -188 418 -188 385.5 -217 c 128,-1,55
 353 -246 353 -246 301 -246 c 0,0,1
EndSplineSet
Validated: 1
Substitution2: "'c2sc' Capitals to Small Capitals lookup 59 subtable" ccedilla.sc
Substitution2: "'aalt' Access All Alternates lookup 0 subtable" ccedilla.sc
Position2: "'cpsp' Capital Spacing lookup 0 subtable" dx=5 dy=0 dh=10 dv=0
EndChar

StartChar: Ccedillaacute
Encoding: 7688 7688 66
Width: 680
GlyphClass: 1
Flags: W
LayerCount: 2
Fore
SplineSet
442 727 m 1,0,-1
 543 883 l 1,1,-1
 667 883 l 1,2,-1
 665 858 l 1,3,-1
 463 727 l 1,4,-1
 442 727 l 1,0,-1
301 -246 m 0,5,6
 275 -246 275 -246 256 -239 c 128,-1,7
 237 -232 237 -232 224 -222 c 1,8,-1
 227 -204 l 1,9,-1
 231 -204 l 1,10,11
 254 -215 254 -215 286 -215 c 0,12,13
 315 -215 315 -215 331 -203 c 128,-1,14
 347 -191 347 -191 347 -170 c 0,15,16
 347 -150 347 -150 327.5 -133.5 c 128,-1,17
 308 -117 308 -117 258 -104 c 1,18,-1
 315 -10 l 1,19,20
 232 -6 232 -6 172.5 30.5 c 128,-1,21
 113 67 113 67 81 127.5 c 128,-1,22
 49 188 49 188 49 266 c 0,23,24
 49 350 49 350 81 426 c 128,-1,25
 113 502 113 502 169.5 560 c 128,-1,26
 226 618 226 618 300.5 652 c 128,-1,27
 375 686 375 686 460 686 c 0,28,29
 521 686 521 686 559 673 c 128,-1,30
 597 660 597 660 637 637 c 1,31,-1
 616 445 l 1,32,-1
 599 445 l 1,33,-1
 532 607 l 1,34,35
 515 622 515 622 495.5 630 c 128,-1,36
 476 638 476 638 445 638 c 0,37,38
 390 638 390 638 344 608.5 c 128,-1,39
 298 579 298 579 265 527 c 128,-1,40
 232 475 232 475 214.5 406.5 c 128,-1,41
 197 338 197 338 197 260 c 0,42,43
 197 160 197 160 240.5 100.5 c 128,-1,44
 284 41 284 41 358 41 c 0,45,46
 389 41 389 41 417.5 50.5 c 128,-1,47
 446 60 446 60 473 76 c 1,48,-1
 585 216 l 1,49,-1
 602 216 l 1,50,-1
 561 43 l 1,51,52
 521 19 521 19 467.5 5.5 c 128,-1,53
 414 -8 414 -8 349 -10 c 1,54,-1
 327 -49 l 1,55,56
 376 -63 376 -63 397 -87.5 c 128,-1,57
 418 -112 418 -112 418 -145 c 0,58,59
 418 -188 418 -188 385.5 -217 c 128,-1,60
 353 -246 353 -246 301 -246 c 0,5,6
EndSplineSet
Validated: 1
Substitution2: "'c2sc' Capitals to Small Capitals lookup 59 subtable" ccedillaacute.sc
Substitution2: "'aalt' Access All Alternates lookup 0 subtable" ccedillaacute.sc
Position2: "'cpsp' Capital Spacing lookup 0 subtable" dx=5 dy=0 dh=10 dv=0
EndChar

StartChar: Dcroat
Encoding: 272 272 68
Width: 764
GlyphClass: 1
Flags: W
LayerCount: 2
Fore
SplineSet
-14 0 m 1,0,-1
 -11 16 l 1,1,-1
 74 57 l 1,2,-1
 121 326 l 1,3,-1
 43 326 l 1,4,-1
 52 374 l 1,5,-1
 129 374 l 1,6,-1
 172 618 l 1,7,-1
 101 659 l 1,8,-1
 104 676 l 1,9,-1
 373 676 l 2,10,11
 490 676 490 676 566.5 640 c 128,-1,12
 643 604 643 604 681.5 540 c 128,-1,13
 720 476 720 476 720 391 c 0,14,15
 720 316 720 316 689.5 246 c 128,-1,16
 659 176 659 176 603 121 c 128,-1,17
 547 66 547 66 468 33 c 128,-1,18
 389 0 389 0 291 0 c 2,19,-1
 -14 0 l 1,0,-1
403 326 m 1,20,-1
 261 326 l 1,21,-1
 213 50 l 1,22,-1
 302 50 l 2,23,24
 383 50 383 50 444 93 c 128,-1,25
 505 136 505 136 539 213.5 c 128,-1,26
 573 291 573 291 573 393 c 0,27,28
 573 499 573 499 516.5 561 c 128,-1,29
 460 623 460 623 350 623 c 2,30,-1
 314 623 l 1,31,-1
 270 374 l 1,32,-1
 412 374 l 1,33,-1
 403 326 l 1,20,-1
EndSplineSet
Validated: 1
Substitution2: "'c2sc' Capitals to Small Capitals lookup 59 subtable" dcroat.sc
Substitution2: "'aalt' Access All Alternates lookup 0 subtable" dcroat.sc
Position2: "'cpsp' Capital Spacing lookup 0 subtable" dx=5 dy=0 dh=10 dv=0
EndChar

StartChar: Eogonek
Encoding: 280 280 80
Width: 637
GlyphClass: 1
Flags: W
LayerCount: 2
Fore
SplineSet
-14 0 m 1,0,-1
 -11 16 l 1,1,-1
 76 58 l 1,2,-1
 174 617 l 1,3,-1
 101 659 l 1,4,-1
 104 676 l 1,5,-1
 614 676 l 1,6,-1
 584 499 l 1,7,-1
 567 499 l 1,8,-1
 519 622 l 1,9,-1
 315 622 l 1,10,-1
 272 373 l 1,11,-1
 412 373 l 1,12,-1
 485 462 l 1,13,-1
 502 462 l 1,14,-1
 462 238 l 1,15,-1
 445 238 l 1,16,-1
 403 325 l 1,17,-1
 263 325 l 1,18,-1
 216 54 l 1,19,-1
 447 54 l 1,20,-1
 549 209 l 1,21,-1
 565 209 l 1,22,-1
 528 0 l 1,23,-1
 447 0 l 1,24,25
 424 -34 424 -34 410.5 -69 c 128,-1,26
 397 -104 397 -104 397 -137 c 0,27,28
 397 -192 397 -192 453 -193 c 0,29,30
 463 -193 463 -193 475.5 -188.5 c 128,-1,31
 488 -184 488 -184 499 -176 c 1,32,-1
 502 -176 l 1,33,-1
 498 -196 l 1,34,35
 483 -220 483 -220 459 -233 c 128,-1,36
 435 -246 435 -246 403 -246 c 0,37,38
 361 -246 361 -246 337.5 -224 c 128,-1,39
 314 -202 314 -202 314 -164 c 0,40,41
 314 -121 314 -121 343 -80 c 128,-1,42
 372 -39 372 -39 414 0 c 1,43,-1
 -14 0 l 1,0,-1
EndSplineSet
Validated: 1
Substitution2: "'c2sc' Capitals to Small Capitals lookup 59 subtable" eogonek.sc
Substitution2: "'aalt' Access All Alternates lookup 0 subtable" eogonek.sc
Position2: "'cpsp' Capital Spacing lookup 0 subtable" dx=5 dy=0 dh=10 dv=0
EndChar

StartChar: Ecedillabreve
Encoding: 7708 7708 92
Width: 637
GlyphClass: 1
Flags: W
LayerCount: 2
Fore
SplineSet
400 727 m 0,0,1
 327 727 327 727 298 764.5 c 128,-1,2
 269 802 269 802 264 883 c 1,3,-1
 284 883 l 1,4,5
 297 833 297 833 328 817 c 128,-1,6
 359 801 359 801 409 801 c 256,7,8
 458 801 458 801 496 815.5 c 128,-1,9
 534 830 534 830 563 883 c 1,10,-1
 583 883 l 1,11,12
 555 803 555 803 510.5 765 c 128,-1,13
 466 727 466 727 400 727 c 0,0,1
-14 0 m 1,14,-1
 -11 16 l 1,15,-1
 76 58 l 1,16,-1
 174 617 l 1,17,-1
 101 659 l 1,18,-1
 104 676 l 1,19,-1
 614 676 l 1,20,-1
 584 499 l 1,21,-1
 567 499 l 1,22,-1
 519 622 l 1,23,-1
 315 622 l 1,24,-1
 272 373 l 1,25,-1
 412 373 l 1,26,-1
 485 462 l 1,27,-1
 502 462 l 1,28,-1
 462 238 l 1,29,-1
 445 238 l 1,30,-1
 403 325 l 1,31,-1
 263 325 l 1,32,-1
 216 54 l 1,33,-1
 447 54 l 1,34,-1
 549 209 l 1,35,-1
 565 209 l 1,36,-1
 528 0 l 1,37,-1
 314 0 l 1,38,-1
 286 -49 l 1,39,40
 335 -63 335 -63 356.5 -87.5 c 128,-1,41
 378 -112 378 -112 378 -145 c 0,42,43
 378 -188 378 -188 345.5 -217 c 128,-1,44
 313 -246 313 -246 260 -246 c 0,45,46
 234 -246 234 -246 215 -239 c 128,-1,47
 196 -232 196 -232 184 -222 c 1,48,-1
 187 -204 l 1,49,-1
 190 -204 l 1,50,51
 214 -215 214 -215 246 -215 c 0,52,53
 275 -215 275 -215 290.5 -203 c 128,-1,54
 306 -191 306 -191 306 -170 c 0,55,56
 306 -150 306 -150 286.5 -133.5 c 128,-1,57
 267 -117 267 -117 218 -104 c 1,58,-1
 282 0 l 1,59,-1
 -14 0 l 1,14,-1
EndSplineSet
Validated: 1
Substitution2: "'c2sc' Capitals to Small Capitals lookup 59 subtable" ecedillabreve.sc
Substitution2: "'aalt' Access All Alternates lookup 0 subtable" ecedillabreve.sc
Position2: "'cpsp' Capital Spacing lookup 0 subtable" dx=5 dy=0 dh=10 dv=0
EndChar

StartChar: Hbar
Encoding: 294 294 100
Width: 789
GlyphClass: 1
Flags: W
LayerCount: 2
Fore
SplineSet
-14 0 m 1,0,-1
 -11 16 l 1,1,-1
 73 58 l 1,2,-1
 148 483 l 1,3,-1
 69 483 l 1,4,-1
 79 531 l 1,5,-1
 157 531 l 1,6,-1
 172 617 l 1,7,-1
 97 659 l 1,8,-1
 100 676 l 1,9,-1
 396 676 l 1,10,-1
 393 659 l 1,11,-1
 312 617 l 1,12,-1
 297 531 l 1,13,-1
 560 531 l 1,14,-1
 575 617 l 1,15,-1
 506 659 l 1,16,-1
 509 676 l 1,17,-1
 804 676 l 1,18,-1
 801 659 l 1,19,-1
 716 617 l 1,20,-1
 700 531 l 1,21,-1
 779 531 l 1,22,-1
 769 483 l 1,23,-1
 692 483 l 1,24,-1
 616 58 l 1,25,-1
 692 16 l 1,26,-1
 689 0 l 1,27,-1
 394 0 l 1,28,-1
 397 16 l 1,29,-1
 476 58 l 1,30,-1
 523 322 l 1,31,-1
 260 322 l 1,32,-1
 214 58 l 1,33,-1
 284 16 l 1,34,-1
 281 0 l 1,35,-1
 -14 0 l 1,0,-1
269 376 m 1,36,-1
 532 376 l 1,37,-1
 551 483 l 1,38,-1
 289 483 l 1,39,-1
 269 376 l 1,36,-1
EndSplineSet
Validated: 1
Substitution2: "'c2sc' Capitals to Small Capitals lookup 59 subtable" hbar.sc
Substitution2: "'aalt' Access All Alternates lookup 0 subtable" hbar.sc
Position2: "'cpsp' Capital Spacing lookup 0 subtable" dx=5 dy=0 dh=10 dv=0
EndChar

StartChar: Iogonek
Encoding: 302 302 111
Width: 387
GlyphClass: 1
Flags: W
LayerCount: 2
Fore
SplineSet
-14 0 m 1,0,-1
 -11 16 l 1,1,-1
 73 58 l 1,2,-1
 172 617 l 1,3,-1
 97 659 l 1,4,-1
 100 676 l 1,5,-1
 402 676 l 1,6,-1
 399 659 l 1,7,-1
 312 617 l 1,8,-1
 214 58 l 1,9,-1
 290 16 l 1,10,-1
 287 0 l 1,11,-1
 152 0 l 1,12,13
 128 -34 128 -34 114 -69 c 128,-1,14
 100 -104 100 -104 100 -137 c 0,15,16
 100 -192 100 -192 156 -193 c 0,17,18
 167 -193 167 -193 180 -188.5 c 128,-1,19
 193 -184 193 -184 203 -176 c 1,20,-1
 206 -176 l 1,21,-1
 202 -196 l 1,22,23
 186 -220 186 -220 162.5 -233 c 128,-1,24
 139 -246 139 -246 108 -246 c 0,25,26
 66 -246 66 -246 42 -224 c 128,-1,27
 18 -202 18 -202 18 -164 c 0,28,29
 18 -121 18 -121 47 -80 c 128,-1,30
 76 -39 76 -39 118 0 c 1,31,-1
 -14 0 l 1,0,-1
EndSplineSet
Validated: 1
Substitution2: "'c2sc' Capitals to Small Capitals lookup 59 subtable" iogonek.sc
Substitution2: "'aalt' Access All Alternates lookup 0 subtable" iogonek.sc
Position2: "'cpsp' Capital Spacing lookup 0 subtable" dx=5 dy=0 dh=10 dv=0
EndChar

StartChar: Lslash
Encoding: 321 321 124
Width: 594
GlyphClass: 1
Flags: W
LayerCount: 2
Fore
SplineSet
-14 0 m 1,0,-1
 -11 16 l 1,1,-1
 76 58 l 1,2,-1
 110 247 l 1,3,-1
 20 197 l 1,4,-1
 32 260 l 1,5,-1
 120 311 l 1,6,-1
 174 617 l 1,7,-1
 101 659 l 1,8,-1
 104 676 l 1,9,-1
 416 676 l 1,10,-1
 413 659 l 1,11,-1
 315 617 l 1,12,-1
 274 386 l 1,13,-1
 437 477 l 1,14,-1
 425 413 l 1,15,-1
 263 322 l 1,16,-1
 216 54 l 1,17,-1
 412 54 l 1,18,-1
 526 242 l 1,19,-1
 543 242 l 1,20,-1
 498 0 l 1,21,-1
 -14 0 l 1,0,-1
EndSplineSet
Validated: 1
Substitution2: "'c2sc' Capitals to Small Capitals lookup 59 subtable" lslash.sc
Substitution2: "'aalt' Access All Alternates lookup 0 subtable" lslash.sc
Position2: "'cpsp' Capital Spacing lookup 0 subtable" dx=5 dy=0 dh=10 dv=0
EndChar

StartChar: Oogonek
Encoding: 490 490 145
Width: 792
GlyphClass: 1
Flags: W
LayerCount: 2
Fore
SplineSet
318 -246 m 0,0,1
 277 -246 277 -246 253 -224 c 128,-1,2
 229 -202 229 -202 229 -164 c 0,3,4
 229 -123 229 -123 255 -85 c 128,-1,5
 281 -47 281 -47 318 -9 c 1,6,7
 233 -4 233 -4 173 34 c 128,-1,8
 113 72 113 72 81 136 c 128,-1,9
 49 200 49 200 49 282 c 0,10,11
 49 365 49 365 79.5 437.5 c 128,-1,12
 110 510 110 510 164 566.5 c 128,-1,13
 218 623 218 623 290 654.5 c 128,-1,14
 362 686 362 686 447 686 c 0,15,16
 540 686 540 686 606.5 649 c 128,-1,17
 673 612 673 612 708 546 c 128,-1,18
 743 480 743 480 743 394 c 0,19,20
 743 314 743 314 715 242 c 128,-1,21
 687 170 687 170 635.5 114 c 128,-1,22
 584 58 584 58 513 25 c 128,-1,23
 442 -8 442 -8 356 -10 c 1,24,25
 336 -42 336 -42 324 -74 c 128,-1,26
 312 -106 312 -106 312 -137 c 0,27,28
 312 -192 312 -192 368 -193 c 0,29,30
 378 -193 378 -193 390.5 -188.5 c 128,-1,31
 403 -184 403 -184 414 -176 c 1,32,-1
 418 -176 l 1,33,-1
 413 -196 l 1,34,35
 398 -220 398 -220 374 -233 c 128,-1,36
 350 -246 350 -246 318 -246 c 0,0,1
364 41 m 0,37,38
 415 41 415 41 457.5 70 c 128,-1,39
 500 99 500 99 530.5 150 c 128,-1,40
 561 201 561 201 578 267 c 128,-1,41
 595 333 595 333 595 408 c 0,42,43
 595 509 595 509 554 572 c 128,-1,44
 513 635 513 635 431 635 c 0,45,46
 381 635 381 635 338.5 606.5 c 128,-1,47
 296 578 296 578 264.5 527 c 128,-1,48
 233 476 233 476 216 410 c 128,-1,49
 199 344 199 344 199 269 c 0,50,51
 199 169 199 169 242 105 c 128,-1,52
 285 41 285 41 364 41 c 0,37,38
EndSplineSet
Validated: 1
Substitution2: "'c2sc' Capitals to Small Capitals lookup 59 subtable" oogonek.sc
Substitution2: "'aalt' Access All Alternates lookup 0 subtable" oogonek.sc
Position2: "'cpsp' Capital Spacing lookup 0 subtable" dx=5 dy=0 dh=10 dv=0
EndChar

StartChar: Oslash
Encoding: 216 216 161
Width: 792
GlyphClass: 2
Flags: W
AnchorPoint: "Anchor-3" 464 727 basechar 0
LayerCount: 2
Fore
SplineSet
-6 -10 m 1,0,-1
 105 96 l 1,1,2
 49 171 49 171 49 282 c 0,3,4
 49 365 49 365 79.5 437.5 c 128,-1,5
 110 510 110 510 164 566.5 c 128,-1,6
 218 623 218 623 291 654.5 c 128,-1,7
 364 686 364 686 447 686 c 0,8,9
 512 686 512 686 563.5 668 c 128,-1,10
 615 650 615 650 653 616 c 1,11,-1
 726 686 l 1,12,-1
 799 686 l 1,13,-1
 687 580 l 1,14,15
 743 505 743 505 743 394 c 0,16,17
 743 312 743 312 714 239.5 c 128,-1,18
 685 167 685 167 632 110.5 c 128,-1,19
 579 54 579 54 505.5 22 c 128,-1,20
 432 -10 432 -10 344 -10 c 0,21,22
 279 -10 279 -10 228 8 c 128,-1,23
 177 26 177 26 139 59 c 1,24,-1
 67 -10 l 1,25,-1
 -6 -10 l 1,0,-1
199 269 m 0,26,27
 199 228 199 228 206 191 c 1,28,-1
 571 540 l 1,29,30
 552 584 552 584 517 609.5 c 128,-1,31
 482 635 482 635 431 635 c 0,32,33
 381 635 381 635 338.5 606.5 c 128,-1,34
 296 578 296 578 264.5 527 c 128,-1,35
 233 476 233 476 216 410 c 128,-1,36
 199 344 199 344 199 269 c 0,26,27
364 41 m 0,37,38
 415 41 415 41 457.5 70 c 128,-1,39
 500 99 500 99 530.5 150 c 128,-1,40
 561 201 561 201 578 267 c 128,-1,41
 595 333 595 333 595 408 c 0,42,43
 595 450 595 450 588 485 c 1,44,-1
 223 138 l 1,45,46
 242 93 242 93 278.5 67 c 128,-1,47
 315 41 315 41 364 41 c 0,37,38
EndSplineSet
Validated: 1
Substitution2: "'c2sc' Capitals to Small Capitals lookup 59 subtable" oslash.sc
Substitution2: "'aalt' Access All Alternates lookup 0 subtable" oslash.sc
Position2: "'cpsp' Capital Spacing lookup 0 subtable" dx=5 dy=0 dh=10 dv=0
EndChar

StartChar: Ohorn
Encoding: 416 416 163
Width: 792
GlyphClass: 2
Flags: W
AnchorPoint: "Anchor-3" 464 727 basechar 0
AnchorPoint: "Anchor-2" 365 0 basechar 0
AnchorPoint: "Anchor-0" 339 0 basechar 0
LayerCount: 2
Fore
SplineSet
344 -10 m 0,0,1
 251 -10 251 -10 185 26.5 c 128,-1,2
 119 63 119 63 84 129.5 c 128,-1,3
 49 196 49 196 49 282 c 0,4,5
 49 365 49 365 79.5 437.5 c 128,-1,6
 110 510 110 510 164 566.5 c 128,-1,7
 218 623 218 623 290 654.5 c 128,-1,8
 362 686 362 686 447 686 c 0,9,10
 505 686 505 686 555 671 c 1,11,-1
 612 671 l 2,12,13
 635 671 635 671 651.5 673 c 128,-1,14
 668 675 668 675 682 681 c 1,15,-1
 694 769 l 1,16,-1
 744 769 l 2,17,18
 768 769 768 769 777 758.5 c 128,-1,19
 786 748 786 748 786 728 c 0,20,21
 786 686 786 686 756.5 660 c 128,-1,22
 727 634 727 634 659 634 c 2,23,-1
 632 634 l 1,24,25
 686 595 686 595 714.5 533.5 c 128,-1,26
 743 472 743 472 743 394 c 0,27,28
 743 312 743 312 714 239.5 c 128,-1,29
 685 167 685 167 632 110.5 c 128,-1,30
 579 54 579 54 505.5 22 c 128,-1,31
 432 -10 432 -10 344 -10 c 0,0,1
364 41 m 0,32,33
 415 41 415 41 457.5 70 c 128,-1,34
 500 99 500 99 530.5 150 c 128,-1,35
 561 201 561 201 578 267 c 128,-1,36
 595 333 595 333 595 408 c 0,37,38
 595 509 595 509 554 572 c 128,-1,39
 513 635 513 635 431 635 c 0,40,41
 381 635 381 635 338.5 606.5 c 128,-1,42
 296 578 296 578 264.5 527 c 128,-1,43
 233 476 233 476 216 410 c 128,-1,44
 199 344 199 344 199 269 c 0,45,46
 199 169 199 169 242 105 c 128,-1,47
 285 41 285 41 364 41 c 0,32,33
EndSplineSet
Validated: 1
Substitution2: "'c2sc' Capitals to Small Capitals lookup 59 subtable" ohorn.sc
Substitution2: "'aalt' Access All Alternates lookup 0 subtable" ohorn.sc
Position2: "'cpsp' Capital Spacing lookup 0 subtable" dx=5 dy=0 dh=10 dv=0
EndChar

StartChar: OE
Encoding: 338 338 169
Width: 1009
GlyphClass: 1
Flags: W
LayerCount: 2
Fore
SplineSet
393 0 m 2,0,1
 278 0 278 0 201.5 36.5 c 128,-1,2
 125 73 125 73 87 138.5 c 128,-1,3
 49 204 49 204 49 292 c 0,4,5
 49 403 49 403 101.5 489 c 128,-1,6
 154 575 154 575 249 625.5 c 128,-1,7
 344 676 344 676 473 676 c 2,8,-1
 986 676 l 1,9,-1
 954 499 l 1,10,-1
 939 499 l 1,11,-1
 891 622 l 1,12,-1
 687 622 l 1,13,-1
 644 376 l 1,14,-1
 783 376 l 1,15,-1
 857 465 l 1,16,-1
 873 465 l 1,17,-1
 833 234 l 1,18,-1
 816 234 l 1,19,-1
 774 322 l 1,20,-1
 635 322 l 1,21,-1
 588 54 l 1,22,-1
 819 54 l 1,23,-1
 921 209 l 1,24,-1
 937 209 l 1,25,-1
 900 0 l 1,26,-1
 393 0 l 2,0,1
411 53 m 2,27,-1
 446 53 l 1,28,-1
 547 626 l 1,29,-1
 475 626 l 2,30,31
 386 626 386 626 323.5 584 c 128,-1,32
 261 542 261 542 228.5 465 c 128,-1,33
 196 388 196 388 196 286 c 0,34,35
 196 170 196 170 252 111.5 c 128,-1,36
 308 53 308 53 411 53 c 2,27,-1
EndSplineSet
Validated: 1
Substitution2: "'c2sc' Capitals to Small Capitals lookup 59 subtable" oe.sc
Substitution2: "'aalt' Access All Alternates lookup 0 subtable" oe.sc
Position2: "'cpsp' Capital Spacing lookup 0 subtable" dx=5 dy=0 dh=10 dv=0
EndChar

StartChar: Scedilla
Encoding: 350 350 181
Width: 552
GlyphClass: 1
Flags: W
LayerCount: 2
Fore
SplineSet
182 -246 m 0,0,1
 156 -246 156 -246 137 -239 c 128,-1,2
 118 -232 118 -232 105 -222 c 1,3,-1
 109 -204 l 1,4,-1
 113 -204 l 1,5,6
 136 -215 136 -215 168 -215 c 0,7,8
 196 -215 196 -215 212 -203 c 128,-1,9
 228 -191 228 -191 228 -170 c 0,10,11
 228 -150 228 -150 208.5 -133.5 c 128,-1,12
 189 -117 189 -117 139 -104 c 1,13,-1
 197 -10 l 1,14,15
 141 -8 141 -8 98.5 5 c 128,-1,16
 56 18 56 18 18 42 c 1,17,-1
 38 215 l 1,18,-1
 55 215 l 1,19,-1
 109 81 l 1,20,21
 126 66 126 66 151.5 53 c 128,-1,22
 177 40 177 40 212 40 c 0,23,24
 274 40 274 40 311.5 75 c 128,-1,25
 349 110 349 110 349 163 c 0,26,27
 349 195 349 195 335.5 216 c 128,-1,28
 322 237 322 237 291.5 258 c 128,-1,29
 261 279 261 279 213 307 c 0,30,31
 158 342 158 342 131 376.5 c 128,-1,32
 104 411 104 411 104 471 c 0,33,34
 104 533 104 533 140 582 c 128,-1,35
 176 631 176 631 233.5 658.5 c 128,-1,36
 291 686 291 686 355 686 c 0,37,38
 403 686 403 686 444 674 c 128,-1,39
 485 662 485 662 519 639 c 1,40,-1
 502 475 l 1,41,-1
 484 475 l 1,42,-1
 432 599 l 1,43,44
 417 613 417 613 396.5 624 c 128,-1,45
 376 635 376 635 345 635 c 0,46,47
 298 635 298 635 265 602.5 c 128,-1,48
 232 570 232 570 232 522 c 0,49,50
 232 485 232 485 256 458 c 128,-1,51
 280 431 280 431 336 397 c 0,52,53
 384 368 384 368 415.5 343 c 128,-1,54
 447 318 447 318 462.5 287.5 c 128,-1,55
 478 257 478 257 478 214 c 0,56,57
 478 151 478 151 444.5 102 c 128,-1,58
 411 53 411 53 354.5 23.5 c 128,-1,59
 298 -6 298 -6 230 -9 c 1,60,-1
 208 -49 l 1,61,62
 257 -63 257 -63 278 -87.5 c 128,-1,63
 299 -112 299 -112 299 -145 c 0,64,65
 299 -188 299 -188 267 -217 c 128,-1,66
 235 -246 235 -246 182 -246 c 0,0,1
EndSplineSet
Validated: 1
Substitution2: "'c2sc' Capitals to Small Capitals lookup 59 subtable" scedilla.sc
Substitution2: "'locl' Localized Forms in Latin lookup 14 subtable" Scommaaccent
Substitution2: "'locl' Localized Forms in Latin lookup 11 subtable" Scommaaccent
AlternateSubs2: "'aalt' Access All Alternates lookup 1 subtable" Scommaaccent scedilla.sc
Position2: "'cpsp' Capital Spacing lookup 0 subtable" dx=5 dy=0 dh=10 dv=0
EndChar

StartChar: Tbar
Encoding: 358 358 190
Width: 655
GlyphClass: 1
Flags: W
LayerCount: 2
Fore
SplineSet
153 326 m 1,0,-1
 162 374 l 1,1,-1
 268 374 l 1,2,-1
 312 622 l 1,3,-1
 178 622 l 1,4,-1
 75 451 l 1,5,-1
 58 451 l 1,6,-1
 96 676 l 1,7,-1
 688 676 l 1,8,-1
 649 451 l 1,9,-1
 633 451 l 1,10,-1
 588 622 l 1,11,-1
 454 622 l 1,12,-1
 410 374 l 1,13,-1
 516 374 l 1,14,-1
 507 326 l 1,15,-1
 400 326 l 1,16,-1
 353 58 l 1,17,-1
 446 16 l 1,18,-1
 443 0 l 1,19,-1
 102 0 l 1,20,-1
 106 16 l 1,21,-1
 212 58 l 1,22,-1
 260 326 l 1,23,-1
 153 326 l 1,0,-1
EndSplineSet
Validated: 1
Substitution2: "'c2sc' Capitals to Small Capitals lookup 59 subtable" tbar.sc
Substitution2: "'aalt' Access All Alternates lookup 0 subtable" tbar.sc
Position2: "'cpsp' Capital Spacing lookup 0 subtable" dx=5 dy=0 dh=10 dv=0
EndChar

StartChar: Tcedilla
Encoding: 354 354 191
Width: 655
GlyphClass: 1
Flags: W
LayerCount: 2
Fore
SplineSet
102 0 m 1,0,-1
 106 16 l 1,1,-1
 212 58 l 1,2,-1
 312 622 l 1,3,-1
 178 622 l 1,4,-1
 75 451 l 1,5,-1
 58 451 l 1,6,-1
 96 676 l 1,7,-1
 688 676 l 1,8,-1
 649 451 l 1,9,-1
 633 451 l 1,10,-1
 588 622 l 1,11,-1
 454 622 l 1,12,-1
 353 58 l 1,13,-1
 446 16 l 1,14,-1
 443 0 l 1,15,-1
 287 0 l 1,16,-1
 258 -49 l 1,17,18
 307 -63 307 -63 328 -87.5 c 128,-1,19
 349 -112 349 -112 349 -145 c 0,20,21
 349 -188 349 -188 317 -217 c 128,-1,22
 285 -246 285 -246 232 -246 c 0,23,24
 206 -246 206 -246 187 -239 c 128,-1,25
 168 -232 168 -232 156 -222 c 1,26,-1
 159 -204 l 1,27,-1
 163 -204 l 1,28,29
 186 -215 186 -215 218 -215 c 0,30,31
 246 -215 246 -215 262.5 -203 c 128,-1,32
 279 -191 279 -191 279 -170 c 0,33,34
 279 -150 279 -150 259.5 -133.5 c 128,-1,35
 240 -117 240 -117 189 -104 c 1,36,-1
 253 0 l 1,37,-1
 102 0 l 1,0,-1
EndSplineSet
Validated: 1
Substitution2: "'c2sc' Capitals to Small Capitals lookup 59 subtable" tcedilla.sc
Substitution2: "'aalt' Access All Alternates lookup 0 subtable" tcedilla.sc
Position2: "'cpsp' Capital Spacing lookup 0 subtable" dx=5 dy=0 dh=10 dv=0
EndChar

StartChar: Uogonek
Encoding: 370 370 203
Width: 779
GlyphClass: 1
Flags: W
LayerCount: 2
Fore
SplineSet
418 -196 m 1,0,1
 403 -220 403 -220 379 -233 c 128,-1,2
 355 -246 355 -246 324 -246 c 0,3,4
 283 -246 283 -246 258.5 -224 c 128,-1,5
 234 -202 234 -202 234 -164 c 0,6,7
 234 -123 234 -123 260 -84.5 c 128,-1,8
 286 -46 286 -46 325 -9 c 1,9,10
 226 -3 226 -3 167 46.5 c 128,-1,11
 108 96 108 96 108 206 c 0,12,13
 108 225 108 225 110 246 c 128,-1,14
 112 267 112 267 116 291 c 2,15,-1
 173 617 l 1,16,-1
 98 659 l 1,17,-1
 101 676 l 1,18,-1
 404 676 l 1,19,-1
 401 659 l 1,20,-1
 313 617 l 1,21,-1
 256 290 l 2,22,23
 253 270 253 270 251 251.5 c 128,-1,24
 249 233 249 233 249 217 c 0,25,26
 249 134 249 134 290.5 100 c 128,-1,27
 332 66 332 66 399 66 c 0,28,29
 440 66 440 66 479 84.5 c 128,-1,30
 518 103 518 103 547.5 145 c 128,-1,31
 577 187 577 187 588 254 c 2,32,-1
 651 620 l 1,33,-1
 569 659 l 1,34,-1
 572 676 l 1,35,-1
 807 676 l 1,36,-1
 804 659 l 1,37,-1
 717 618 l 1,38,-1
 659 291 l 2,39,40
 640 181 640 181 599 115.5 c 128,-1,41
 558 50 558 50 497.5 20.5 c 128,-1,42
 437 -9 437 -9 361 -10 c 1,43,44
 341 -42 341 -42 329 -74 c 128,-1,45
 317 -106 317 -106 317 -137 c 0,46,47
 317 -192 317 -192 373 -193 c 0,48,49
 383 -193 383 -193 396 -188.5 c 128,-1,50
 409 -184 409 -184 419 -176 c 1,51,-1
 423 -176 l 1,52,-1
 418 -196 l 1,0,1
EndSplineSet
Validated: 1
Substitution2: "'c2sc' Capitals to Small Capitals lookup 59 subtable" uogonek.sc
Substitution2: "'aalt' Access All Alternates lookup 0 subtable" uogonek.sc
Position2: "'cpsp' Capital Spacing lookup 0 subtable" dx=5 dy=0 dh=10 dv=0
EndChar

StartChar: Uhorn
Encoding: 431 431 210
Width: 779
GlyphClass: 2
Flags: W
AnchorPoint: "Anchor-3" 498 727 basechar 0
AnchorPoint: "Anchor-2" 370 0 basechar 0
AnchorPoint: "Anchor-0" 347 0 basechar 0
LayerCount: 2
Fore
SplineSet
354 -10 m 0,0,1
 280 -10 280 -10 224.5 11.5 c 128,-1,2
 169 33 169 33 138.5 80.5 c 128,-1,3
 108 128 108 128 108 206 c 0,4,5
 108 225 108 225 110 246 c 128,-1,6
 112 267 112 267 116 291 c 2,7,-1
 173 617 l 1,8,-1
 98 659 l 1,9,-1
 101 676 l 1,10,-1
 404 676 l 1,11,-1
 401 659 l 1,12,-1
 313 617 l 1,13,-1
 256 290 l 2,14,15
 253 270 253 270 251 251.5 c 128,-1,16
 249 233 249 233 249 217 c 0,17,18
 249 134 249 134 290.5 100 c 128,-1,19
 332 66 332 66 399 66 c 0,20,21
 440 66 440 66 479 84.5 c 128,-1,22
 518 103 518 103 547.5 145 c 128,-1,23
 577 187 577 187 588 254 c 2,24,-1
 651 620 l 1,25,-1
 569 659 l 1,26,-1
 572 676 l 1,27,-1
 766 676 l 2,28,29
 790 676 790 676 806 678 c 128,-1,30
 822 680 822 680 836 686 c 1,31,-1
 847 769 l 1,32,-1
 897 769 l 2,33,34
 921 769 921 769 930.5 759 c 128,-1,35
 940 749 940 749 940 728 c 0,36,37
 940 705 940 705 930.5 690 c 128,-1,38
 921 675 921 675 893 662.5 c 128,-1,39
 865 650 865 650 813 638 c 2,40,-1
 716 615 l 1,41,-1
 659 291 l 2,42,43
 640 179 640 179 598 113 c 128,-1,44
 556 47 556 47 494 18.5 c 128,-1,45
 432 -10 432 -10 354 -10 c 0,0,1
EndSplineSet
Validated: 1
Substitution2: "'c2sc' Capitals to Small Capitals lookup 59 subtable" uhorn.sc
Substitution2: "'aalt' Access All Alternates lookup 0 subtable" uhorn.sc
Position2: "'cpsp' Capital Spacing lookup 0 subtable" dx=5 dy=0 dh=10 dv=0
EndChar

StartChar: Schwa
Encoding: 399 399 233
Width: 665
GlyphClass: 1
Flags: W
LayerCount: 2
Fore
SplineSet
265 -9 m 0,0,1
 156 -9 156 -9 98 51 c 128,-1,2
 40 111 40 111 40 220 c 0,3,4
 40 238 40 238 41 258.5 c 128,-1,5
 42 279 42 279 46 299 c 1,6,-1
 53 306 l 1,7,-1
 478 306 l 1,8,9
 482 345 482 345 482 387 c 0,10,11
 482 481 482 481 437.5 535 c 128,-1,12
 393 589 393 589 296 589 c 0,13,14
 234 589 234 589 185 566.5 c 128,-1,15
 136 544 136 544 86 501 c 1,16,-1
 82 501 l 1,17,-1
 89 537 l 1,18,19
 132 603 132 603 204 644.5 c 128,-1,20
 276 686 276 686 364 686 c 0,21,22
 489 686 489 686 557.5 617 c 128,-1,23
 626 548 626 548 626 429 c 0,24,25
 626 337 626 337 599 257 c 128,-1,26
 572 177 572 177 523.5 117 c 128,-1,27
 475 57 475 57 409 24 c 128,-1,28
 343 -9 343 -9 265 -9 c 0,0,1
175 209 m 0,29,30
 175 126 175 126 200 86 c 128,-1,31
 225 46 225 46 287 46 c 0,32,33
 356 46 356 46 403 103.5 c 128,-1,34
 450 161 450 161 469 252 c 1,35,-1
 177 252 l 1,36,37
 176 241 176 241 175.5 229.5 c 128,-1,38
 175 218 175 218 175 209 c 0,29,30
EndSplineSet
Validated: 1
Substitution2: "'c2sc' Capitals to Small Capitals lookup 59 subtable" schwa.sc
Substitution2: "'aalt' Access All Alternates lookup 0 subtable" schwa.sc
Position2: "'cpsp' Capital Spacing lookup 0 subtable" dx=5 dy=0 dh=10 dv=0
EndChar

StartChar: Eng
Encoding: 330 330 234
Width: 772
GlyphClass: 1
Flags: W
LayerCount: 2
Fore
SplineSet
-11 0 m 1,0,-1
 -8 16 l 1,1,-1
 80 58 l 1,2,-1
 178 616 l 1,3,-1
 104 659 l 1,4,-1
 108 676 l 1,5,-1
 286 676 l 1,6,-1
 565 210 l 1,7,-1
 637 618 l 1,8,-1
 536 659 l 1,9,-1
 539 676 l 1,10,-1
 796 676 l 1,11,-1
 793 659 l 1,12,-1
 706 617 l 1,13,-1
 595 -18 l 2,14,15
 576 -130 576 -130 523.5 -188 c 128,-1,16
 471 -246 471 -246 394 -246 c 0,17,18
 357 -246 357 -246 342.5 -236 c 128,-1,19
 328 -226 328 -226 328 -209 c 0,20,21
 328 -202 328 -202 331 -183 c 2,22,-1
 338 -138 l 1,23,-1
 480 -138 l 1,24,25
 496 -118 496 -118 506.5 -89.5 c 128,-1,26
 517 -61 517 -61 524 -23 c 2,27,-1
 528 3 l 1,28,-1
 226 498 l 1,29,-1
 150 58 l 1,30,-1
 251 16 l 1,31,-1
 248 0 l 1,32,-1
 -11 0 l 1,0,-1
EndSplineSet
Validated: 1
Substitution2: "'c2sc' Capitals to Small Capitals lookup 59 subtable" eng.sc
Substitution2: "'aalt' Access All Alternates lookup 0 subtable" eng.sc
Position2: "'cpsp' Capital Spacing lookup 0 subtable" dx=5 dy=0 dh=10 dv=0
EndChar

StartChar: Thorn
Encoding: 222 222 236
Width: 638
GlyphClass: 1
Flags: W
LayerCount: 2
Fore
SplineSet
404 676 m 1,0,-1
 401 659 l 1,1,-1
 314 617 l 1,2,-1
 301 540 l 1,3,-1
 354 540 l 2,4,5
 614 540 614 540 614 377 c 0,6,7
 614 321 614 321 578 272.5 c 128,-1,8
 542 224 542 224 469 195 c 128,-1,9
 396 166 396 166 288 166 c 2,10,-1
 236 166 l 1,11,-1
 216 58 l 1,12,-1
 293 16 l 1,13,-1
 290 0 l 1,14,-1
 -14 0 l 1,15,-1
 -11 16 l 1,16,-1
 76 58 l 1,17,-1
 174 617 l 1,18,-1
 100 659 l 1,19,-1
 103 676 l 1,20,-1
 404 676 l 1,0,-1
328 485 m 2,21,-1
 291 485 l 1,22,-1
 244 214 l 1,23,-1
 305 214 l 2,24,25
 387 214 387 214 426 259 c 128,-1,26
 465 304 465 304 465 371 c 0,27,28
 465 428 465 428 429.5 456.5 c 128,-1,29
 394 485 394 485 328 485 c 2,21,-1
EndSplineSet
Validated: 1
Substitution2: "'c2sc' Capitals to Small Capitals lookup 59 subtable" thorn.sc
Substitution2: "'aalt' Access All Alternates lookup 0 subtable" thorn.sc
Position2: "'cpsp' Capital Spacing lookup 0 subtable" dx=5 dy=0 dh=10 dv=0
EndChar

StartChar: uni0402
Encoding: 1026 1026 240
Width: 811
GlyphClass: 1
Flags: W
LayerCount: 2
Fore
SplineSet
92 0 m 1,0,-1
 96 16 l 1,1,-1
 202 58 l 1,2,-1
 302 622 l 1,3,-1
 178 622 l 1,4,-1
 75 451 l 1,5,-1
 58 451 l 1,6,-1
 96 676 l 1,7,-1
 688 676 l 1,8,-1
 649 470 l 1,9,-1
 633 470 l 1,10,-1
 588 622 l 1,11,-1
 443 622 l 1,12,-1
 394 345 l 1,13,14
 424 367 424 367 470.5 381 c 128,-1,15
 517 395 517 395 573 395 c 0,16,17
 655 395 655 395 697.5 353.5 c 128,-1,18
 740 312 740 312 740 240 c 0,19,20
 740 197 740 197 725 143.5 c 128,-1,21
 710 90 710 90 682 36.5 c 128,-1,22
 654 -17 654 -17 617 -59 c 0,23,24
 562 -122 562 -122 520 -149.5 c 128,-1,25
 478 -177 478 -177 451 -177 c 0,26,27
 431 -177 431 -177 420.5 -168.5 c 128,-1,28
 410 -160 410 -160 410 -146 c 0,29,30
 410 -136 410 -136 416 -121 c 2,31,-1
 433 -72 l 1,32,-1
 507 -92 l 1,33,34
 530 -73 530 -73 544 -40.5 c 128,-1,35
 558 -8 558 -8 569 55 c 2,36,-1
 589 171 l 2,37,38
 594 203 594 203 594 224 c 0,39,40
 594 271 594 271 570.5 294 c 128,-1,41
 547 317 547 317 493 317 c 0,42,43
 430 317 430 317 384 291 c 1,44,-1
 343 58 l 1,45,-1
 436 16 l 1,46,-1
 433 0 l 1,47,-1
 92 0 l 1,0,-1
EndSplineSet
Validated: 1
Substitution2: "'c2sc' Capitals to Small Capitals lookup 59 subtable" uni0452.sc
Substitution2: "'aalt' Access All Alternates lookup 0 subtable" uni0452.sc
EndChar

StartChar: uni0404
Encoding: 1028 1028 241
Width: 680
GlyphClass: 1
Flags: W
LayerCount: 2
Fore
SplineSet
333 -10 m 0,0,1
 245 -10 245 -10 181.5 25 c 128,-1,2
 118 60 118 60 83.5 122.5 c 128,-1,3
 49 185 49 185 49 266 c 0,4,5
 49 350 49 350 81 426 c 128,-1,6
 113 502 113 502 169.5 560 c 128,-1,7
 226 618 226 618 300.5 652 c 128,-1,8
 375 686 375 686 460 686 c 0,9,10
 521 686 521 686 559 673 c 128,-1,11
 597 660 597 660 637 637 c 1,12,-1
 616 445 l 1,13,-1
 599 445 l 1,14,-1
 532 607 l 1,15,16
 515 622 515 622 495.5 630 c 128,-1,17
 476 638 476 638 445 638 c 0,18,19
 386 638 386 638 337.5 603.5 c 128,-1,20
 289 569 289 569 255.5 510.5 c 128,-1,21
 222 452 222 452 207 375 c 1,22,-1
 399 375 l 1,23,-1
 472 463 l 1,24,-1
 488 463 l 1,25,-1
 449 234 l 1,26,-1
 432 234 l 1,27,-1
 390 321 l 1,28,-1
 200 321 l 1,29,30
 197 291 197 291 197 260 c 0,31,32
 197 160 197 160 240.5 100.5 c 128,-1,33
 284 41 284 41 358 41 c 0,34,35
 389 41 389 41 417.5 50.5 c 128,-1,36
 446 60 446 60 473 76 c 1,37,-1
 585 216 l 1,38,-1
 602 216 l 1,39,-1
 561 43 l 1,40,41
 518 18 518 18 461 4 c 128,-1,42
 404 -10 404 -10 333 -10 c 0,0,1
EndSplineSet
Validated: 1
Substitution2: "'c2sc' Capitals to Small Capitals lookup 59 subtable" uni0454.sc
Substitution2: "'aalt' Access All Alternates lookup 0 subtable" uni0454.sc
EndChar

StartChar: uni0409
Encoding: 1033 1033 246
Width: 985
GlyphClass: 1
Flags: W
LayerCount: 2
Fore
SplineSet
289 522 m 2,0,1
 264 375 264 375 236 277 c 128,-1,2
 208 179 208 179 172 106 c 0,3,4
 138 39 138 39 107 14.5 c 128,-1,5
 76 -10 76 -10 37 -10 c 0,6,7
 -20 -10 -20 -10 -20 29 c 0,8,9
 -20 39 -20 39 -17 55 c 2,10,-1
 -8 106 l 1,11,-1
 75 106 l 1,12,13
 107 141 107 141 133.5 194.5 c 128,-1,14
 160 248 160 248 182.5 328.5 c 128,-1,15
 205 409 205 409 225 523 c 2,16,-1
 242 617 l 1,17,-1
 162 659 l 1,18,-1
 165 676 l 1,19,-1
 739 676 l 1,20,-1
 736 659 l 1,21,-1
 639 617 l 1,22,-1
 602 402 l 1,23,-1
 673 402 l 2,24,25
 803 402 803 402 874.5 355 c 128,-1,26
 946 308 946 308 946 217 c 0,27,28
 946 155 946 155 906 105.5 c 128,-1,29
 866 56 866 56 794.5 28 c 128,-1,30
 723 0 723 0 626 0 c 2,31,-1
 312 0 l 1,32,-1
 315 16 l 1,33,-1
 400 59 l 1,34,-1
 500 622 l 1,35,-1
 306 622 l 1,36,-1
 289 522 l 2,0,1
541 54 m 1,37,-1
 610 54 l 2,38,39
 701 54 701 54 749.5 100.5 c 128,-1,40
 798 147 798 147 798 217 c 0,41,42
 798 286 798 286 758 317 c 128,-1,43
 718 348 718 348 641 348 c 2,44,-1
 592 348 l 1,45,-1
 541 54 l 1,37,-1
EndSplineSet
Validated: 1
Substitution2: "'c2sc' Capitals to Small Capitals lookup 59 subtable" uni0459.sc
Substitution2: "'aalt' Access All Alternates lookup 0 subtable" uni0459.sc
EndChar

StartChar: uni040A
Encoding: 1034 1034 247
Width: 1057
GlyphClass: 1
Flags: W
LayerCount: 2
Fore
SplineSet
-14 0 m 1,0,-1
 -11 16 l 1,1,-1
 73 58 l 1,2,-1
 172 617 l 1,3,-1
 97 659 l 1,4,-1
 100 676 l 1,5,-1
 396 676 l 1,6,-1
 393 659 l 1,7,-1
 312 617 l 1,8,-1
 271 385 l 1,9,-1
 530 385 l 1,10,-1
 571 617 l 1,11,-1
 498 659 l 1,12,-1
 501 676 l 1,13,-1
 812 676 l 1,14,-1
 809 659 l 1,15,-1
 713 617 l 1,16,-1
 671 385 l 1,17,-1
 746 385 l 2,18,19
 875 385 875 385 947 340.5 c 128,-1,20
 1019 296 1019 296 1019 209 c 0,21,22
 1019 150 1019 150 979 102 c 128,-1,23
 939 54 939 54 867.5 27 c 128,-1,24
 796 0 796 0 698 0 c 2,25,-1
 385 0 l 1,26,-1
 388 16 l 1,27,-1
 473 59 l 1,28,-1
 521 331 l 1,29,-1
 262 331 l 1,30,-1
 214 58 l 1,31,-1
 284 16 l 1,32,-1
 281 0 l 1,33,-1
 -14 0 l 1,0,-1
613 54 m 1,34,-1
 683 54 l 2,35,36
 774 54 774 54 822 98.5 c 128,-1,37
 870 143 870 143 870 210 c 0,38,39
 870 273 870 273 830.5 302 c 128,-1,40
 791 331 791 331 714 331 c 2,41,-1
 663 331 l 1,42,-1
 613 54 l 1,34,-1
EndSplineSet
Validated: 1
Substitution2: "'c2sc' Capitals to Small Capitals lookup 59 subtable" uni045A.sc
Substitution2: "'aalt' Access All Alternates lookup 0 subtable" uni045A.sc
EndChar

StartChar: uni040B
Encoding: 1035 1035 248
Width: 874
GlyphClass: 1
Flags: W
LayerCount: 2
Fore
SplineSet
92 0 m 1,0,-1
 96 16 l 1,1,-1
 202 58 l 1,2,-1
 302 622 l 1,3,-1
 178 622 l 1,4,-1
 75 451 l 1,5,-1
 58 451 l 1,6,-1
 96 676 l 1,7,-1
 688 676 l 1,8,-1
 649 470 l 1,9,-1
 633 470 l 1,10,-1
 588 622 l 1,11,-1
 443 622 l 1,12,-1
 394 345 l 1,13,14
 424 367 424 367 470.5 381 c 128,-1,15
 517 395 517 395 573 395 c 0,16,17
 662 394 662 394 702 342 c 0,18,19
 730 305 730 305 731 244 c 0,20,21
 731 219 731 219 726 190 c 2,22,-1
 702 58 l 1,23,-1
 781 16 l 1,24,-1
 778 0 l 1,25,-1
 549 0 l 1,26,-1
 582 185 l 2,27,28
 586 208 586 208 586 227 c 0,29,30
 586 260 586 260 574 282 c 0,31,32
 554 316 554 316 492 317 c 256,33,34
 430 317 430 317 384 291 c 1,35,-1
 343 58 l 1,36,-1
 436 16 l 1,37,-1
 433 0 l 1,38,-1
 92 0 l 1,0,-1
EndSplineSet
Validated: 1
Substitution2: "'c2sc' Capitals to Small Capitals lookup 59 subtable" uni045B.sc
Substitution2: "'aalt' Access All Alternates lookup 0 subtable" uni045B.sc
EndChar

StartChar: uni040F
Encoding: 1039 1039 249
Width: 779
GlyphClass: 1
Flags: W
LayerCount: 2
Fore
SplineSet
262 0 m 1,0,-1
 -14 0 l 1,1,-1
 -11 16 l 1,2,-1
 74 58 l 1,3,-1
 173 617 l 1,4,-1
 97 659 l 1,5,-1
 100 676 l 1,6,-1
 395 676 l 1,7,-1
 392 659 l 1,8,-1
 313 617 l 1,9,-1
 214 54 l 1,10,-1
 466 54 l 1,11,-1
 565 617 l 1,12,-1
 496 659 l 1,13,-1
 499 676 l 1,14,-1
 794 676 l 1,15,-1
 791 659 l 1,16,-1
 707 617 l 1,17,-1
 607 58 l 1,18,-1
 682 16 l 1,19,-1
 679 0 l 1,20,-1
 389 0 l 1,21,-1
 303 -176 l 1,22,-1
 287 -176 l 1,23,-1
 262 0 l 1,0,-1
EndSplineSet
Validated: 1
Substitution2: "'c2sc' Capitals to Small Capitals lookup 59 subtable" uni045F.sc
Substitution2: "'aalt' Access All Alternates lookup 0 subtable" uni045F.sc
EndChar

StartChar: uni0411
Encoding: 1041 1041 251
Width: 672
GlyphClass: 1
Flags: W
LayerCount: 2
Fore
SplineSet
100 676 m 1,0,-1
 616 676 l 1,1,-1
 586 499 l 1,2,-1
 569 499 l 1,3,-1
 521 622 l 1,4,-1
 313 622 l 1,5,-1
 272 392 l 1,6,-1
 346 392 l 2,7,8
 475 392 475 392 546 346 c 128,-1,9
 617 300 617 300 617 211 c 0,10,11
 617 151 617 151 578 103 c 128,-1,12
 539 55 539 55 467 27.5 c 128,-1,13
 395 0 395 0 299 0 c 2,14,-1
 -14 0 l 1,15,-1
 -11 16 l 1,16,-1
 73 59 l 1,17,-1
 172 617 l 1,18,-1
 97 659 l 1,19,-1
 100 676 l 1,0,-1
213 54 m 1,20,-1
 283 54 l 2,21,22
 374 54 374 54 421.5 98.5 c 128,-1,23
 469 143 469 143 469 211 c 0,24,25
 469 278 469 278 429.5 308 c 128,-1,26
 390 338 390 338 314 338 c 2,27,-1
 263 338 l 1,28,-1
 213 54 l 1,20,-1
EndSplineSet
Validated: 1
Substitution2: "'c2sc' Capitals to Small Capitals lookup 59 subtable" uni0431.sc
Substitution2: "'aalt' Access All Alternates lookup 0 subtable" uni0431.sc
EndChar

StartChar: uni0413
Encoding: 1043 1043 253
Width: 599
GlyphClass: 2
Flags: W
AnchorPoint: "Anchor-3" 393 727 basechar 0
LayerCount: 2
Fore
SplineSet
-14 0 m 1,0,-1
 -11 16 l 1,1,-1
 76 58 l 1,2,-1
 174 617 l 1,3,-1
 101 659 l 1,4,-1
 104 676 l 1,5,-1
 600 676 l 1,6,-1
 569 499 l 1,7,-1
 553 499 l 1,8,-1
 505 622 l 1,9,-1
 315 622 l 1,10,-1
 216 58 l 1,11,-1
 315 16 l 1,12,-1
 312 0 l 1,13,-1
 -14 0 l 1,0,-1
EndSplineSet
Validated: 1
Substitution2: "'c2sc' Capitals to Small Capitals lookup 59 subtable" uni0433.sc
Substitution2: "'aalt' Access All Alternates lookup 0 subtable" uni0433.sc
EndChar

StartChar: uni0492
Encoding: 1170 1170 255
Width: 595
GlyphClass: 1
Flags: W
LayerCount: 2
Fore
SplineSet
-17 0 m 1,0,-1
 -14 16 l 1,1,-1
 73 58 l 1,2,-1
 120 326 l 1,3,-1
 43 326 l 1,4,-1
 52 374 l 1,5,-1
 128 374 l 1,6,-1
 171 617 l 1,7,-1
 98 659 l 1,8,-1
 101 676 l 1,9,-1
 597 676 l 1,10,-1
 566 499 l 1,11,-1
 550 499 l 1,12,-1
 502 622 l 1,13,-1
 312 622 l 1,14,-1
 269 374 l 1,15,-1
 432 374 l 1,16,-1
 424 326 l 1,17,-1
 260 326 l 1,18,-1
 213 58 l 1,19,-1
 312 16 l 1,20,-1
 309 0 l 1,21,-1
 -17 0 l 1,0,-1
EndSplineSet
Validated: 1
Substitution2: "'c2sc' Capitals to Small Capitals lookup 59 subtable" uni0493.sc
Substitution2: "'aalt' Access All Alternates lookup 0 subtable" uni0493.sc
EndChar

StartChar: uni0414
Encoding: 1044 1044 256
Width: 738
GlyphClass: 1
Flags: W
LayerCount: 2
Fore
SplineSet
92 0 m 1,0,-1
 -38 -176 l 1,1,-1
 -54 -176 l 1,2,-1
 -13 54 l 1,3,-1
 54 54 l 1,4,5
 90 108 90 108 118 175.5 c 128,-1,6
 146 243 146 243 169.5 328 c 128,-1,7
 193 413 193 413 213 523 c 2,8,-1
 229 617 l 1,9,-1
 150 659 l 1,10,-1
 153 676 l 1,11,-1
 744 676 l 1,12,-1
 741 659 l 1,13,-1
 655 617 l 1,14,-1
 555 54 l 1,15,-1
 651 54 l 1,16,-1
 610 -176 l 1,17,-1
 594 -176 l 1,18,-1
 527 0 l 1,19,-1
 92 0 l 1,0,-1
278 522 m 2,20,21
 250 364 250 364 214 250 c 128,-1,22
 178 136 178 136 130 54 c 1,23,-1
 415 54 l 1,24,-1
 515 622 l 1,25,-1
 295 622 l 1,26,-1
 278 522 l 2,20,21
EndSplineSet
Validated: 1
Substitution2: "'c2sc' Capitals to Small Capitals lookup 59 subtable" uni0434.sc
Substitution2: "'ss06' Style Set 6 lookup 19 subtable" uni0414.bgr
Substitution2: "'locl' Localized Forms in Cyrillic lookup 17 subtable" uni0414.bgr
AlternateSubs2: "'aalt' Access All Alternates lookup 1 subtable" uni0414.bgr uni0434.sc
EndChar

StartChar: uni0416
Encoding: 1046 1046 259
Width: 1076
GlyphClass: 1
Flags: W
LayerCount: 2
Fore
SplineSet
332 0 m 1,0,-1
 334 16 l 1,1,-1
 423 58 l 1,2,-1
 521 617 l 1,3,-1
 447 659 l 1,4,-1
 450 676 l 1,5,-1
 753 676 l 1,6,-1
 750 659 l 1,7,-1
 662 617 l 1,8,-1
 563 58 l 1,9,-1
 637 16 l 1,10,-1
 634 0 l 1,11,-1
 332 0 l 1,0,-1
821 0 m 1,12,-1
 614 342 l 1,13,-1
 914 624 l 1,14,-1
 849 659 l 1,15,-1
 852 676 l 1,16,-1
 1073 676 l 1,17,-1
 1069 659 l 1,18,-1
 1008 635 l 1,19,-1
 739 388 l 1,20,-1
 952 53 l 1,21,-1
 1012 16 l 1,22,-1
 1009 0 l 1,23,-1
 821 0 l 1,12,-1
143 0 m 1,24,-1
 -52 0 l 1,25,-1
 -49 16 l 1,26,-1
 24 53 l 1,27,-1
 358 398 l 1,28,-1
 194 629 l 1,29,-1
 121 659 l 1,30,-1
 123 676 l 1,31,-1
 350 676 l 1,32,-1
 347 659 l 1,33,-1
 273 626 l 1,34,-1
 470 342 l 1,35,-1
 143 0 l 1,24,-1
EndSplineSet
Validated: 1
Substitution2: "'c2sc' Capitals to Small Capitals lookup 59 subtable" uni0436.sc
Substitution2: "'ss06' Style Set 6 lookup 19 subtable" uni0416.bgr
Substitution2: "'locl' Localized Forms in Cyrillic lookup 17 subtable" uni0416.bgr
AlternateSubs2: "'aalt' Access All Alternates lookup 1 subtable" uni0416.bgr uni0436.sc
EndChar

StartChar: uni0417
Encoding: 1047 1047 260
Width: 655
GlyphClass: 1
Flags: W
LayerCount: 2
Fore
SplineSet
353 637 m 0,0,1
 326 637 326 637 306 631 c 128,-1,2
 286 625 286 625 264 611 c 1,3,-1
 134 447 l 1,4,-1
 116 447 l 1,5,-1
 161 638 l 1,6,7
 209 661 209 661 259 673.5 c 128,-1,8
 309 686 309 686 381 686 c 0,9,10
 491 686 491 686 544 643 c 128,-1,11
 597 600 597 600 597 537 c 0,12,13
 597 497 597 497 574 459 c 128,-1,14
 551 421 551 421 506 392.5 c 128,-1,15
 461 364 461 364 395 352 c 1,16,17
 483 342 483 342 528 303.5 c 128,-1,18
 573 265 573 265 573 208 c 0,19,20
 573 154 573 154 537 104 c 128,-1,21
 501 54 501 54 430 22 c 128,-1,22
 359 -10 359 -10 255 -10 c 0,23,24
 184 -10 184 -10 129.5 4.5 c 128,-1,25
 75 19 75 19 39 43 c 1,26,-1
 53 216 l 1,27,-1
 72 216 l 1,28,-1
 152 68 l 1,29,30
 170 56 170 56 193.5 49 c 128,-1,31
 217 42 217 42 251 42 c 0,32,33
 306 42 306 42 344.5 65 c 128,-1,34
 383 88 383 88 403 123.5 c 128,-1,35
 423 159 423 159 423 196 c 0,36,37
 423 249 423 249 387.5 285.5 c 128,-1,38
 352 322 352 322 278 322 c 2,39,-1
 209 322 l 1,40,-1
 219 376 l 1,41,-1
 284 376 l 2,42,43
 337 376 337 376 373.5 400 c 128,-1,44
 410 424 410 424 428.5 461 c 128,-1,45
 447 498 447 498 447 534 c 0,46,47
 447 575 447 575 423.5 606 c 128,-1,48
 400 637 400 637 353 637 c 0,0,1
EndSplineSet
Validated: 1
Substitution2: "'c2sc' Capitals to Small Capitals lookup 59 subtable" uni0437.sc
Substitution2: "'aalt' Access All Alternates lookup 0 subtable" uni0437.sc
EndChar

StartChar: uni0418
Encoding: 1048 1048 261
Width: 799
GlyphClass: 2
Flags: W
AnchorPoint: "Anchor-3" 467 727 basechar 0
LayerCount: 2
Fore
SplineSet
-14 0 m 1,0,-1
 -11 16 l 1,1,-1
 73 58 l 1,2,-1
 172 617 l 1,3,-1
 97 659 l 1,4,-1
 100 676 l 1,5,-1
 396 676 l 1,6,-1
 393 659 l 1,7,-1
 312 617 l 1,8,-1
 238 191 l 1,9,-1
 578 571 l 1,10,-1
 586 617 l 1,11,-1
 516 659 l 1,12,-1
 519 676 l 1,13,-1
 814 676 l 1,14,-1
 811 659 l 1,15,-1
 726 617 l 1,16,-1
 627 58 l 1,17,-1
 702 16 l 1,18,-1
 699 0 l 1,19,-1
 404 0 l 1,20,-1
 408 16 l 1,21,-1
 486 58 l 1,22,-1
 560 476 l 1,23,-1
 220 97 l 1,24,-1
 214 58 l 1,25,-1
 284 16 l 1,26,-1
 281 0 l 1,27,-1
 -14 0 l 1,0,-1
EndSplineSet
Validated: 1
Substitution2: "'c2sc' Capitals to Small Capitals lookup 59 subtable" uni0438.sc
Substitution2: "'aalt' Access All Alternates lookup 0 subtable" uni0438.sc
EndChar

StartChar: uni041B
Encoding: 1051 1051 266
Width: 730
GlyphClass: 1
Flags: W
LayerCount: 2
Fore
SplineSet
328 0 m 1,0,-1
 331 16 l 1,1,-1
 416 58 l 1,2,-1
 515 622 l 1,3,-1
 306 622 l 1,4,-1
 289 522 l 2,5,6
 264 375 264 375 236 277 c 128,-1,7
 208 179 208 179 172 106 c 0,8,9
 138 39 138 39 107 14.5 c 128,-1,10
 76 -10 76 -10 37 -10 c 0,11,12
 -20 -10 -20 -10 -20 29 c 0,13,14
 -20 39 -20 39 -17 55 c 2,15,-1
 -8 106 l 1,16,-1
 75 106 l 1,17,18
 107 141 107 141 133.5 194.5 c 128,-1,19
 160 248 160 248 182.5 328.5 c 128,-1,20
 205 409 205 409 225 523 c 2,21,-1
 242 617 l 1,22,-1
 162 659 l 1,23,-1
 165 676 l 1,24,-1
 744 676 l 1,25,-1
 741 659 l 1,26,-1
 655 617 l 1,27,-1
 556 58 l 1,28,-1
 633 16 l 1,29,-1
 630 0 l 1,30,-1
 328 0 l 1,0,-1
EndSplineSet
Validated: 1
Substitution2: "'c2sc' Capitals to Small Capitals lookup 59 subtable" uni043B.sc
Substitution2: "'ss06' Style Set 6 lookup 19 subtable" uni041B.bgr
Substitution2: "'locl' Localized Forms in Cyrillic lookup 17 subtable" uni041B.bgr
AlternateSubs2: "'aalt' Access All Alternates lookup 1 subtable" uni041B.bgr uni043B.sc
EndChar

StartChar: uni041F
Encoding: 1055 1055 270
Width: 779
GlyphClass: 1
Flags: W
LayerCount: 2
Fore
SplineSet
-14 0 m 1,0,-1
 -11 16 l 1,1,-1
 73 58 l 1,2,-1
 172 617 l 1,3,-1
 97 659 l 1,4,-1
 100 676 l 1,5,-1
 794 676 l 1,6,-1
 791 659 l 1,7,-1
 706 617 l 1,8,-1
 606 58 l 1,9,-1
 682 16 l 1,10,-1
 679 0 l 1,11,-1
 384 0 l 1,12,-1
 387 16 l 1,13,-1
 466 58 l 1,14,-1
 565 622 l 1,15,-1
 313 622 l 1,16,-1
 214 58 l 1,17,-1
 284 16 l 1,18,-1
 281 0 l 1,19,-1
 -14 0 l 1,0,-1
EndSplineSet
Validated: 1
Substitution2: "'c2sc' Capitals to Small Capitals lookup 59 subtable" uni043F.sc
Substitution2: "'aalt' Access All Alternates lookup 0 subtable" uni043F.sc
EndChar

StartChar: uni0423
Encoding: 1059 1059 274
Width: 710
GlyphClass: 2
Flags: W
AnchorPoint: "Anchor-3" 463 727 basechar 0
LayerCount: 2
Fore
SplineSet
391 162 m 2,0,1
 328 67 328 67 279 29 c 128,-1,2
 230 -9 230 -9 180 -9 c 0,3,4
 125 -9 125 -9 125 29 c 0,5,6
 125 37 125 37 129 56 c 2,7,-1
 138 105 l 1,8,-1
 244 105 l 1,9,10
 262 117 262 117 278.5 131.5 c 128,-1,11
 295 146 295 146 311 165 c 1,12,-1
 146 611 l 1,13,-1
 69 659 l 1,14,-1
 72 676 l 1,15,-1
 362 676 l 1,16,-1
 359 659 l 1,17,-1
 282 626 l 1,18,-1
 282 620 l 1,19,-1
 400 300 l 1,20,-1
 412 300 l 1,21,-1
 617 618 l 1,22,-1
 617 624 l 1,23,-1
 546 659 l 1,24,-1
 549 676 l 1,25,-1
 768 676 l 1,26,-1
 765 659 l 1,27,-1
 694 624 l 1,28,-1
 391 162 l 2,0,1
EndSplineSet
Validated: 1
Substitution2: "'c2sc' Capitals to Small Capitals lookup 59 subtable" uni0443.sc
Substitution2: "'aalt' Access All Alternates lookup 0 subtable" uni0443.sc
EndChar

StartChar: uni0424
Encoding: 1060 1060 277
Width: 893
GlyphClass: 1
Flags: W
LayerCount: 2
Fore
SplineSet
229 -20 m 1,0,-1
 232 -4 l 1,1,-1
 324 38 l 1,2,-1
 331 82 l 1,3,4
 184 87 184 87 108.5 146.5 c 128,-1,5
 33 206 33 206 33 306 c 0,6,7
 33 383 33 383 79 446.5 c 128,-1,8
 125 510 125 510 212 550 c 128,-1,9
 299 590 299 590 421 594 c 1,10,-1
 428 638 l 1,11,-1
 349 680 l 1,12,-1
 352 696 l 1,13,-1
 665 696 l 1,14,-1
 662 680 l 1,15,-1
 569 638 l 1,16,-1
 561 594 l 1,17,18
 708 589 708 589 783.5 529.5 c 128,-1,19
 859 470 859 470 859 370 c 0,20,21
 859 293 859 293 813 229.5 c 128,-1,22
 767 166 767 166 680.5 126 c 128,-1,23
 594 86 594 86 472 82 c 1,24,-1
 464 38 l 1,25,-1
 546 -4 l 1,26,-1
 543 -20 l 1,27,-1
 229 -20 l 1,0,-1
181 310 m 0,28,29
 181 232 181 232 223.5 186.5 c 128,-1,30
 266 141 266 141 340 133 c 1,31,-1
 412 545 l 1,32,33
 341 543 341 543 289.5 512.5 c 128,-1,34
 238 482 238 482 209.5 430.5 c 128,-1,35
 181 379 181 379 181 310 c 0,28,29
711 366 m 0,36,37
 711 443 711 443 668.5 489 c 128,-1,38
 626 535 626 535 552 543 c 1,39,-1
 480 132 l 1,40,41
 551 133 551 133 602.5 163.5 c 128,-1,42
 654 194 654 194 682.5 245.5 c 128,-1,43
 711 297 711 297 711 366 c 0,36,37
EndSplineSet
Validated: 1
Substitution2: "'c2sc' Capitals to Small Capitals lookup 59 subtable" uni0444.sc
Substitution2: "'aalt' Access All Alternates lookup 0 subtable" uni0444.sc
EndChar

StartChar: uni0426
Encoding: 1062 1062 279
Width: 787
GlyphClass: 1
Flags: W
LayerCount: 2
Fore
SplineSet
582 0 m 1,0,-1
 -14 0 l 1,1,-1
 -11 16 l 1,2,-1
 74 58 l 1,3,-1
 173 617 l 1,4,-1
 97 659 l 1,5,-1
 100 676 l 1,6,-1
 395 676 l 1,7,-1
 392 659 l 1,8,-1
 313 617 l 1,9,-1
 214 54 l 1,10,-1
 466 54 l 1,11,-1
 565 617 l 1,12,-1
 496 659 l 1,13,-1
 499 676 l 1,14,-1
 794 676 l 1,15,-1
 791 659 l 1,16,-1
 707 617 l 1,17,-1
 606 54 l 1,18,-1
 702 54 l 1,19,-1
 662 -176 l 1,20,-1
 645 -176 l 1,21,-1
 582 0 l 1,0,-1
EndSplineSet
Validated: 1
Substitution2: "'c2sc' Capitals to Small Capitals lookup 59 subtable" uni0446.sc
Substitution2: "'aalt' Access All Alternates lookup 0 subtable" uni0446.sc
EndChar

StartChar: uni0427
Encoding: 1063 1063 280
Width: 760
GlyphClass: 1
Flags: W
LayerCount: 2
Fore
SplineSet
366 0 m 1,0,-1
 369 16 l 1,1,-1
 447 58 l 1,2,-1
 492 307 l 1,3,4
 459 294 459 294 420.5 284 c 128,-1,5
 382 274 382 274 338 274 c 0,6,7
 224 274 224 274 170 327 c 0,8,9
 130 366 130 366 130 440 c 0,10,11
 130 467 130 467 135 499 c 2,12,-1
 156 617 l 1,13,-1
 82 659 l 1,14,-1
 85 676 l 1,15,-1
 380 676 l 1,16,-1
 377 659 l 1,17,-1
 297 617 l 1,18,-1
 274 496 l 2,19,20
 269 466 269 466 269 442 c 0,21,22
 270 400 270 400 286 377 c 0,23,24
 312 342 312 342 383 342 c 0,25,26
 414 342 414 342 443 346.5 c 128,-1,27
 472 351 472 351 501 361 c 1,28,-1
 547 617 l 1,29,-1
 477 659 l 1,30,-1
 480 676 l 1,31,-1
 775 676 l 1,32,-1
 772 659 l 1,33,-1
 687 617 l 1,34,-1
 588 58 l 1,35,-1
 664 16 l 1,36,-1
 660 0 l 1,37,-1
 366 0 l 1,0,-1
EndSplineSet
Validated: 1
Substitution2: "'c2sc' Capitals to Small Capitals lookup 59 subtable" uni0447.sc
Substitution2: "'aalt' Access All Alternates lookup 0 subtable" uni0447.sc
EndChar

StartChar: uni0428
Encoding: 1064 1064 281
Width: 1091
GlyphClass: 1
Flags: W
LayerCount: 2
Fore
SplineSet
395 676 m 1,0,-1
 392 659 l 1,1,-1
 313 617 l 1,2,-1
 214 54 l 1,3,-1
 427 54 l 1,4,-1
 526 617 l 1,5,-1
 453 659 l 1,6,-1
 456 676 l 1,7,-1
 751 676 l 1,8,-1
 748 659 l 1,9,-1
 667 617 l 1,10,-1
 567 54 l 1,11,-1
 778 54 l 1,12,-1
 878 617 l 1,13,-1
 808 659 l 1,14,-1
 811 676 l 1,15,-1
 1106 676 l 1,16,-1
 1103 659 l 1,17,-1
 1019 617 l 1,18,-1
 920 58 l 1,19,-1
 994 16 l 1,20,-1
 991 0 l 1,21,-1
 -14 0 l 1,22,-1
 -11 16 l 1,23,-1
 74 58 l 1,24,-1
 173 617 l 1,25,-1
 97 659 l 1,26,-1
 100 676 l 1,27,-1
 395 676 l 1,0,-1
EndSplineSet
Validated: 1
Substitution2: "'c2sc' Capitals to Small Capitals lookup 59 subtable" uni0448.sc
Substitution2: "'aalt' Access All Alternates lookup 0 subtable" uni0448.sc
EndChar

StartChar: uni0429
Encoding: 1065 1065 282
Width: 1099
GlyphClass: 1
Flags: W
LayerCount: 2
Fore
SplineSet
395 676 m 1,0,-1
 392 659 l 1,1,-1
 313 617 l 1,2,-1
 214 54 l 1,3,-1
 427 54 l 1,4,-1
 526 617 l 1,5,-1
 453 659 l 1,6,-1
 456 676 l 1,7,-1
 751 676 l 1,8,-1
 748 659 l 1,9,-1
 667 617 l 1,10,-1
 567 54 l 1,11,-1
 778 54 l 1,12,-1
 878 617 l 1,13,-1
 808 659 l 1,14,-1
 811 676 l 1,15,-1
 1106 676 l 1,16,-1
 1103 659 l 1,17,-1
 1019 617 l 1,18,-1
 920 54 l 1,19,-1
 1016 54 l 1,20,-1
 975 -176 l 1,21,-1
 958 -176 l 1,22,-1
 895 0 l 1,23,-1
 -14 0 l 1,24,-1
 -11 16 l 1,25,-1
 74 58 l 1,26,-1
 173 617 l 1,27,-1
 97 659 l 1,28,-1
 100 676 l 1,29,-1
 395 676 l 1,0,-1
EndSplineSet
Validated: 1
Substitution2: "'c2sc' Capitals to Small Capitals lookup 59 subtable" uni0449.sc
Substitution2: "'aalt' Access All Alternates lookup 0 subtable" uni0449.sc
EndChar

StartChar: uni042A
Encoding: 1066 1066 283
Width: 762
GlyphClass: 1
Flags: W
LayerCount: 2
Fore
SplineSet
517 676 m 1,0,-1
 514 659 l 1,1,-1
 418 617 l 1,2,-1
 380 402 l 1,3,-1
 452 402 l 2,4,5
 581 402 581 402 652.5 355 c 128,-1,6
 724 308 724 308 724 217 c 0,7,8
 724 155 724 155 684 105.5 c 128,-1,9
 644 56 644 56 572.5 28 c 128,-1,10
 501 0 501 0 403 0 c 2,11,-1
 90 0 l 1,12,-1
 93 16 l 1,13,-1
 178 59 l 1,14,-1
 278 622 l 1,15,-1
 182 622 l 1,16,-1
 71 451 l 1,17,-1
 54 451 l 1,18,-1
 94 676 l 1,19,-1
 517 676 l 1,0,-1
318 54 m 1,20,-1
 388 54 l 2,21,22
 479 54 479 54 527 100.5 c 128,-1,23
 575 147 575 147 575 217 c 0,24,25
 575 286 575 286 535.5 317 c 128,-1,26
 496 348 496 348 419 348 c 2,27,-1
 370 348 l 1,28,-1
 318 54 l 1,20,-1
EndSplineSet
Validated: 1
Substitution2: "'c2sc' Capitals to Small Capitals lookup 59 subtable" uni044A.sc
Substitution2: "'aalt' Access All Alternates lookup 0 subtable" uni044A.sc
EndChar

StartChar: uni042C
Encoding: 1068 1068 285
Width: 657
GlyphClass: 1
Flags: W
LayerCount: 2
Fore
SplineSet
100 676 m 1,0,-1
 413 676 l 1,1,-1
 410 659 l 1,2,-1
 312 617 l 1,3,-1
 274 402 l 1,4,-1
 346 402 l 2,5,6
 475 402 475 402 547.5 355 c 128,-1,7
 620 308 620 308 620 217 c 0,8,9
 620 155 620 155 580 105.5 c 128,-1,10
 540 56 540 56 467.5 28 c 128,-1,11
 395 0 395 0 299 0 c 2,12,-1
 -14 0 l 1,13,-1
 -11 16 l 1,14,-1
 73 59 l 1,15,-1
 172 617 l 1,16,-1
 97 659 l 1,17,-1
 100 676 l 1,0,-1
213 54 m 1,18,-1
 283 54 l 2,19,20
 375 54 375 54 422.5 100.5 c 128,-1,21
 470 147 470 147 470 217 c 0,22,23
 470 286 470 286 430.5 317 c 128,-1,24
 391 348 391 348 314 348 c 2,25,-1
 265 348 l 1,26,-1
 213 54 l 1,18,-1
EndSplineSet
Validated: 1
Substitution2: "'c2sc' Capitals to Small Capitals lookup 59 subtable" uni044C.sc
Substitution2: "'aalt' Access All Alternates lookup 0 subtable" uni044C.sc
EndChar

StartChar: uni042D
Encoding: 1069 1069 286
Width: 683
GlyphClass: 1
Flags: W
LayerCount: 2
Fore
SplineSet
258 463 m 1,0,-1
 301 377 l 1,1,-1
 485 377 l 1,2,3
 486 392 486 392 486 408 c 0,4,5
 486 520 486 520 443.5 577.5 c 128,-1,6
 401 635 401 635 328 635 c 0,7,8
 300 635 300 635 274 625 c 128,-1,9
 248 615 248 615 222 600 c 1,10,-1
 111 460 l 1,11,-1
 93 460 l 1,12,-1
 134 633 l 1,13,14
 176 658 176 658 231 672 c 128,-1,15
 286 686 286 686 349 686 c 0,16,17
 436 686 436 686 500 651.5 c 128,-1,18
 564 617 564 617 599 555 c 128,-1,19
 634 493 634 493 634 410 c 0,20,21
 634 324 634 324 602 248 c 128,-1,22
 570 172 570 172 514 113.5 c 128,-1,23
 458 55 458 55 383.5 22.5 c 128,-1,24
 309 -10 309 -10 224 -10 c 0,25,26
 158 -10 158 -10 118.5 2.5 c 128,-1,27
 79 15 79 15 39 39 c 1,28,-1
 59 230 l 1,29,-1
 78 230 l 1,30,-1
 143 69 l 1,31,32
 161 53 161 53 182.5 45.5 c 128,-1,33
 204 38 204 38 238 38 c 0,34,35
 304 38 304 38 354 75.5 c 128,-1,36
 404 113 404 113 436.5 177.5 c 128,-1,37
 469 242 469 242 480 323 c 1,38,-1
 291 323 l 1,39,-1
 218 234 l 1,40,-1
 202 234 l 1,41,-1
 242 463 l 1,42,-1
 258 463 l 1,0,-1
EndSplineSet
Validated: 1
Substitution2: "'c2sc' Capitals to Small Capitals lookup 59 subtable" uni044D.sc
Substitution2: "'aalt' Access All Alternates lookup 0 subtable" uni044D.sc
EndChar

StartChar: uni042E
Encoding: 1070 1070 287
Width: 1077
GlyphClass: 1
Flags: W
LayerCount: 2
Fore
SplineSet
-14 0 m 1,0,-1
 -11 16 l 1,1,-1
 73 58 l 1,2,-1
 172 617 l 1,3,-1
 97 659 l 1,4,-1
 100 676 l 1,5,-1
 396 676 l 1,6,-1
 393 659 l 1,7,-1
 312 617 l 1,8,-1
 269 376 l 1,9,-1
 365 376 l 1,10,11
 385 464 385 464 439 534 c 128,-1,12
 493 604 493 604 570.5 645 c 128,-1,13
 648 686 648 686 742 686 c 0,14,15
 832 686 832 686 896.5 649 c 128,-1,16
 961 612 961 612 994.5 546 c 128,-1,17
 1028 480 1028 480 1028 394 c 0,18,19
 1028 312 1028 312 1000 239.5 c 128,-1,20
 972 167 972 167 919.5 110.5 c 128,-1,21
 867 54 867 54 796 22 c 128,-1,22
 725 -10 725 -10 639 -10 c 0,23,24
 550 -10 550 -10 486 26.5 c 128,-1,25
 422 63 422 63 388 129.5 c 128,-1,26
 354 196 354 196 354 282 c 0,27,28
 354 302 354 302 356 322 c 1,29,-1
 260 322 l 1,30,-1
 214 58 l 1,31,-1
 284 16 l 1,32,-1
 281 0 l 1,33,-1
 -14 0 l 1,0,-1
658 41 m 0,34,35
 707 41 707 41 748.5 70 c 128,-1,36
 790 99 790 99 819 150 c 128,-1,37
 848 201 848 201 864 267 c 128,-1,38
 880 333 880 333 880 408 c 0,39,40
 880 509 880 509 841.5 572 c 128,-1,41
 803 635 803 635 726 635 c 0,42,43
 679 635 679 635 638 606.5 c 128,-1,44
 597 578 597 578 567 527 c 128,-1,45
 537 476 537 476 520.5 410 c 128,-1,46
 504 344 504 344 504 269 c 0,47,48
 504 169 504 169 544 105 c 128,-1,49
 584 41 584 41 658 41 c 0,34,35
EndSplineSet
Validated: 1
Substitution2: "'c2sc' Capitals to Small Capitals lookup 59 subtable" uni044E.sc
Substitution2: "'aalt' Access All Alternates lookup 0 subtable" uni044E.sc
EndChar

StartChar: uni042F
Encoding: 1071 1071 288
Width: 733
GlyphClass: 1
Flags: W
LayerCount: 2
Fore
SplineSet
164 0 m 1,0,-1
 -40 0 l 1,1,-1
 -37 16 l 1,2,-1
 43 57 l 1,3,-1
 268 313 l 1,4,5
 199 327 199 327 163 367.5 c 128,-1,6
 127 408 127 408 127 467 c 0,7,8
 127 529 127 529 166 576.5 c 128,-1,9
 205 624 205 624 277 650 c 128,-1,10
 349 676 349 676 447 676 c 2,11,-1
 749 676 l 1,12,-1
 745 659 l 1,13,-1
 660 616 l 1,14,-1
 562 58 l 1,15,-1
 636 16 l 1,16,-1
 633 0 l 1,17,-1
 328 0 l 1,18,-1
 331 16 l 1,19,-1
 421 58 l 1,20,-1
 462 293 l 1,21,-1
 404 293 l 1,22,-1
 164 0 l 1,0,-1
432 344 m 2,23,-1
 471 344 l 1,24,-1
 520 622 l 1,25,-1
 463 622 l 2,26,27
 371 622 371 622 323 578 c 128,-1,28
 275 534 275 534 275 467 c 0,29,30
 275 402 275 402 314.5 373 c 128,-1,31
 354 344 354 344 432 344 c 2,23,-1
EndSplineSet
Validated: 1
Substitution2: "'c2sc' Capitals to Small Capitals lookup 59 subtable" uni044F.sc
Substitution2: "'aalt' Access All Alternates lookup 0 subtable" uni044F.sc
EndChar

StartChar: uni0490
Encoding: 1168 1168 289
Width: 596
GlyphClass: 1
Flags: W
LayerCount: 2
Fore
SplineSet
-14 0 m 1,0,-1
 -11 16 l 1,1,-1
 76 58 l 1,2,-1
 174 617 l 1,3,-1
 101 659 l 1,4,-1
 104 676 l 1,5,-1
 484 676 l 1,6,-1
 611 852 l 1,7,-1
 628 852 l 1,8,-1
 588 622 l 1,9,-1
 315 622 l 1,10,-1
 216 58 l 1,11,-1
 315 16 l 1,12,-1
 312 0 l 1,13,-1
 -14 0 l 1,0,-1
EndSplineSet
Validated: 1
Substitution2: "'c2sc' Capitals to Small Capitals lookup 59 subtable" uni0491.sc
Substitution2: "'aalt' Access All Alternates lookup 0 subtable" uni0491.sc
EndChar

StartChar: uni049A
Encoding: 1178 1178 290
Width: 758
GlyphClass: 1
Flags: W
LayerCount: 2
Fore
SplineSet
-14 0 m 1,0,-1
 -11 16 l 1,1,-1
 76 58 l 1,2,-1
 174 617 l 1,3,-1
 101 659 l 1,4,-1
 104 676 l 1,5,-1
 407 676 l 1,6,-1
 402 659 l 1,7,-1
 315 617 l 1,8,-1
 216 58 l 1,9,-1
 291 16 l 1,10,-1
 287 0 l 1,11,-1
 -14 0 l 1,0,-1
479 0 m 1,12,-1
 268 342 l 1,13,-1
 572 624 l 1,14,-1
 508 659 l 1,15,-1
 511 676 l 1,16,-1
 731 676 l 1,17,-1
 727 659 l 1,18,-1
 665 635 l 1,19,-1
 394 389 l 1,20,-1
 614 54 l 1,21,-1
 706 54 l 1,22,-1
 665 -176 l 1,23,-1
 648 -176 l 1,24,-1
 585 0 l 1,25,-1
 479 0 l 1,12,-1
EndSplineSet
Validated: 1
Substitution2: "'c2sc' Capitals to Small Capitals lookup 59 subtable" uni049B.sc
Substitution2: "'aalt' Access All Alternates lookup 0 subtable" uni049B.sc
EndChar

StartChar: uni0496
Encoding: 1174 1174 291
Width: 1096
GlyphClass: 1
Flags: W
LayerCount: 2
Fore
SplineSet
332 0 m 1,0,-1
 334 16 l 1,1,-1
 423 58 l 1,2,-1
 521 617 l 1,3,-1
 447 659 l 1,4,-1
 450 676 l 1,5,-1
 753 676 l 1,6,-1
 750 659 l 1,7,-1
 662 617 l 1,8,-1
 563 58 l 1,9,-1
 637 16 l 1,10,-1
 634 0 l 1,11,-1
 332 0 l 1,0,-1
821 0 m 1,12,-1
 614 342 l 1,13,-1
 914 624 l 1,14,-1
 849 659 l 1,15,-1
 852 676 l 1,16,-1
 1073 676 l 1,17,-1
 1069 659 l 1,18,-1
 1008 635 l 1,19,-1
 739 388 l 1,20,-1
 952 54 l 1,21,-1
 1046 54 l 1,22,-1
 1005 -176 l 1,23,-1
 988 -176 l 1,24,-1
 925 0 l 1,25,-1
 821 0 l 1,12,-1
143 0 m 1,26,-1
 -52 0 l 1,27,-1
 -49 16 l 1,28,-1
 23 53 l 1,29,-1
 357 399 l 1,30,-1
 194 629 l 1,31,-1
 121 659 l 1,32,-1
 123 676 l 1,33,-1
 350 676 l 1,34,-1
 347 659 l 1,35,-1
 273 626 l 1,36,-1
 470 342 l 1,37,-1
 143 0 l 1,26,-1
EndSplineSet
Validated: 1
Substitution2: "'c2sc' Capitals to Small Capitals lookup 59 subtable" uni0497.sc
Substitution2: "'aalt' Access All Alternates lookup 0 subtable" uni0497.sc
EndChar

StartChar: uni04B2
Encoding: 1202 1202 292
Width: 754
GlyphClass: 1
Flags: W
LayerCount: 2
Fore
SplineSet
-39 0 m 1,0,-1
 -35 16 l 1,1,-1
 44 54 l 1,2,-1
 300 330 l 1,3,-1
 144 626 l 1,4,-1
 90 659 l 1,5,-1
 93 676 l 1,6,-1
 390 676 l 1,7,-1
 387 659 l 1,8,-1
 300 624 l 1,9,-1
 299 618 l 1,10,-1
 413 410 l 1,11,-1
 603 618 l 1,12,-1
 604 623 l 1,13,-1
 534 659 l 1,14,-1
 537 676 l 1,15,-1
 755 676 l 1,16,-1
 752 659 l 1,17,-1
 684 625 l 1,18,-1
 438 361 l 1,19,-1
 604 54 l 1,20,-1
 697 54 l 1,21,-1
 656 -176 l 1,22,-1
 640 -176 l 1,23,-1
 577 0 l 1,24,-1
 360 0 l 1,25,-1
 364 16 l 1,26,-1
 443 52 l 1,27,-1
 443 56 l 1,28,-1
 327 280 l 1,29,-1
 123 58 l 1,30,-1
 120 54 l 1,31,-1
 193 16 l 1,32,-1
 189 0 l 1,33,-1
 -39 0 l 1,0,-1
EndSplineSet
Validated: 1
Substitution2: "'c2sc' Capitals to Small Capitals lookup 59 subtable" uni04B3.sc
Substitution2: "'aalt' Access All Alternates lookup 0 subtable" uni04B3.sc
EndChar

StartChar: uni04A2
Encoding: 1186 1186 293
Width: 797
GlyphClass: 1
Flags: W
LayerCount: 2
Fore
SplineSet
-14 0 m 1,0,-1
 -11 16 l 1,1,-1
 73 58 l 1,2,-1
 172 617 l 1,3,-1
 97 659 l 1,4,-1
 100 676 l 1,5,-1
 396 676 l 1,6,-1
 393 659 l 1,7,-1
 312 617 l 1,8,-1
 269 376 l 1,9,-1
 532 376 l 1,10,-1
 575 617 l 1,11,-1
 506 659 l 1,12,-1
 509 676 l 1,13,-1
 804 676 l 1,14,-1
 801 659 l 1,15,-1
 716 617 l 1,16,-1
 616 54 l 1,17,-1
 713 54 l 1,18,-1
 672 -176 l 1,19,-1
 655 -176 l 1,20,-1
 592 0 l 1,21,-1
 394 0 l 1,22,-1
 397 16 l 1,23,-1
 476 58 l 1,24,-1
 523 322 l 1,25,-1
 260 322 l 1,26,-1
 214 58 l 1,27,-1
 284 16 l 1,28,-1
 281 0 l 1,29,-1
 -14 0 l 1,0,-1
EndSplineSet
Validated: 1
Substitution2: "'c2sc' Capitals to Small Capitals lookup 59 subtable" uni04A3.sc
Substitution2: "'aalt' Access All Alternates lookup 0 subtable" uni04A3.sc
EndChar

StartChar: uni04B6
Encoding: 1206 1206 294
Width: 778
GlyphClass: 1
Flags: W
LayerCount: 2
Fore
SplineSet
375 0 m 1,0,-1
 378 16 l 1,1,-1
 457 58 l 1,2,-1
 501 307 l 1,3,4
 468 294 468 294 429.5 284 c 128,-1,5
 391 274 391 274 347 274 c 0,6,7
 232 274 232 274 178 327 c 0,8,9
 139 365 139 365 139 436 c 0,10,11
 139 438 139 438 139 440 c 0,12,13
 139 467 139 467 144 499 c 2,14,-1
 166 617 l 1,15,-1
 91 659 l 1,16,-1
 94 676 l 1,17,-1
 389 676 l 1,18,-1
 386 659 l 1,19,-1
 306 617 l 1,20,-1
 284 496 l 2,21,22
 279 466 279 466 279 442 c 0,23,24
 280 400 280 400 296 377 c 0,25,26
 322 342 322 342 392 342 c 0,27,28
 423 342 423 342 452 346 c 128,-1,29
 481 350 481 350 510 361 c 1,30,-1
 556 617 l 1,31,-1
 486 659 l 1,32,-1
 489 676 l 1,33,-1
 784 676 l 1,34,-1
 781 659 l 1,35,-1
 696 617 l 1,36,-1
 597 54 l 1,37,-1
 696 54 l 1,38,-1
 655 -176 l 1,39,-1
 639 -176 l 1,40,-1
 575 0 l 1,41,-1
 375 0 l 1,0,-1
EndSplineSet
Validated: 1
Substitution2: "'c2sc' Capitals to Small Capitals lookup 59 subtable" uni04B7.sc
Substitution2: "'aalt' Access All Alternates lookup 0 subtable" uni04B7.sc
EndChar

StartChar: uni04B0
Encoding: 1200 1200 296
Width: 702
GlyphClass: 1
Flags: W
LayerCount: 2
Fore
SplineSet
151 0 m 1,0,-1
 154 16 l 1,1,-1
 245 58 l 1,2,-1
 281 261 l 1,3,-1
 130 261 l 1,4,-1
 140 315 l 1,5,-1
 289 315 l 1,6,-1
 128 625 l 1,7,-1
 75 659 l 1,8,-1
 79 676 l 1,9,-1
 364 676 l 1,10,-1
 359 659 l 1,11,-1
 278 625 l 1,12,-1
 276 621 l 1,13,-1
 410 370 l 1,14,-1
 611 620 l 1,15,-1
 612 624 l 1,16,-1
 542 659 l 1,17,-1
 546 676 l 1,18,-1
 761 676 l 1,19,-1
 758 659 l 1,20,-1
 692 628 l 1,21,-1
 431 316 l 1,22,-1
 431 315 l 1,23,-1
 581 315 l 1,24,-1
 571 261 l 1,25,-1
 421 261 l 1,26,-1
 385 58 l 1,27,-1
 463 16 l 1,28,-1
 460 0 l 1,29,-1
 151 0 l 1,0,-1
EndSplineSet
Validated: 1
Substitution2: "'c2sc' Capitals to Small Capitals lookup 59 subtable" uni04B1.sc
Substitution2: "'aalt' Access All Alternates lookup 0 subtable" uni04B1.sc
EndChar

StartChar: uni04BA
Encoding: 1210 1210 297
Width: 772
GlyphClass: 1
Flags: W
LayerCount: 2
Fore
SplineSet
496 180 m 2,0,1
 501 209 501 209 501 233 c 0,2,3
 501 276 501 276 484 299 c 0,4,5
 458 334 458 334 387 334 c 0,6,7
 356 334 356 334 327 329.5 c 128,-1,8
 298 325 298 325 269 314 c 1,9,-1
 223 58 l 1,10,-1
 293 16 l 1,11,-1
 290 0 l 1,12,-1
 -5 0 l 1,13,-1
 -2 16 l 1,14,-1
 83 58 l 1,15,-1
 182 617 l 1,16,-1
 106 659 l 1,17,-1
 110 676 l 1,18,-1
 404 676 l 1,19,-1
 401 659 l 1,20,-1
 323 617 l 1,21,-1
 279 369 l 1,22,23
 312 382 312 382 350 391.5 c 128,-1,24
 388 401 388 401 432 401 c 0,25,26
 546 400 546 400 600 348 c 0,27,28
 640 310 640 310 640 236 c 0,29,30
 640 209 640 209 635 177 c 2,31,-1
 613 58 l 1,32,-1
 688 16 l 1,33,-1
 685 0 l 1,34,-1
 390 0 l 1,35,-1
 393 16 l 1,36,-1
 473 58 l 1,37,-1
 496 180 l 2,0,1
EndSplineSet
Validated: 1
Substitution2: "'c2sc' Capitals to Small Capitals lookup 59 subtable" uni04BB.sc
Substitution2: "'aalt' Access All Alternates lookup 0 subtable" uni04BB.sc
EndChar

StartChar: uni04E8
Encoding: 1256 1256 300
Width: 792
GlyphClass: 1
Flags: W
LayerCount: 2
Fore
SplineSet
344 -10 m 0,0,1
 251 -10 251 -10 185 26.5 c 128,-1,2
 119 63 119 63 84 129.5 c 128,-1,3
 49 196 49 196 49 282 c 0,4,5
 49 365 49 365 79.5 437.5 c 128,-1,6
 110 510 110 510 164 566.5 c 128,-1,7
 218 623 218 623 290 654.5 c 128,-1,8
 362 686 362 686 447 686 c 0,9,10
 540 686 540 686 606.5 649 c 128,-1,11
 673 612 673 612 708 546 c 128,-1,12
 743 480 743 480 743 394 c 0,13,14
 743 312 743 312 714 239.5 c 128,-1,15
 685 167 685 167 632 110.5 c 128,-1,16
 579 54 579 54 505.5 22 c 128,-1,17
 432 -10 432 -10 344 -10 c 0,0,1
431 635 m 0,18,19
 377 635 377 635 331.5 601 c 128,-1,20
 286 567 286 567 254 509 c 128,-1,21
 222 451 222 451 208 376 c 1,22,-1
 594 376 l 1,23,24
 595 391 595 391 595 408 c 0,25,26
 595 509 595 509 554 572 c 128,-1,27
 513 635 513 635 431 635 c 0,18,19
364 41 m 0,28,29
 422 41 422 41 468.5 78.5 c 128,-1,30
 515 116 515 116 546.5 179.5 c 128,-1,31
 578 243 578 243 589 322 c 1,32,-1
 201 322 l 1,33,34
 199 296 199 296 199 269 c 0,35,36
 199 169 199 169 242 105 c 128,-1,37
 285 41 285 41 364 41 c 0,28,29
EndSplineSet
Validated: 1
Substitution2: "'c2sc' Capitals to Small Capitals lookup 59 subtable" uni04E9.sc
Substitution2: "'aalt' Access All Alternates lookup 0 subtable" uni04E9.sc
EndChar

StartChar: uni0462
Encoding: 1122 1122 301
Width: 761
GlyphClass: 1
Flags: W
LayerCount: 2
Fore
SplineSet
150 507 m 1,0,-1
 47 384 l 1,1,-1
 31 384 l 1,2,-1
 62 561 l 1,3,-1
 257 561 l 1,4,-1
 267 617 l 1,5,-1
 187 659 l 1,6,-1
 190 676 l 1,7,-1
 531 676 l 1,8,-1
 528 659 l 1,9,-1
 419 617 l 1,10,-1
 410 561 l 1,11,-1
 636 561 l 1,12,-1
 605 384 l 1,13,-1
 589 384 l 1,14,-1
 529 507 l 1,15,-1
 399 507 l 1,16,-1
 372 349 l 1,17,-1
 449 349 l 2,18,19
 576 349 576 349 646.5 309.5 c 128,-1,20
 717 270 717 270 717 191 c 0,21,22
 717 137 717 137 677.5 93.5 c 128,-1,23
 638 50 638 50 567 25 c 128,-1,24
 496 0 496 0 400 0 c 2,25,-1
 75 0 l 1,26,-1
 78 16 l 1,27,-1
 168 58 l 1,28,-1
 248 507 l 1,29,-1
 150 507 l 1,0,-1
321 54 m 1,30,-1
 385 54 l 2,31,32
 474 54 474 54 521 93.5 c 128,-1,33
 568 133 568 133 568 191 c 0,34,35
 568 246 568 246 529 270.5 c 128,-1,36
 490 295 490 295 416 295 c 2,37,-1
 362 295 l 1,38,-1
 321 54 l 1,30,-1
EndSplineSet
Validated: 1
Substitution2: "'c2sc' Capitals to Small Capitals lookup 59 subtable" uni0463.sc
Substitution2: "'aalt' Access All Alternates lookup 0 subtable" uni0463.sc
EndChar

StartChar: uni0472
Encoding: 1138 1138 302
Width: 792
GlyphClass: 1
Flags: W
LayerCount: 2
Fore
SplineSet
344 -10 m 0,0,1
 251 -10 251 -10 185 26.5 c 128,-1,2
 119 63 119 63 84 129.5 c 128,-1,3
 49 196 49 196 49 282 c 0,4,5
 49 365 49 365 79.5 437.5 c 128,-1,6
 110 510 110 510 164 566.5 c 128,-1,7
 218 623 218 623 290 654.5 c 128,-1,8
 362 686 362 686 447 686 c 0,9,10
 540 686 540 686 606.5 649 c 128,-1,11
 673 612 673 612 708 546 c 128,-1,12
 743 480 743 480 743 394 c 0,13,14
 743 312 743 312 714 239.5 c 128,-1,15
 685 167 685 167 632 110.5 c 128,-1,16
 579 54 579 54 505.5 22 c 128,-1,17
 432 -10 432 -10 344 -10 c 0,0,1
431 635 m 0,18,19
 374 635 374 635 327 598 c 128,-1,20
 280 561 280 561 248 497 c 128,-1,21
 216 433 216 433 204 353 c 1,22,23
 258 382 258 382 300 392 c 0,24,25
 331 399 331 399 358 399 c 0,26,27
 368 398 368 398 378 398 c 0,28,29
 414 394 414 394 442.5 385.5 c 128,-1,30
 471 377 471 377 496 368.5 c 128,-1,31
 521 360 521 360 545 360 c 0,32,33
 546 360 546 360 546 359 c 0,34,35
 569 359 569 359 594 375 c 1,36,37
 595 391 595 391 595 408 c 0,38,39
 595 509 595 509 554 572 c 128,-1,40
 513 635 513 635 431 635 c 0,18,19
364 41 m 0,41,42
 423 41 423 41 470 79.5 c 128,-1,43
 517 118 517 118 548 183 c 128,-1,44
 579 248 579 248 590 329 c 1,45,46
 541 296 541 296 502 286 c 0,47,48
 477 279 477 279 455 279 c 0,49,50
 452 279 452 279 449 279 c 0,51,52
 440 279 440 279 430 280 c 0,53,54
 398 284 398 284 370 294 c 0,55,56
 342 302 342 302 316 312 c 0,57,58
 288 322 288 322 260 322 c 0,59,60
 259 322 259 322 259 323 c 0,61,62
 231 323 231 323 200 306 c 1,63,64
 199 289 199 289 199 269 c 0,65,66
 199 169 199 169 242 105 c 128,-1,67
 285 41 285 41 364 41 c 0,41,42
EndSplineSet
Validated: 1
Substitution2: "'c2sc' Capitals to Small Capitals lookup 59 subtable" uni0473.sc
Substitution2: "'aalt' Access All Alternates lookup 0 subtable" uni0473.sc
EndChar

StartChar: uni0474
Encoding: 1140 1140 303
Width: 772
GlyphClass: 1
Flags: W
LayerCount: 2
Fore
SplineSet
591 430 m 2,0,-1
 345 -5 l 1,1,-1
 272 -5 l 1,2,-1
 132 623 l 1,3,-1
 73 659 l 1,4,-1
 77 676 l 1,5,-1
 365 676 l 1,6,-1
 360 659 l 1,7,-1
 278 624 l 1,8,-1
 377 172 l 1,9,-1
 384 172 l 1,10,-1
 546 475 l 2,11,12
 582 542 582 542 608.5 583.5 c 128,-1,13
 635 625 635 625 657.5 647.5 c 128,-1,14
 680 670 680 670 702 678 c 128,-1,15
 724 686 724 686 751 686 c 0,16,17
 800 686 800 686 800 650 c 0,18,19
 800 643 800 643 799 635.5 c 128,-1,20
 798 628 798 628 796 621 c 2,21,-1
 786 571 l 1,22,-1
 693 571 l 1,23,24
 667 552 667 552 646.5 521 c 128,-1,25
 626 490 626 490 591 430 c 2,0,-1
EndSplineSet
Validated: 1
Substitution2: "'c2sc' Capitals to Small Capitals lookup 59 subtable" uni0475.sc
Substitution2: "'aalt' Access All Alternates lookup 0 subtable" uni0475.sc
EndChar

StartChar: uni0414.bgr
Encoding: 65538 -1 304
Width: 733
GlyphClass: 1
Flags: W
LayerCount: 2
Fore
SplineSet
76 0 m 1,0,-1
 -55 -176 l 1,1,-1
 -72 -176 l 1,2,-1
 -32 54 l 1,3,-1
 36 54 l 1,4,-1
 383 681 l 1,5,-1
 455 681 l 1,6,-1
 595 54 l 1,7,-1
 674 54 l 1,8,-1
 633 -176 l 1,9,-1
 616 -176 l 1,10,-1
 551 0 l 1,11,-1
 76 0 l 1,0,-1
100 54 m 1,12,-1
 450 54 l 1,13,-1
 350 504 l 1,14,-1
 343 504 l 1,15,-1
 100 54 l 1,12,-1
EndSplineSet
Validated: 1
Substitution2: "'c2sc' Capitals to Small Capitals lookup 59 subtable" uni0434.bgr.sc
Substitution2: "'aalt' Access All Alternates lookup 0 subtable" uni0434.bgr.sc
EndChar

StartChar: uni041B.bgr
Encoding: 65541 -1 307
Width: 726
GlyphClass: 1
Flags: W
LayerCount: 2
Fore
SplineSet
452 681 m 1,0,-1
 591 53 l 1,1,-1
 651 16 l 1,2,-1
 647 0 l 1,3,-1
 359 0 l 1,4,-1
 362 16 l 1,5,-1
 445 52 l 1,6,-1
 347 504 l 1,7,-1
 339 504 l 1,8,-1
 95 52 l 1,9,-1
 171 16 l 1,10,-1
 168 0 l 1,11,-1
 -34 0 l 1,12,-1
 -30 16 l 1,13,-1
 29 49 l 1,14,-1
 379 681 l 1,15,-1
 452 681 l 1,0,-1
EndSplineSet
Validated: 1
Substitution2: "'c2sc' Capitals to Small Capitals lookup 59 subtable" uni043B.bgr.sc
Substitution2: "'aalt' Access All Alternates lookup 0 subtable" uni043B.bgr.sc
EndChar

StartChar: a
Encoding: 97 97 308
Width: 552
GlyphClass: 2
Flags: W
AnchorPoint: "Anchor-3" 343 522 basechar 0
AnchorPoint: "Anchor-2" 451 0 basechar 0
AnchorPoint: "Anchor-0" 259 0 basechar 0
LayerCount: 2
Fore
SplineSet
133 -10 m 0,0,1
 91 -10 91 -10 64.5 24 c 128,-1,2
 38 58 38 58 38 123 c 0,3,4
 38 197 38 197 63.5 261 c 128,-1,5
 89 325 89 325 132.5 373.5 c 128,-1,6
 176 422 176 422 229 449.5 c 128,-1,7
 282 477 282 477 336 477 c 0,8,9
 391 477 391 477 427 451 c 1,10,-1
 478 471 l 1,11,-1
 499 471 l 1,12,-1
 438 129 l 2,13,14
 436 118 436 118 436 109 c 0,15,16
 436 81 436 81 456 81 c 0,17,18
 471 81 471 81 488.5 98 c 128,-1,19
 506 115 506 115 524 155 c 1,20,-1
 543 148 l 1,21,22
 514 72 514 72 477 31 c 128,-1,23
 440 -10 440 -10 391 -10 c 0,24,25
 344 -10 344 -10 322 19 c 0,26,27
 304 43 304 43 304 85 c 0,28,29
 304 94 304 94 305 104 c 1,30,-1
 302 104 l 1,31,32
 258 45 258 45 219.5 17.5 c 128,-1,33
 181 -10 181 -10 133 -10 c 0,0,1
174 178 m 0,34,35
 174 129 174 129 183.5 106.5 c 128,-1,36
 193 84 193 84 217 84 c 0,37,38
 243 84 243 84 267.5 106.5 c 128,-1,39
 292 129 292 129 313 159 c 1,40,-1
 355 404 l 1,41,42
 344 416 344 416 330.5 423 c 128,-1,43
 317 430 317 430 299 430 c 0,44,45
 262 430 262 430 234 394.5 c 128,-1,46
 206 359 206 359 190 301.5 c 128,-1,47
 174 244 174 244 174 178 c 0,34,35
EndSplineSet
Validated: 1
Substitution2: "'ss04' Style Set 4 lookup 72 subtable" blacksquare
Substitution2: "'case' Case-Sensitive Forms lookup 61 subtable" A
Substitution2: "'smcp' Lowercase to Small Capitals lookup 60 subtable" a.sc
Substitution2: "'c2sc' Capitals to Small Capitals lookup 59 subtable" a.sc
Substitution2: "'sups' Superscript lookup 53 subtable" a.superior
Substitution2: "Single Substitution lookup 21 subtable" ordfeminine
AlternateSubs2: "'aalt' Access All Alternates lookup 1 subtable" ordfeminine a.superior a.sc A blacksquare
EndChar

StartChar: b
Encoding: 98 98 309
Width: 526
GlyphClass: 1
Flags: W
LayerCount: 2
Fore
SplineSet
221 -10 m 0,0,1
 185 -10 185 -10 155.5 -1 c 128,-1,2
 126 8 126 8 105 24 c 1,3,-1
 37 -4 l 1,4,-1
 25 -4 l 1,5,-1
 144 684 l 1,6,-1
 71 719 l 1,7,-1
 71 731 l 1,8,-1
 288 768 l 1,9,-1
 291 768 l 1,10,-1
 221 368 l 1,11,-1
 226 368 l 1,12,13
 267 421 267 421 300.5 449 c 128,-1,14
 334 477 334 477 384 477 c 0,15,16
 430 477 430 477 458.5 438.5 c 128,-1,17
 487 400 487 400 487 329 c 0,18,19
 487 261 487 261 466 199.5 c 128,-1,20
 445 138 445 138 408.5 91 c 128,-1,21
 372 44 372 44 323.5 17 c 128,-1,22
 275 -10 275 -10 221 -10 c 0,0,1
307 383 m 0,23,24
 284 383 284 383 259 363.5 c 128,-1,25
 234 344 234 344 211 312 c 1,26,-1
 170 79 l 1,27,28
 181 55 181 55 195 44 c 128,-1,29
 209 33 209 33 229 33 c 0,30,31
 262 33 262 33 290.5 67.5 c 128,-1,32
 319 102 319 102 336.5 161.5 c 128,-1,33
 354 221 354 221 354 295 c 0,34,35
 354 337 354 337 344 360 c 128,-1,36
 334 383 334 383 307 383 c 0,23,24
EndSplineSet
Validated: 1
Substitution2: "'ss04' Style Set 4 lookup 72 subtable" blackdiamond
Substitution2: "'case' Case-Sensitive Forms lookup 61 subtable" B
Substitution2: "'smcp' Lowercase to Small Capitals lookup 60 subtable" b.sc
Substitution2: "'c2sc' Capitals to Small Capitals lookup 59 subtable" b.sc
Substitution2: "'sups' Superscript lookup 53 subtable" b.superior
AlternateSubs2: "'aalt' Access All Alternates lookup 1 subtable" b.superior b.sc B blackdiamond
EndChar

StartChar: c
Encoding: 99 99 310
Width: 450
GlyphClass: 2
Flags: W
AnchorPoint: "Anchor-3" 313 522 basechar 0
AnchorPoint: "Anchor-0" 200 0 basechar 0
LayerCount: 2
Fore
SplineSet
414 151 m 1,0,1
 376 84 376 84 323 37 c 128,-1,2
 270 -10 270 -10 202 -10 c 0,3,4
 117 -10 117 -10 76.5 37 c 128,-1,5
 36 84 36 84 36 170 c 0,6,7
 36 228 36 228 59 283 c 128,-1,8
 82 338 82 338 121.5 382 c 128,-1,9
 161 426 161 426 211.5 451.5 c 128,-1,10
 262 477 262 477 318 477 c 0,11,12
 358 477 358 477 385 461.5 c 128,-1,13
 412 446 412 446 425.5 425 c 128,-1,14
 439 404 439 404 439 388 c 0,15,16
 439 369 439 369 424 360 c 2,17,-1
 373 330 l 1,18,-1
 310 434 l 1,19,-1
 305 434 l 2,20,21
 272 434 272 434 240.5 407.5 c 128,-1,22
 209 381 209 381 188 334 c 128,-1,23
 167 287 167 287 167 225 c 0,24,25
 167 162 167 162 195 129 c 128,-1,26
 223 96 223 96 268 96 c 0,27,28
 297 96 297 96 326.5 110.5 c 128,-1,29
 356 125 356 125 395 165 c 1,30,-1
 398 165 l 1,31,-1
 414 151 l 1,0,1
EndSplineSet
Validated: 1
Substitution2: "'ss04' Style Set 4 lookup 72 subtable" blackcircle
Substitution2: "'case' Case-Sensitive Forms lookup 61 subtable" C
Substitution2: "'smcp' Lowercase to Small Capitals lookup 60 subtable" c.sc
Substitution2: "'c2sc' Capitals to Small Capitals lookup 59 subtable" c.sc
Substitution2: "'sups' Superscript lookup 53 subtable" c.superior
AlternateSubs2: "'aalt' Access All Alternates lookup 1 subtable" c.superior c.sc C blackcircle
EndChar

StartChar: d
Encoding: 100 100 311
Width: 558
GlyphClass: 2
Flags: W
AnchorPoint: "Anchor-2" 673 758 basechar 0
AnchorPoint: "Anchor-0" 252 0 basechar 0
LayerCount: 2
Fore
SplineSet
134 -10 m 0,0,1
 92 -10 92 -10 65.5 24 c 128,-1,2
 39 58 39 58 39 123 c 0,3,4
 39 197 39 197 64.5 261 c 128,-1,5
 90 325 90 325 133.5 373.5 c 128,-1,6
 177 422 177 422 230 449.5 c 128,-1,7
 283 477 283 477 337 477 c 0,8,9
 353 477 353 477 369 475 c 1,10,-1
 406 685 l 1,11,-1
 322 719 l 1,12,-1
 322 731 l 1,13,-1
 549 768 l 1,14,-1
 552 768 l 1,15,-1
 440 129 l 2,16,17
 438 117 438 117 438 107 c 0,18,19
 438 81 438 81 457 81 c 0,20,21
 472 81 472 81 489.5 98 c 128,-1,22
 507 115 507 115 525 155 c 1,23,-1
 544 148 l 1,24,25
 515 72 515 72 478 31 c 128,-1,26
 441 -10 441 -10 392 -10 c 0,27,28
 346 -10 346 -10 324 19 c 0,29,30
 306 43 306 43 305 85 c 0,31,32
 305 94 305 94 306 104 c 1,33,-1
 303 104 l 1,34,35
 257 43 257 43 219 16.5 c 128,-1,36
 181 -10 181 -10 134 -10 c 0,0,1
175 178 m 0,37,38
 175 126 175 126 185.5 105 c 128,-1,39
 196 84 196 84 218 84 c 0,40,41
 242 84 242 84 266 104 c 128,-1,42
 290 124 290 124 314 158 c 1,43,-1
 356 406 l 1,44,45
 333 431 333 431 302 431 c 0,46,47
 301 431 301 431 300 431 c 0,48,49
 264 431 264 431 236 396 c 128,-1,50
 208 361 208 361 191.5 303.5 c 128,-1,51
 175 246 175 246 175 178 c 0,37,38
EndSplineSet
Validated: 1
Substitution2: "'ss04' Style Set 4 lookup 72 subtable" blacktriangle
Substitution2: "'case' Case-Sensitive Forms lookup 61 subtable" D
Substitution2: "'smcp' Lowercase to Small Capitals lookup 60 subtable" d.sc
Substitution2: "'c2sc' Capitals to Small Capitals lookup 59 subtable" d.sc
Substitution2: "'sups' Superscript lookup 53 subtable" d.superior
AlternateSubs2: "'aalt' Access All Alternates lookup 1 subtable" d.superior d.sc D blacktriangle
EndChar

StartChar: e
Encoding: 101 101 312
Width: 449
GlyphClass: 2
Flags: W
AnchorPoint: "Anchor-3" 324 522 basechar 0
AnchorPoint: "Anchor-2" 294 0 basechar 0
AnchorPoint: "Anchor-0" 205 0 basechar 0
LayerCount: 2
Fore
SplineSet
199 -10 m 0,0,1
 115 -10 115 -10 75.5 37.5 c 128,-1,2
 36 85 36 85 36 166 c 0,3,4
 36 223 36 223 57 278.5 c 128,-1,5
 78 334 78 334 116 379 c 128,-1,6
 154 424 154 424 206 450.5 c 128,-1,7
 258 477 258 477 319 477 c 0,8,9
 372 477 372 477 400 453 c 128,-1,10
 428 429 428 429 428 395 c 0,11,12
 428 365 428 365 405.5 339 c 128,-1,13
 383 313 383 313 327 289 c 128,-1,14
 271 265 271 265 169 243 c 1,15,16
 168 230 168 230 168 216 c 0,17,18
 168 161 168 161 196 128.5 c 128,-1,19
 224 96 224 96 270 96 c 0,20,21
 302 96 302 96 330.5 111 c 128,-1,22
 359 126 359 126 394 158 c 1,23,-1
 397 158 l 1,24,-1
 413 143 l 1,25,26
 389 102 389 102 357 67.5 c 128,-1,27
 325 33 325 33 284.5 11.5 c 128,-1,28
 244 -10 244 -10 199 -10 c 0,0,1
286 435 m 0,29,30
 248 435 248 435 216 392 c 128,-1,31
 184 349 184 349 173 281 c 1,32,33
 259 304 259 304 292.5 332.5 c 128,-1,34
 326 361 326 361 326 397 c 0,35,36
 326 412 326 412 317 423.5 c 128,-1,37
 308 435 308 435 286 435 c 0,29,30
EndSplineSet
Validated: 1
Substitution2: "'case' Case-Sensitive Forms lookup 61 subtable" E
Substitution2: "'smcp' Lowercase to Small Capitals lookup 60 subtable" e.sc
Substitution2: "'c2sc' Capitals to Small Capitals lookup 59 subtable" e.sc
Substitution2: "'sups' Superscript lookup 53 subtable" e.superior
AlternateSubs2: "'aalt' Access All Alternates lookup 1 subtable" e.superior e.sc E
EndChar

StartChar: f
Encoding: 102 102 313
Width: 337
GlyphClass: 1
Flags: W
LayerCount: 2
Fore
SplineSet
45 422 m 1,0,-1
 45 467 l 1,1,-1
 126 467 l 1,2,-1
 130 495 l 2,3,4
 136 535 136 535 162.5 582 c 128,-1,5
 189 629 189 629 228.5 671.5 c 128,-1,6
 268 714 268 714 314 741 c 128,-1,7
 360 768 360 768 406 768 c 0,8,9
 441 768 441 768 461.5 755.5 c 128,-1,10
 482 743 482 743 482 726 c 0,11,12
 482 720 482 720 478 711 c 2,13,-1
 454 654 l 1,14,-1
 340 705 l 1,15,16
 313 687 313 687 297 648 c 128,-1,17
 281 609 281 609 270 538 c 2,18,-1
 258 467 l 1,19,-1
 361 467 l 1,20,-1
 361 422 l 1,21,-1
 251 422 l 1,22,-1
 185 12 l 2,23,24
 178 -30 178 -30 151 -75 c 128,-1,25
 124 -120 124 -120 86.5 -159 c 128,-1,26
 49 -198 49 -198 9.5 -222 c 128,-1,27
 -30 -246 -30 -246 -61 -246 c 0,28,29
 -90 -246 -90 -246 -108 -233 c 128,-1,30
 -126 -220 -126 -220 -126 -205 c 0,31,32
 -126 -200 -126 -200 -122 -190 c 2,33,-1
 -98 -147 l 1,34,-1
 -13 -191 l 1,35,36
 10 -174 10 -174 24 -140 c 128,-1,37
 38 -106 38 -106 47 -43 c 2,38,-1
 119 422 l 1,39,-1
 45 422 l 1,0,-1
EndSplineSet
Validated: 1
Substitution2: "'case' Case-Sensitive Forms lookup 61 subtable" F
Substitution2: "'smcp' Lowercase to Small Capitals lookup 60 subtable" f.sc
Substitution2: "'c2sc' Capitals to Small Capitals lookup 59 subtable" f.sc
Substitution2: "'sups' Superscript lookup 53 subtable" f.superior
AlternateSubs2: "'aalt' Access All Alternates lookup 1 subtable" f.superior f.sc F
EndChar

StartChar: g
Encoding: 103 103 314
Width: 482
GlyphClass: 2
Flags: W
AnchorPoint: "Anchor-3" 296 522 basechar 0
LayerCount: 2
Fore
SplineSet
236 160 m 0,0,1
 188 160 188 160 152 176 c 1,2,3
 124 158 124 158 124 132 c 0,4,5
 124 108 124 108 145.5 97 c 128,-1,6
 167 86 167 86 201.5 80 c 128,-1,7
 236 74 236 74 273.5 66.5 c 128,-1,8
 311 59 311 59 345.5 46 c 128,-1,9
 380 33 380 33 401.5 8 c 128,-1,10
 423 -17 423 -17 423 -60 c 0,11,12
 423 -104 423 -104 393.5 -146.5 c 128,-1,13
 364 -189 364 -189 305.5 -217.5 c 128,-1,14
 247 -246 247 -246 161 -246 c 0,15,16
 73 -246 73 -246 28 -217.5 c 128,-1,17
 -17 -189 -17 -189 -17 -144 c 0,18,19
 -17 -118 -17 -118 -8.5 -100.5 c 128,-1,20
 0 -83 0 -83 23 -58 c 1,21,-1
 90 -22 l 1,22,-1
 90 -18 l 1,23,24
 60 -8 60 -8 40 12 c 128,-1,25
 20 32 20 32 20 69 c 0,26,27
 20 95 20 95 30 115 c 128,-1,28
 40 135 40 135 58 154 c 1,29,-1
 125 187 l 1,30,-1
 125 193 l 1,31,32
 99 211 99 211 87 238 c 128,-1,33
 75 265 75 265 75 297 c 0,34,35
 75 342 75 342 101.5 383.5 c 128,-1,36
 128 425 128 425 174 451 c 128,-1,37
 220 477 220 477 279 477 c 0,38,39
 316 477 316 477 349 467 c 1,40,-1
 516 467 l 1,41,-1
 516 422 l 1,42,-1
 422 422 l 1,43,-1
 416 417 l 1,44,45
 445 385 445 385 445 340 c 0,46,47
 445 338 445 338 445 337 c 0,48,49
 445 295 445 295 419.5 254 c 128,-1,50
 394 213 394 213 347.5 186.5 c 128,-1,51
 301 160 301 160 236 160 c 0,0,1
249 202 m 0,52,53
 273 202 273 202 290.5 223.5 c 128,-1,54
 308 245 308 245 318.5 278 c 128,-1,55
 329 311 329 311 329 348 c 0,56,57
 329 391 329 391 315 414 c 128,-1,58
 301 437 301 437 270 437 c 0,59,60
 246 437 246 437 228 416 c 128,-1,61
 210 395 210 395 199.5 362 c 128,-1,62
 189 329 189 329 189 291 c 0,63,64
 189 250 189 250 203.5 226 c 128,-1,65
 218 202 218 202 249 202 c 0,52,53
73 -129 m 0,66,67
 73 -163 73 -163 100 -187.5 c 128,-1,68
 127 -212 127 -212 178 -212 c 0,69,70
 238 -212 238 -212 269.5 -183 c 128,-1,71
 301 -154 301 -154 301 -117 c 0,72,73
 301 -89 301 -89 285.5 -74 c 128,-1,74
 270 -59 270 -59 244.5 -51 c 128,-1,75
 219 -43 219 -43 189 -39 c 128,-1,76
 159 -35 159 -35 129 -29 c 1,77,78
 94 -51 94 -51 83.5 -75 c 128,-1,79
 73 -99 73 -99 73 -129 c 0,66,67
EndSplineSet
Validated: 1
Substitution2: "'case' Case-Sensitive Forms lookup 61 subtable" G
Substitution2: "'smcp' Lowercase to Small Capitals lookup 60 subtable" g.sc
Substitution2: "'c2sc' Capitals to Small Capitals lookup 59 subtable" g.sc
Substitution2: "'sups' Superscript lookup 53 subtable" g.superior
AlternateSubs2: "'aalt' Access All Alternates lookup 1 subtable" g.superior g.sc G
EndChar

StartChar: h
Encoding: 104 104 315
Width: 565
GlyphClass: 2
Flags: W
AnchorPoint: "Anchor-3" 367 783 basechar 0
AnchorPoint: "Anchor-0" 244 0 basechar 0
LayerCount: 2
Fore
SplineSet
157 0 m 1,0,-1
 25 0 l 1,1,-1
 144 684 l 1,2,-1
 70 718 l 1,3,-1
 70 731 l 1,4,-1
 288 768 l 1,5,-1
 291 768 l 1,6,-1
 222 380 l 1,7,-1
 227 380 l 1,8,9
 260 416 260 416 284 437.5 c 128,-1,10
 308 459 308 459 332 468 c 128,-1,11
 356 477 356 477 388 477 c 0,12,13
 441 477 441 477 470 436 c 0,14,15
 490 408 490 408 490 366 c 0,16,17
 490 347 490 347 486 326 c 2,18,-1
 452 129 l 2,19,20
 450 117 450 117 450 109 c 0,21,22
 450 81 450 81 469 81 c 0,23,24
 484 81 484 81 501 98 c 128,-1,25
 518 115 518 115 537 155 c 1,26,-1
 556 148 l 1,27,28
 527 72 527 72 490.5 31 c 128,-1,29
 454 -10 454 -10 404 -10 c 0,30,31
 352 -10 352 -10 330 26 c 0,32,33
 316 48 316 48 316 84 c 0,34,35
 316 105 316 105 321 129 c 2,36,-1
 354 322 l 2,37,38
 355 331 355 331 355 339 c 0,39,40
 355 356 355 356 349 370 c 0,41,42
 340 390 340 390 308 391 c 0,43,44
 283 391 283 391 258.5 372 c 128,-1,45
 234 353 234 353 214 331 c 1,46,-1
 157 0 l 1,0,-1
EndSplineSet
Validated: 1
Substitution2: "'case' Case-Sensitive Forms lookup 61 subtable" H
Substitution2: "'smcp' Lowercase to Small Capitals lookup 60 subtable" h.sc
Substitution2: "'c2sc' Capitals to Small Capitals lookup 59 subtable" h.sc
Substitution2: "'sups' Superscript lookup 53 subtable" h.superior
AlternateSubs2: "'aalt' Access All Alternates lookup 1 subtable" h.superior h.sc H
EndChar

StartChar: i
Encoding: 105 105 316
Width: 308
GlyphClass: 2
Flags: W
AnchorPoint: "Anchor-3" 194 522 basechar 0
AnchorPoint: "Anchor-2" 157 0 basechar 0
AnchorPoint: "Anchor-0" 132 0 basechar 0
LayerCount: 2
Fore
SplineSet
210 582 m 256,0,1
 179 582 179 582 158.5 602.5 c 128,-1,2
 138 623 138 623 138 653 c 256,3,4
 138 684 138 684 158.5 704.5 c 128,-1,5
 179 725 179 725 210 725 c 256,6,7
 241 725 241 725 261.5 704.5 c 128,-1,8
 282 684 282 684 282 653 c 256,9,10
 282 622 282 622 261.5 602 c 128,-1,11
 241 582 241 582 210 582 c 256,0,1
141 -10 m 0,12,13
 90 -10 90 -10 68 26 c 0,14,15
 54 50 54 50 54 86 c 1,16,17
 54 106 54 106 58 129 c 2,18,-1
 105 394 l 1,19,-1
 34 428 l 1,20,-1
 34 440 l 1,21,-1
 248 477 l 1,22,-1
 251 477 l 1,23,-1
 189 129 l 2,24,25
 187 117 187 117 187 107 c 0,26,27
 187 81 187 81 206 81 c 0,28,29
 221 81 221 81 238.5 98 c 128,-1,30
 256 115 256 115 274 155 c 1,31,-1
 293 148 l 1,32,33
 264 72 264 72 227 31 c 128,-1,34
 190 -10 190 -10 141 -10 c 0,12,13
EndSplineSet
Validated: 1
Substitution2: "'case' Case-Sensitive Forms lookup 61 subtable" I
Substitution2: "'smcp' Lowercase to Small Capitals lookup 60 subtable" i.sc
Substitution2: "'c2sc' Capitals to Small Capitals lookup 59 subtable" i.sc
Substitution2: "'sups' Superscript lookup 53 subtable" i.superior
Substitution2: "'locl' Localized Forms in Latin lookup 15 subtable" idotaccent
Substitution2: "'locl' Localized Forms in Latin lookup 10 subtable" idotaccent
Substitution2: "'locl' Localized Forms in Latin lookup 6 subtable" idotaccent
Substitution2: "Single Substitution lookup 3 subtable" idotless
AlternateSubs2: "'aalt' Access All Alternates lookup 1 subtable" idotaccent i.superior i.sc I
EndChar

StartChar: j
Encoding: 106 106 317
Width: 299
GlyphClass: 2
Flags: W
AnchorPoint: "Anchor-3" 193 522 basechar 0
LayerCount: 2
Fore
SplineSet
208 582 m 0,0,1
 177 582 177 582 156 602.5 c 128,-1,2
 135 623 135 623 135 653 c 256,3,4
 135 684 135 684 156 704.5 c 128,-1,5
 177 725 177 725 208 725 c 0,6,7
 238 725 238 725 258.5 704.5 c 128,-1,8
 279 684 279 684 279 653 c 256,9,10
 279 622 279 622 258.5 602 c 128,-1,11
 238 582 238 582 208 582 c 0,0,1
-79 -236 m 1,12,-1
 -79 -217 l 1,13,14
 -42 -192 -42 -192 -20 -168.5 c 128,-1,15
 2 -145 2 -145 15.5 -109.5 c 128,-1,16
 29 -74 29 -74 39 -10 c 2,17,-1
 103 394 l 1,18,-1
 33 428 l 1,19,-1
 33 440 l 1,20,-1
 247 477 l 1,21,-1
 250 477 l 1,22,-1
 175 25 l 2,23,24
 162 -64 162 -64 100 -127 c 128,-1,25
 38 -190 38 -190 -79 -236 c 1,12,-1
EndSplineSet
Validated: 1
Substitution2: "'case' Case-Sensitive Forms lookup 61 subtable" J
Substitution2: "'smcp' Lowercase to Small Capitals lookup 60 subtable" j.sc
Substitution2: "'c2sc' Capitals to Small Capitals lookup 59 subtable" j.sc
Substitution2: "'sups' Superscript lookup 53 subtable" j.superior
Substitution2: "Single Substitution lookup 13 subtable" jacute
Substitution2: "Single Substitution lookup 3 subtable" jdotless
AlternateSubs2: "'aalt' Access All Alternates lookup 1 subtable" jacute j.superior j.sc J
EndChar

StartChar: k
Encoding: 107 107 318
Width: 529
GlyphClass: 2
Flags: W
AnchorPoint: "Anchor-0" 227 0 basechar 0
LayerCount: 2
Fore
SplineSet
25 0 m 1,0,-1
 144 684 l 1,1,-1
 70 718 l 1,2,-1
 70 731 l 1,3,-1
 288 768 l 1,4,-1
 291 768 l 1,5,-1
 204 271 l 1,6,7
 283 353 283 353 330.5 398 c 128,-1,8
 378 443 378 443 406.5 460 c 128,-1,9
 435 477 435 477 457 477 c 0,10,11
 481 477 481 477 493 467 c 128,-1,12
 505 457 505 457 505 446 c 0,13,14
 505 441 505 441 500 429 c 2,15,-1
 475 367 l 1,16,-1
 402 393 l 1,17,18
 392 389 392 389 381 382 c 2,19,-1
 304 325 l 1,20,-1
 398 128 l 2,21,22
 409 105 409 105 418.5 93 c 128,-1,23
 428 81 428 81 442 81 c 0,24,25
 457 81 457 81 470 97.5 c 128,-1,26
 483 114 483 114 497 154 c 1,27,-1
 515 147 l 1,28,29
 491 62 491 62 460.5 26 c 128,-1,30
 430 -10 430 -10 385 -10 c 256,31,32
 340 -10 340 -10 319 17 c 128,-1,33
 298 44 298 44 281 83 c 2,34,-1
 203 263 l 1,35,-1
 157 0 l 1,36,-1
 25 0 l 1,0,-1
EndSplineSet
Validated: 1
Substitution2: "'case' Case-Sensitive Forms lookup 61 subtable" K
Substitution2: "'smcp' Lowercase to Small Capitals lookup 60 subtable" k.sc
Substitution2: "'c2sc' Capitals to Small Capitals lookup 59 subtable" k.sc
Substitution2: "'sups' Superscript lookup 53 subtable" k.superior
AlternateSubs2: "'aalt' Access All Alternates lookup 1 subtable" k.superior k.sc K
EndChar

StartChar: l
Encoding: 108 108 319
Width: 294
GlyphClass: 2
Flags: W
AnchorPoint: "Anchor-3" 229 783 basechar 0
AnchorPoint: "Anchor-2" 413 758 basechar 0
AnchorPoint: "Anchor-1" 328 307 basechar 0
AnchorPoint: "Anchor-0" 123 0 basechar 0
LayerCount: 2
Fore
SplineSet
131 -10 m 0,0,1
 80 -10 80 -10 58 26 c 0,2,3
 43 50 43 50 43 87 c 0,4,5
 43 106 43 106 47 129 c 2,6,-1
 144 684 l 1,7,-1
 67 719 l 1,8,-1
 67 731 l 1,9,-1
 288 768 l 1,10,-1
 291 768 l 1,11,-1
 178 129 l 2,12,13
 176 118 176 118 176 109 c 0,14,15
 176 81 176 81 196 81 c 0,16,17
 211 81 211 81 228 98 c 128,-1,18
 245 115 245 115 263 155 c 1,19,-1
 283 148 l 1,20,21
 254 72 254 72 217 31 c 128,-1,22
 180 -10 180 -10 131 -10 c 0,0,1
EndSplineSet
Validated: 1
Substitution2: "'case' Case-Sensitive Forms lookup 61 subtable" L
Substitution2: "'smcp' Lowercase to Small Capitals lookup 60 subtable" l.sc
Substitution2: "'c2sc' Capitals to Small Capitals lookup 59 subtable" l.sc
Substitution2: "'sups' Superscript lookup 53 subtable" l.superior
AlternateSubs2: "'aalt' Access All Alternates lookup 1 subtable" l.superior l.sc L
EndChar

StartChar: m
Encoding: 109 109 320
Width: 834
GlyphClass: 2
Flags: W
AnchorPoint: "Anchor-0" 367 0 basechar 0
LayerCount: 2
Fore
SplineSet
36 0 m 1,0,-1
 104 393 l 1,1,-1
 37 428 l 1,2,-1
 37 440 l 1,3,-1
 226 477 l 1,4,-1
 229 477 l 1,5,-1
 229 377 l 1,6,-1
 236 377 l 1,7,8
 269 414 269 414 292.5 436 c 128,-1,9
 316 458 316 458 339 467.5 c 128,-1,10
 362 477 362 477 395 477 c 0,11,12
 436 477 436 477 462.5 450.5 c 128,-1,13
 489 424 489 424 493 377 c 1,14,-1
 499 377 l 1,15,16
 533 414 533 414 557 436 c 128,-1,17
 581 458 581 458 604.5 467.5 c 128,-1,18
 628 477 628 477 660 477 c 0,19,20
 712 477 712 477 740 436 c 0,21,22
 760 407 760 407 760 365 c 0,23,24
 760 347 760 347 756 326 c 2,25,-1
 721 129 l 2,26,27
 719 117 719 117 719 109 c 0,28,29
 719 81 719 81 738 81 c 0,30,31
 753 81 753 81 770 98 c 128,-1,32
 787 115 787 115 806 155 c 1,33,-1
 825 148 l 1,34,35
 796 72 796 72 759.5 31 c 128,-1,36
 723 -10 723 -10 674 -10 c 0,37,38
 622 -10 622 -10 600 26 c 0,39,40
 586 48 586 48 586 81 c 0,41,42
 586 83 586 83 586 86 c 0,43,44
 586 106 586 106 590 129 c 2,45,-1
 624 322 l 2,46,47
 626 332 626 332 626 340 c 0,48,49
 626 356 626 356 620 370 c 0,50,51
 610 390 610 390 581 391 c 0,52,53
 556 391 556 391 533 372.5 c 128,-1,54
 510 354 510 354 492 333 c 0,55,56
 491 330 491 330 489 326 c 2,57,-1
 433 0 l 1,58,-1
 301 0 l 1,59,-1
 358 322 l 2,60,61
 360 332 360 332 360 341 c 0,62,63
 360 356 360 356 354 370 c 0,64,65
 345 390 345 390 314 391 c 0,66,67
 289 391 289 391 266.5 371 c 128,-1,68
 244 351 244 351 223 329 c 1,69,-1
 168 0 l 1,70,-1
 36 0 l 1,0,-1
EndSplineSet
Validated: 1
Substitution2: "'case' Case-Sensitive Forms lookup 61 subtable" M
Substitution2: "'smcp' Lowercase to Small Capitals lookup 60 subtable" m.sc
Substitution2: "'c2sc' Capitals to Small Capitals lookup 59 subtable" m.sc
Substitution2: "'sups' Superscript lookup 53 subtable" m.superior
AlternateSubs2: "'aalt' Access All Alternates lookup 1 subtable" m.superior m.sc M
EndChar

StartChar: n
Encoding: 110 110 321
Width: 576
GlyphClass: 2
Flags: W
AnchorPoint: "Anchor-3" 325 522 basechar 0
AnchorPoint: "Anchor-0" 271 0 basechar 0
LayerCount: 2
Fore
SplineSet
36 0 m 1,0,-1
 104 393 l 1,1,-1
 37 428 l 1,2,-1
 37 440 l 1,3,-1
 226 477 l 1,4,-1
 229 477 l 1,5,-1
 229 377 l 1,6,-1
 236 377 l 1,7,8
 270 414 270 414 294 436 c 128,-1,9
 318 458 318 458 343 467.5 c 128,-1,10
 368 477 368 477 399 477 c 0,11,12
 452 477 452 477 481 436 c 0,13,14
 502 407 502 407 502 364 c 0,15,16
 502 346 502 346 498 326 c 2,17,-1
 463 129 l 2,18,19
 461 117 461 117 461 109 c 0,20,21
 461 81 461 81 480 81 c 0,22,23
 495 81 495 81 512 98 c 128,-1,24
 529 115 529 115 548 155 c 1,25,-1
 567 148 l 1,26,27
 538 72 538 72 501.5 31 c 128,-1,28
 465 -10 465 -10 416 -10 c 0,29,30
 365 -10 365 -10 342 26 c 0,31,32
 327 49 327 49 327 84 c 0,33,34
 327 104 327 104 332 129 c 2,35,-1
 366 322 l 2,36,37
 367 330 367 330 367 338 c 0,38,39
 366 356 366 356 360 370 c 0,40,41
 350 390 350 390 319 391 c 0,42,43
 293 391 293 391 268.5 371 c 128,-1,44
 244 351 244 351 223 329 c 1,45,-1
 168 0 l 1,46,-1
 36 0 l 1,0,-1
EndSplineSet
Validated: 1
Substitution2: "'case' Case-Sensitive Forms lookup 61 subtable" N
Substitution2: "'smcp' Lowercase to Small Capitals lookup 60 subtable" n.sc
Substitution2: "'c2sc' Capitals to Small Capitals lookup 59 subtable" n.sc
Substitution2: "'sups' Superscript lookup 53 subtable" n.superior
AlternateSubs2: "'aalt' Access All Alternates lookup 1 subtable" n.superior n.sc N
EndChar

StartChar: o
Encoding: 111 111 322
Width: 519
GlyphClass: 2
Flags: W
AnchorPoint: "Anchor-3" 308 522 basechar 0
AnchorPoint: "Anchor-2" 254 0 basechar 0
AnchorPoint: "Anchor-0" 222 0 basechar 0
LayerCount: 2
Fore
SplineSet
224 -10 m 0,0,1
 161 -10 161 -10 119 17 c 128,-1,2
 77 44 77 44 56.5 91 c 128,-1,3
 36 138 36 138 36 197 c 0,4,5
 36 249 36 249 55 298.5 c 128,-1,6
 74 348 74 348 107.5 388.5 c 128,-1,7
 141 429 141 429 187 453 c 128,-1,8
 233 477 233 477 288 477 c 0,9,10
 355 477 355 477 398 450 c 128,-1,11
 441 423 441 423 462 376.5 c 128,-1,12
 483 330 483 330 483 270 c 0,13,14
 483 221 483 221 465 171.5 c 128,-1,15
 447 122 447 122 413 80.5 c 128,-1,16
 379 39 379 39 330.5 14.5 c 128,-1,17
 282 -10 282 -10 224 -10 c 0,0,1
238 38 m 0,18,19
 271 38 271 38 296 74.5 c 128,-1,20
 321 111 321 111 335 169 c 128,-1,21
 349 227 349 227 349 295 c 0,22,23
 349 364 349 364 333.5 397 c 128,-1,24
 318 430 318 430 283 430 c 0,25,26
 251 430 251 430 225.5 395.5 c 128,-1,27
 200 361 200 361 185 304 c 128,-1,28
 170 247 170 247 170 176 c 0,29,30
 170 113 170 113 185 75.5 c 128,-1,31
 200 38 200 38 238 38 c 0,18,19
EndSplineSet
Validated: 1
Substitution2: "'case' Case-Sensitive Forms lookup 61 subtable" O
Substitution2: "'smcp' Lowercase to Small Capitals lookup 60 subtable" o.sc
Substitution2: "'c2sc' Capitals to Small Capitals lookup 59 subtable" o.sc
Substitution2: "'sups' Superscript lookup 53 subtable" o.superior
Substitution2: "Single Substitution lookup 21 subtable" ordmasculine
AlternateSubs2: "'aalt' Access All Alternates lookup 1 subtable" ordmasculine o.superior o.sc O
EndChar

StartChar: p
Encoding: 112 112 323
Width: 544
GlyphClass: 1
Flags: W
LayerCount: 2
Fore
SplineSet
-50 -236 m 1,0,-1
 -50 -219 l 1,1,-1
 9 -188 l 1,2,-1
 112 393 l 1,3,-1
 45 428 l 1,4,-1
 45 440 l 1,5,-1
 233 477 l 1,6,-1
 237 477 l 1,7,-1
 237 366 l 1,8,-1
 243 366 l 1,9,10
 287 425 287 425 321 451 c 128,-1,11
 355 477 355 477 402 477 c 0,12,13
 448 477 448 477 477 438.5 c 128,-1,14
 506 400 506 400 506 329 c 0,15,16
 506 261 506 261 485 199.5 c 128,-1,17
 464 138 464 138 427 91 c 128,-1,18
 390 44 390 44 342 17 c 128,-1,19
 294 -10 294 -10 240 -10 c 0,20,21
 205 -10 205 -10 175 -2 c 1,22,-1
 143 -187 l 1,23,-1
 229 -219 l 1,24,-1
 229 -236 l 1,25,-1
 -50 -236 l 1,0,-1
326 383 m 256,26,27
 299 383 299 383 274 360.5 c 128,-1,28
 249 338 249 338 228 310 c 1,29,-1
 188 77 l 1,30,31
 198 57 198 57 212 45 c 128,-1,32
 226 33 226 33 248 33 c 0,33,34
 283 33 283 33 311.5 68 c 128,-1,35
 340 103 340 103 356.5 162.5 c 128,-1,36
 373 222 373 222 373 295 c 0,37,38
 373 336 373 336 363 359.5 c 128,-1,39
 353 383 353 383 326 383 c 256,26,27
EndSplineSet
Validated: 1
Substitution2: "'case' Case-Sensitive Forms lookup 61 subtable" P
Substitution2: "'smcp' Lowercase to Small Capitals lookup 60 subtable" p.sc
Substitution2: "'c2sc' Capitals to Small Capitals lookup 59 subtable" p.sc
Substitution2: "'sups' Superscript lookup 53 subtable" p.superior
AlternateSubs2: "'aalt' Access All Alternates lookup 1 subtable" p.superior p.sc P
EndChar

StartChar: q
Encoding: 113 113 324
Width: 529
GlyphClass: 1
Flags: W
LayerCount: 2
Fore
SplineSet
171 -236 m 1,0,-1
 171 -219 l 1,1,-1
 250 -188 l 1,2,-1
 301 96 l 1,3,-1
 295 96 l 1,4,5
 254 42 254 42 216.5 16 c 128,-1,6
 179 -10 179 -10 133 -10 c 0,7,8
 91 -10 91 -10 64.5 24 c 128,-1,9
 38 58 38 58 38 123 c 0,10,11
 38 197 38 197 63.5 261 c 128,-1,12
 89 325 89 325 132.5 373.5 c 128,-1,13
 176 422 176 422 229 449.5 c 128,-1,14
 282 477 282 477 336 477 c 0,15,16
 392 477 392 477 428 451 c 1,17,-1
 486 471 l 1,18,-1
 499 471 l 1,19,-1
 383 -187 l 1,20,-1
 452 -219 l 1,21,-1
 452 -236 l 1,22,-1
 171 -236 l 1,0,-1
174 178 m 0,23,24
 174 129 174 129 183.5 106.5 c 128,-1,25
 193 84 193 84 217 84 c 0,26,27
 243 84 243 84 267 105.5 c 128,-1,28
 291 127 291 127 311 157 c 1,29,-1
 355 404 l 1,30,31
 344 416 344 416 330 423.5 c 128,-1,32
 316 431 316 431 298 431 c 0,33,34
 261 431 261 431 233 395.5 c 128,-1,35
 205 360 205 360 189.5 303 c 128,-1,36
 174 246 174 246 174 178 c 0,23,24
EndSplineSet
Validated: 1
Substitution2: "'case' Case-Sensitive Forms lookup 61 subtable" Q
Substitution2: "'smcp' Lowercase to Small Capitals lookup 60 subtable" q.sc
Substitution2: "'c2sc' Capitals to Small Capitals lookup 59 subtable" q.sc
Substitution2: "'sups' Superscript lookup 53 subtable" q.superior
AlternateSubs2: "'aalt' Access All Alternates lookup 1 subtable" q.superior q.sc Q
EndChar

StartChar: r
Encoding: 114 114 325
Width: 391
GlyphClass: 2
Flags: W
AnchorPoint: "Anchor-3" 271 522 basechar 0
AnchorPoint: "Anchor-0" 103 0 basechar 0
LayerCount: 2
Fore
SplineSet
36 0 m 1,0,-1
 104 393 l 1,1,-1
 37 428 l 1,2,-1
 37 440 l 1,3,-1
 226 477 l 1,4,-1
 229 477 l 1,5,-1
 229 368 l 1,6,-1
 236 368 l 1,7,8
 268 414 268 414 287.5 437.5 c 128,-1,9
 307 461 307 461 323.5 469 c 128,-1,10
 340 477 340 477 358 477 c 0,11,12
 381 477 381 477 397.5 465.5 c 128,-1,13
 414 454 414 454 414 440 c 0,14,15
 414 431 414 431 409 421 c 2,16,-1
 375 349 l 1,17,-1
 305 384 l 1,18,19
 285 377 285 377 264.5 360.5 c 128,-1,20
 244 344 244 344 222 313 c 1,21,-1
 168 0 l 1,22,-1
 36 0 l 1,0,-1
EndSplineSet
Validated: 1
Substitution2: "'case' Case-Sensitive Forms lookup 61 subtable" R
Substitution2: "'smcp' Lowercase to Small Capitals lookup 60 subtable" r.sc
Substitution2: "'c2sc' Capitals to Small Capitals lookup 59 subtable" r.sc
Substitution2: "'sups' Superscript lookup 53 subtable" r.superior
AlternateSubs2: "'aalt' Access All Alternates lookup 1 subtable" r.superior r.sc R
EndChar

StartChar: s
Encoding: 115 115 326
Width: 390
GlyphClass: 2
Flags: W
AnchorPoint: "Anchor-3" 252 522 basechar 0
AnchorPoint: "Anchor-0" 154 0 basechar 0
LayerCount: 2
Fore
SplineSet
341 163 m 0,0,1
 341 120 341 120 316.5 80 c 128,-1,2
 292 40 292 40 246.5 15 c 128,-1,3
 201 -10 201 -10 138 -10 c 0,4,5
 104 -10 104 -10 76.5 0.5 c 128,-1,6
 49 11 49 11 32 27.5 c 128,-1,7
 15 44 15 44 15 61 c 0,8,9
 15 70 15 70 19 76.5 c 128,-1,10
 23 83 23 83 28 88 c 2,11,-1
 59 119 l 1,12,-1
 142 39 l 1,13,14
 150 38 150 38 159 38 c 0,15,16
 198 38 198 38 221 55 c 128,-1,17
 244 72 244 72 244 97 c 0,18,19
 244 113 244 113 237 126.5 c 128,-1,20
 230 140 230 140 210 155 c 128,-1,21
 190 170 190 170 152 193 c 0,22,23
 104 221 104 221 82 247 c 128,-1,24
 60 273 60 273 60 325 c 0,25,26
 60 360 60 360 88.5 395 c 128,-1,27
 117 430 117 430 163 453.5 c 128,-1,28
 209 477 209 477 262 477 c 0,29,30
 314 477 314 477 339.5 454 c 128,-1,31
 365 431 365 431 365 412 c 0,32,33
 365 401 365 401 353 391 c 2,34,-1
 316 357 l 1,35,-1
 238 435 l 1,36,37
 201 433 201 433 183 415.5 c 128,-1,38
 165 398 165 398 165 375 c 0,39,40
 165 355 165 355 179.5 337 c 128,-1,41
 194 319 194 319 246 291 c 0,42,43
 291 265 291 265 316 237.5 c 128,-1,44
 341 210 341 210 341 163 c 0,0,1
EndSplineSet
Validated: 1
Substitution2: "Single Substitution lookup 65 subtable" longs
Substitution2: "'case' Case-Sensitive Forms lookup 61 subtable" S
Substitution2: "'smcp' Lowercase to Small Capitals lookup 60 subtable" s.sc
Substitution2: "'c2sc' Capitals to Small Capitals lookup 59 subtable" s.sc
Substitution2: "'sups' Superscript lookup 53 subtable" s.superior
AlternateSubs2: "'aalt' Access All Alternates lookup 1 subtable" s.superior s.sc S longs
EndChar

StartChar: t
Encoding: 116 116 327
Width: 352
GlyphClass: 2
Flags: W
AnchorPoint: "Anchor-3" 234 625 basechar 0
AnchorPoint: "Anchor-2" 421 758 basechar 0
AnchorPoint: "Anchor-0" 146 0 basechar 0
LayerCount: 2
Fore
SplineSet
153 -10 m 0,0,1
 104 -10 104 -10 77 18.5 c 128,-1,2
 50 47 50 47 50 102 c 0,3,4
 50 113 50 113 51 125.5 c 128,-1,5
 52 138 52 138 54 151 c 2,6,-1
 102 422 l 1,7,-1
 36 422 l 1,8,-1
 39 436 l 1,9,-1
 148 487 l 1,10,-1
 242 575 l 1,11,-1
 260 575 l 1,12,-1
 242 467 l 1,13,-1
 366 467 l 1,14,-1
 366 422 l 1,15,-1
 233 422 l 1,16,-1
 191 183 l 2,17,18
 188 166 188 166 187 156.5 c 128,-1,19
 186 147 186 147 186 140 c 0,20,21
 186 94 186 94 222 94 c 0,22,23
 246 94 246 94 270 116 c 128,-1,24
 294 138 294 138 314 188 c 1,25,-1
 334 181 l 1,26,27
 303 88 303 88 257 39 c 128,-1,28
 211 -10 211 -10 153 -10 c 0,0,1
EndSplineSet
Validated: 1
Substitution2: "'case' Case-Sensitive Forms lookup 61 subtable" T
Substitution2: "'smcp' Lowercase to Small Capitals lookup 60 subtable" t.sc
Substitution2: "'c2sc' Capitals to Small Capitals lookup 59 subtable" t.sc
Substitution2: "'sups' Superscript lookup 53 subtable" t.superior
AlternateSubs2: "'aalt' Access All Alternates lookup 1 subtable" t.superior t.sc T
EndChar

StartChar: u
Encoding: 117 117 328
Width: 565
GlyphClass: 2
Flags: W
AnchorPoint: "Anchor-3" 327 522 basechar 0
AnchorPoint: "Anchor-2" 459 0 basechar 0
AnchorPoint: "Anchor-0" 234 0 basechar 0
LayerCount: 2
Fore
SplineSet
156 -10 m 0,0,1
 113 -10 113 -10 85.5 20 c 128,-1,2
 58 50 58 50 58 102 c 0,3,4
 58 111 58 111 59 121 c 128,-1,5
 60 131 60 131 62 141 c 2,6,-1
 106 393 l 1,7,-1
 39 428 l 1,8,-1
 39 440 l 1,9,-1
 248 477 l 1,10,-1
 252 477 l 1,11,-1
 197 162 l 2,12,13
 193 138 193 138 193 126 c 0,14,15
 193 106 193 106 203 91 c 128,-1,16
 213 76 213 76 237 76 c 0,17,18
 260 76 260 76 281.5 94 c 128,-1,19
 303 112 303 112 323 132 c 1,20,-1
 368 393 l 1,21,-1
 311 428 l 1,22,-1
 311 440 l 1,23,-1
 510 477 l 1,24,-1
 513 477 l 1,25,-1
 452 129 l 2,26,27
 450 118 450 118 450 109 c 0,28,29
 450 81 450 81 470 81 c 0,30,31
 485 81 485 81 502.5 98 c 128,-1,32
 520 115 520 115 539 155 c 1,33,-1
 557 148 l 1,34,35
 528 72 528 72 491.5 31 c 128,-1,36
 455 -10 455 -10 406 -10 c 0,37,38
 363 -10 363 -10 340 16 c 0,39,40
 318 40 318 40 318 85 c 0,41,42
 318 87 318 87 318 89 c 1,43,-1
 315 89 l 1,44,45
 282 53 282 53 258 31 c 128,-1,46
 234 9 234 9 211 -0.5 c 128,-1,47
 188 -10 188 -10 156 -10 c 0,0,1
EndSplineSet
Validated: 1
Substitution2: "'case' Case-Sensitive Forms lookup 61 subtable" U
Substitution2: "'smcp' Lowercase to Small Capitals lookup 60 subtable" u.sc
Substitution2: "'c2sc' Capitals to Small Capitals lookup 59 subtable" u.sc
Substitution2: "'sups' Superscript lookup 53 subtable" u.superior
AlternateSubs2: "'aalt' Access All Alternates lookup 1 subtable" u.superior u.sc U
EndChar

StartChar: v
Encoding: 118 118 329
Width: 472
GlyphClass: 1
Flags: W
LayerCount: 2
Fore
SplineSet
187 0 m 1,0,-1
 83 400 l 1,1,-1
 12 428 l 1,2,-1
 12 440 l 1,3,-1
 200 477 l 1,4,-1
 203 477 l 1,5,-1
 287 148 l 1,6,-1
 293 148 l 1,7,-1
 334 212 l 2,8,9
 359 248 359 248 373.5 282.5 c 128,-1,10
 388 317 388 317 392 351 c 1,11,-1
 330 404 l 1,12,-1
 365 455 l 2,13,14
 375 468 375 468 382 472.5 c 128,-1,15
 389 477 389 477 400 477 c 0,16,17
 416 477 416 477 432.5 464.5 c 128,-1,18
 449 452 449 452 459 432.5 c 128,-1,19
 469 413 469 413 469 391 c 0,20,21
 469 359 469 359 453.5 326 c 128,-1,22
 438 293 438 293 396 236 c 2,23,-1
 227 0 l 1,24,-1
 187 0 l 1,0,-1
EndSplineSet
Validated: 1
Substitution2: "'case' Case-Sensitive Forms lookup 61 subtable" V
Substitution2: "'smcp' Lowercase to Small Capitals lookup 60 subtable" v.sc
Substitution2: "'c2sc' Capitals to Small Capitals lookup 59 subtable" v.sc
Substitution2: "'sups' Superscript lookup 53 subtable" v.superior
AlternateSubs2: "'aalt' Access All Alternates lookup 1 subtable" v.superior v.sc V
EndChar

StartChar: w
Encoding: 119 119 330
Width: 693
GlyphClass: 2
Flags: W
AnchorPoint: "Anchor-3" 429 522 basechar 0
LayerCount: 2
Fore
SplineSet
171 0 m 1,0,-1
 82 400 l 1,1,-1
 12 428 l 1,2,-1
 12 440 l 1,3,-1
 200 477 l 1,4,-1
 203 477 l 1,5,-1
 263 178 l 1,6,-1
 268 178 l 1,7,-1
 407 467 l 1,8,-1
 443 467 l 1,9,-1
 527 163 l 1,10,-1
 534 163 l 1,11,-1
 567 227 l 2,12,13
 584 261 584 261 596 291 c 128,-1,14
 608 321 608 321 612 351 c 1,15,-1
 550 404 l 1,16,-1
 585 455 l 2,17,18
 595 468 595 468 602 472.5 c 128,-1,19
 609 477 609 477 621 477 c 0,20,21
 637 477 637 477 653 464.5 c 128,-1,22
 669 452 669 452 679 432.5 c 128,-1,23
 689 413 689 413 689 391 c 0,24,25
 689 373 689 373 683.5 355.5 c 128,-1,26
 678 338 678 338 662.5 310.5 c 128,-1,27
 647 283 647 283 618 236 c 2,28,-1
 475 0 l 1,29,-1
 436 0 l 1,30,-1
 357 270 l 1,31,-1
 210 0 l 1,32,-1
 171 0 l 1,0,-1
EndSplineSet
Validated: 1
Substitution2: "'case' Case-Sensitive Forms lookup 61 subtable" W
Substitution2: "'smcp' Lowercase to Small Capitals lookup 60 subtable" w.sc
Substitution2: "'c2sc' Capitals to Small Capitals lookup 59 subtable" w.sc
Substitution2: "'sups' Superscript lookup 53 subtable" w.superior
AlternateSubs2: "'aalt' Access All Alternates lookup 1 subtable" w.superior w.sc W
EndChar

StartChar: x
Encoding: 120 120 331
Width: 495
GlyphClass: 1
Flags: W
LayerCount: 2
Fore
SplineSet
-11 0 m 1,0,1
 -11 12 -11 12 -1.5 25.5 c 128,-1,2
 8 39 8 39 30 61 c 128,-1,3
 52 83 52 83 90 121.5 c 128,-1,4
 128 160 128 160 186 224 c 1,5,-1
 117 398 l 1,6,-1
 48 428 l 1,7,-1
 48 440 l 1,8,-1
 227 477 l 1,9,-1
 229 477 l 1,10,-1
 300 299 l 1,11,12
 336 345 336 345 355.5 373 c 128,-1,13
 375 401 375 401 384 418 c 128,-1,14
 393 435 393 435 397.5 446 c 128,-1,15
 402 457 402 457 407 467 c 1,16,-1
 485 467 l 1,17,18
 484 456 484 456 476 444 c 128,-1,19
 468 432 468 432 449.5 412.5 c 128,-1,20
 431 393 431 393 398 358.5 c 128,-1,21
 365 324 365 324 312 267 c 1,22,-1
 389 73 l 1,23,-1
 459 43 l 1,24,-1
 459 31 l 1,25,-1
 282 -6 l 1,26,-1
 279 -6 l 1,27,-1
 200 190 l 1,28,29
 158 137 158 137 134 105 c 128,-1,30
 110 73 110 73 98.5 54 c 128,-1,31
 87 35 87 35 82 23.5 c 128,-1,32
 77 12 77 12 71 0 c 1,33,-1
 -11 0 l 1,0,1
EndSplineSet
Validated: 1
Substitution2: "'case' Case-Sensitive Forms lookup 61 subtable" X
Substitution2: "'smcp' Lowercase to Small Capitals lookup 60 subtable" x.sc
Substitution2: "'c2sc' Capitals to Small Capitals lookup 59 subtable" x.sc
Substitution2: "'sups' Superscript lookup 53 subtable" x.superior
AlternateSubs2: "'aalt' Access All Alternates lookup 1 subtable" x.superior x.sc X
EndChar

StartChar: y
Encoding: 121 121 332
Width: 476
GlyphClass: 2
Flags: W
AnchorPoint: "Anchor-3" 313 522 basechar 0
AnchorPoint: "Anchor-0" 293 -17 basechar 0
LayerCount: 2
Fore
SplineSet
339 211 m 2,0,1
 362 246 362 246 376.5 280 c 128,-1,2
 391 314 391 314 395 351 c 1,3,-1
 332 404 l 1,4,-1
 368 455 l 2,5,6
 377 468 377 468 384.5 472.5 c 128,-1,7
 392 477 392 477 402 477 c 0,8,9
 418 477 418 477 434.5 464.5 c 128,-1,10
 451 452 451 452 461 432.5 c 128,-1,11
 471 413 471 413 471 391 c 0,12,13
 471 372 471 372 465 353 c 128,-1,14
 459 334 459 334 443 306.5 c 128,-1,15
 427 279 427 279 399 236 c 2,16,-1
 163 -130 l 2,17,18
 123 -190 123 -190 87 -217.5 c 128,-1,19
 51 -245 51 -245 18 -245 c 0,20,21
 -7 -245 -7 -245 -20.5 -231.5 c 128,-1,22
 -34 -218 -34 -218 -34 -193 c 0,23,24
 -34 -161 -34 -161 -8 -129 c 1,25,-1
 87 -146 l 1,26,27
 103 -137 103 -137 116 -125 c 128,-1,28
 129 -113 129 -113 143.5 -93 c 128,-1,29
 158 -73 158 -73 179 -39 c 2,30,-1
 194 -16 l 1,31,-1
 84 398 l 1,32,-1
 13 428 l 1,33,-1
 13 440 l 1,34,-1
 197 477 l 1,35,-1
 200 477 l 1,36,-1
 287 138 l 1,37,-1
 293 138 l 1,38,-1
 339 211 l 2,0,1
EndSplineSet
Validated: 1
Substitution2: "'case' Case-Sensitive Forms lookup 61 subtable" Y
Substitution2: "'smcp' Lowercase to Small Capitals lookup 60 subtable" y.sc
Substitution2: "'c2sc' Capitals to Small Capitals lookup 59 subtable" y.sc
Substitution2: "'sups' Superscript lookup 53 subtable" y.superior
AlternateSubs2: "'aalt' Access All Alternates lookup 1 subtable" y.superior y.sc Y
EndChar

StartChar: z
Encoding: 122 122 333
Width: 452
GlyphClass: 2
Flags: W
AnchorPoint: "Anchor-3" 268 522 basechar 0
AnchorPoint: "Anchor-0" 177 0 basechar 0
LayerCount: 2
Fore
SplineSet
20 0 m 1,0,-1
 8 18 l 1,1,-1
 291 359 l 1,2,-1
 118 359 l 1,3,-1
 79 286 l 1,4,-1
 62 286 l 1,5,-1
 92 467 l 1,6,-1
 411 467 l 1,7,-1
 419 445 l 1,8,-1
 138 108 l 1,9,-1
 326 108 l 1,10,-1
 381 197 l 1,11,-1
 397 197 l 1,12,-1
 359 0 l 1,13,-1
 20 0 l 1,0,-1
EndSplineSet
Validated: 1
Substitution2: "'case' Case-Sensitive Forms lookup 61 subtable" Z
Substitution2: "'smcp' Lowercase to Small Capitals lookup 60 subtable" z.sc
Substitution2: "'c2sc' Capitals to Small Capitals lookup 59 subtable" z.sc
Substitution2: "'sups' Superscript lookup 53 subtable" z.superior
AlternateSubs2: "'aalt' Access All Alternates lookup 1 subtable" z.superior z.sc Z
EndChar

StartChar: aogonek
Encoding: 261 261 344
Width: 552
GlyphClass: 1
Flags: W
LayerCount: 2
Fore
SplineSet
304 86 m 0,0,1
 304 101 304 101 305 110 c 1,2,3
 260 49 260 49 220.5 19.5 c 128,-1,4
 181 -10 181 -10 133 -10 c 0,5,6
 91 -10 91 -10 64.5 24 c 128,-1,7
 38 58 38 58 38 123 c 0,8,9
 38 197 38 197 63.5 261 c 128,-1,10
 89 325 89 325 132.5 373.5 c 128,-1,11
 176 422 176 422 229 449.5 c 128,-1,12
 282 477 282 477 336 477 c 0,13,14
 391 477 391 477 427 451 c 1,15,16
 427 451 427 451 478 471 c 1,17,-1
 499 471 l 1,18,-1
 438 129 l 2,19,20
 436 118 436 118 436 109 c 0,21,22
 436 81 436 81 456 81 c 0,23,24
 471 81 471 81 488.5 98 c 128,-1,25
 506 115 506 115 524 155 c 1,26,27
 543 148 543 148 543 148 c 1,28,29
 530 111 530 111 511.5 82.5 c 128,-1,30
 493 54 493 54 474 32 c 0,31,32
 441 -9 441 -9 419.5 -52.5 c 128,-1,33
 398 -96 398 -96 398 -137 c 0,34,35
 398 -192 398 -192 455 -193 c 0,36,37
 465 -193 465 -193 477.5 -188.5 c 128,-1,38
 490 -184 490 -184 501 -176 c 1,39,40
 501 -176 501 -176 504 -176 c 1,41,-1
 500 -196 l 1,42,43
 485 -220 485 -220 461 -233 c 128,-1,44
 437 -246 437 -246 406 -246 c 0,45,46
 364 -246 364 -246 340 -224 c 128,-1,47
 316 -202 316 -202 316 -164 c 0,48,49
 316 -123 316 -123 341 -86 c 128,-1,50
 366 -49 366 -49 408 -9 c 1,51,52
 400 -10 400 -10 391 -10 c 0,53,54
 344 -10 344 -10 322 20 c 0,55,56
 308 39 308 39 304 86 c 0,0,1
174 178 m 0,57,58
 174 129 174 129 183.5 106.5 c 128,-1,59
 193 84 193 84 217 84 c 0,60,61
 243 84 243 84 267.5 106.5 c 128,-1,62
 292 129 292 129 313 159 c 1,63,-1
 355 404 l 1,64,65
 344 416 344 416 330.5 423 c 128,-1,66
 317 430 317 430 299 430 c 0,67,68
 262 430 262 430 234 394.5 c 128,-1,69
 206 359 206 359 190 301.5 c 128,-1,70
 174 244 174 244 174 178 c 0,57,58
EndSplineSet
Validated: 1
Substitution2: "'case' Case-Sensitive Forms lookup 61 subtable" Aogonek
Substitution2: "'smcp' Lowercase to Small Capitals lookup 60 subtable" aogonek.sc
Substitution2: "'c2sc' Capitals to Small Capitals lookup 59 subtable" aogonek.sc
AlternateSubs2: "'aalt' Access All Alternates lookup 1 subtable" aogonek.sc Aogonek
EndChar

StartChar: ae
Encoding: 230 230 358
Width: 733
GlyphClass: 2
Flags: W
AnchorPoint: "Anchor-3" 449 522 basechar 0
LayerCount: 2
Fore
SplineSet
133 -10 m 0,0,1
 91 -10 91 -10 64.5 24 c 128,-1,2
 38 58 38 58 38 123 c 0,3,4
 38 197 38 197 63.5 261 c 128,-1,5
 89 325 89 325 132.5 373.5 c 128,-1,6
 176 422 176 422 229 449.5 c 128,-1,7
 282 477 282 477 336 477 c 0,8,9
 413 477 413 477 463 435 c 1,10,11
 494 454 494 454 529 465.5 c 128,-1,12
 564 477 564 477 603 477 c 0,13,14
 656 477 656 477 683.5 452.5 c 128,-1,15
 711 428 711 428 711 395 c 0,16,17
 711 365 711 365 689 339 c 128,-1,18
 667 313 667 313 610.5 289 c 128,-1,19
 554 265 554 265 452 243 c 1,20,21
 451 230 451 230 451 216 c 0,22,23
 451 164 451 164 478 130 c 128,-1,24
 505 96 505 96 553 96 c 0,25,26
 585 96 585 96 614 111 c 128,-1,27
 643 126 643 126 677 158 c 1,28,-1
 680 158 l 1,29,-1
 695 143 l 1,30,31
 672 104 672 104 640.5 69 c 128,-1,32
 609 34 609 34 568.5 12 c 128,-1,33
 528 -10 528 -10 481 -10 c 0,34,35
 409 -10 409 -10 370 25 c 128,-1,36
 331 60 331 60 322 122 c 1,37,-1
 316 122 l 1,38,39
 265 51 265 51 223.5 20.5 c 128,-1,40
 182 -10 182 -10 133 -10 c 0,0,1
569 435 m 0,41,42
 529 435 529 435 498 391.5 c 128,-1,43
 467 348 467 348 456 281 c 1,44,45
 543 304 543 304 575.5 332.5 c 128,-1,46
 608 361 608 361 608 397 c 0,47,48
 608 412 608 412 599.5 423.5 c 128,-1,49
 591 435 591 435 569 435 c 0,41,42
217 84 m 0,50,51
 243 84 243 84 267.5 106.5 c 128,-1,52
 292 129 292 129 318 166 c 0,53,54
 318 168 318 168 318 172 c 0,55,56
 318 225 318 225 339.5 280 c 128,-1,57
 361 335 361 335 398 377 c 1,58,59
 378 404 378 404 356.5 417 c 128,-1,60
 335 430 335 430 309 430 c 0,61,62
 265 430 265 430 235 394.5 c 128,-1,63
 205 359 205 359 189.5 301.5 c 128,-1,64
 174 244 174 244 174 178 c 0,65,66
 174 129 174 129 183 106.5 c 128,-1,67
 192 84 192 84 217 84 c 0,50,51
EndSplineSet
Validated: 1
Substitution2: "'case' Case-Sensitive Forms lookup 61 subtable" AE
Substitution2: "'smcp' Lowercase to Small Capitals lookup 60 subtable" ae.sc
Substitution2: "'c2sc' Capitals to Small Capitals lookup 59 subtable" ae.sc
AlternateSubs2: "'aalt' Access All Alternates lookup 1 subtable" ae.sc AE
EndChar

StartChar: ccedilla
Encoding: 231 231 364
Width: 450
GlyphClass: 1
Flags: W
LayerCount: 2
Fore
SplineSet
165 -246 m 0,0,1
 139 -246 139 -246 119.5 -239 c 128,-1,2
 100 -232 100 -232 88 -222 c 1,3,-1
 91 -204 l 1,4,-1
 95 -204 l 1,5,6
 118 -215 118 -215 150 -215 c 0,7,8
 179 -215 179 -215 195 -203 c 128,-1,9
 211 -191 211 -191 211 -170 c 0,10,11
 211 -150 211 -150 191.5 -133.5 c 128,-1,12
 172 -117 172 -117 122 -104 c 1,13,-1
 179 -9 l 1,14,15
 106 -3 106 -3 71 43.5 c 128,-1,16
 36 90 36 90 36 170 c 0,17,18
 36 228 36 228 59 283 c 128,-1,19
 82 338 82 338 121.5 382 c 128,-1,20
 161 426 161 426 211.5 451.5 c 128,-1,21
 262 477 262 477 318 477 c 0,22,23
 358 477 358 477 385 461.5 c 128,-1,24
 412 446 412 446 425.5 425 c 128,-1,25
 439 404 439 404 439 388 c 0,26,27
 439 369 439 369 424 360 c 2,28,-1
 373 330 l 1,29,-1
 310 434 l 1,30,-1
 305 434 l 2,31,32
 272 434 272 434 240.5 407.5 c 128,-1,33
 209 381 209 381 188 334 c 128,-1,34
 167 287 167 287 167 225 c 0,35,36
 167 162 167 162 195 129 c 128,-1,37
 223 96 223 96 268 96 c 0,38,39
 297 96 297 96 326.5 110.5 c 128,-1,40
 356 125 356 125 395 165 c 1,41,-1
 398 165 l 1,42,-1
 414 151 l 1,43,44
 377 86 377 86 327.5 40.5 c 128,-1,45
 278 -5 278 -5 213 -10 c 1,46,-1
 190 -49 l 1,47,48
 239 -63 239 -63 260.5 -87.5 c 128,-1,49
 282 -112 282 -112 282 -145 c 0,50,51
 282 -188 282 -188 249.5 -217 c 128,-1,52
 217 -246 217 -246 165 -246 c 0,0,1
EndSplineSet
Validated: 1
Substitution2: "'case' Case-Sensitive Forms lookup 61 subtable" Ccedilla
Substitution2: "'smcp' Lowercase to Small Capitals lookup 60 subtable" ccedilla.sc
Substitution2: "'c2sc' Capitals to Small Capitals lookup 59 subtable" ccedilla.sc
AlternateSubs2: "'aalt' Access All Alternates lookup 1 subtable" ccedilla.sc Ccedilla
EndChar

StartChar: ccedillaacute
Encoding: 7689 7689 365
Width: 450
GlyphClass: 1
Flags: W
LayerCount: 2
Fore
SplineSet
307 543 m 1,0,-1
 404 724 l 1,1,-1
 524 724 l 1,2,-1
 523 702 l 1,3,-1
 327 543 l 1,4,-1
 307 543 l 1,0,-1
165 -246 m 0,5,6
 139 -246 139 -246 119.5 -239 c 128,-1,7
 100 -232 100 -232 88 -222 c 1,8,-1
 91 -204 l 1,9,-1
 95 -204 l 1,10,11
 118 -215 118 -215 150 -215 c 0,12,13
 179 -215 179 -215 195 -203 c 128,-1,14
 211 -191 211 -191 211 -170 c 0,15,16
 211 -150 211 -150 191.5 -133.5 c 128,-1,17
 172 -117 172 -117 122 -104 c 1,18,-1
 179 -9 l 1,19,20
 106 -3 106 -3 71 43.5 c 128,-1,21
 36 90 36 90 36 170 c 0,22,23
 36 228 36 228 59 283 c 128,-1,24
 82 338 82 338 121.5 382 c 128,-1,25
 161 426 161 426 211.5 451.5 c 128,-1,26
 262 477 262 477 318 477 c 0,27,28
 358 477 358 477 385 461.5 c 128,-1,29
 412 446 412 446 425.5 425 c 128,-1,30
 439 404 439 404 439 388 c 0,31,32
 439 369 439 369 424 360 c 2,33,-1
 373 330 l 1,34,-1
 310 434 l 1,35,-1
 305 434 l 2,36,37
 272 434 272 434 240.5 407.5 c 128,-1,38
 209 381 209 381 188 334 c 128,-1,39
 167 287 167 287 167 225 c 0,40,41
 167 162 167 162 195 129 c 128,-1,42
 223 96 223 96 268 96 c 0,43,44
 297 96 297 96 326.5 110.5 c 128,-1,45
 356 125 356 125 395 165 c 1,46,-1
 398 165 l 1,47,-1
 414 151 l 1,48,49
 377 86 377 86 327.5 40.5 c 128,-1,50
 278 -5 278 -5 213 -10 c 1,51,-1
 190 -49 l 1,52,53
 239 -63 239 -63 260.5 -87.5 c 128,-1,54
 282 -112 282 -112 282 -145 c 0,55,56
 282 -188 282 -188 249.5 -217 c 128,-1,57
 217 -246 217 -246 165 -246 c 0,5,6
EndSplineSet
Validated: 1
Substitution2: "'case' Case-Sensitive Forms lookup 61 subtable" Ccedillaacute
Substitution2: "'smcp' Lowercase to Small Capitals lookup 60 subtable" ccedillaacute.sc
Substitution2: "'c2sc' Capitals to Small Capitals lookup 59 subtable" ccedillaacute.sc
AlternateSubs2: "'aalt' Access All Alternates lookup 1 subtable" ccedillaacute.sc Ccedillaacute
EndChar

StartChar: dcroat
Encoding: 273 273 367
Width: 558
GlyphClass: 1
Flags: W
LayerCount: 2
Fore
SplineSet
134 -10 m 0,0,1
 92 -10 92 -10 65.5 24 c 128,-1,2
 39 58 39 58 39 123 c 0,3,4
 39 197 39 197 64.5 261 c 128,-1,5
 90 325 90 325 133.5 373.5 c 128,-1,6
 177 422 177 422 230 449.5 c 128,-1,7
 283 477 283 477 337 477 c 0,8,9
 353 477 353 477 369 475 c 1,10,-1
 382 553 l 1,11,-1
 254 553 l 1,12,-1
 263 598 l 1,13,-1
 390 598 l 1,14,-1
 406 685 l 1,15,-1
 322 719 l 1,16,-1
 322 731 l 1,17,-1
 549 768 l 1,18,-1
 552 768 l 1,19,-1
 522 598 l 1,20,-1
 594 598 l 1,21,-1
 585 553 l 1,22,-1
 514 553 l 1,23,-1
 440 129 l 2,24,25
 438 117 438 117 438 107 c 0,26,27
 438 81 438 81 457 81 c 0,28,29
 472 81 472 81 489.5 98 c 128,-1,30
 507 115 507 115 525 155 c 1,31,-1
 544 148 l 1,32,33
 515 72 515 72 478 31 c 128,-1,34
 441 -10 441 -10 392 -10 c 0,35,36
 346 -10 346 -10 324 19 c 0,37,38
 306 43 306 43 305 85 c 0,39,40
 305 94 305 94 306 104 c 1,41,-1
 303 104 l 1,42,43
 257 43 257 43 219 16.5 c 128,-1,44
 181 -10 181 -10 134 -10 c 0,0,1
175 178 m 0,45,46
 175 126 175 126 185.5 105 c 128,-1,47
 196 84 196 84 218 84 c 0,48,49
 242 84 242 84 266 104 c 128,-1,50
 290 124 290 124 314 158 c 1,51,-1
 356 404 l 1,52,53
 346 416 346 416 332.5 423.5 c 128,-1,54
 319 431 319 431 300 431 c 0,55,56
 264 431 264 431 236 396 c 128,-1,57
 208 361 208 361 191.5 303.5 c 128,-1,58
 175 246 175 246 175 178 c 0,45,46
EndSplineSet
Validated: 1
Substitution2: "'case' Case-Sensitive Forms lookup 61 subtable" Dcroat
Substitution2: "'smcp' Lowercase to Small Capitals lookup 60 subtable" dcroat.sc
Substitution2: "'c2sc' Capitals to Small Capitals lookup 59 subtable" dcroat.sc
AlternateSubs2: "'aalt' Access All Alternates lookup 1 subtable" dcroat.sc Dcroat
EndChar

StartChar: eogonek
Encoding: 281 281 379
Width: 449
GlyphClass: 1
Flags: W
LayerCount: 2
Fore
SplineSet
199 -10 m 0,0,1
 115 -10 115 -10 75.5 37.5 c 128,-1,2
 36 85 36 85 36 166 c 0,3,4
 36 223 36 223 57 278.5 c 128,-1,5
 78 334 78 334 116 379 c 128,-1,6
 154 424 154 424 206 450.5 c 128,-1,7
 258 477 258 477 319 477 c 0,8,9
 372 477 372 477 400 453 c 128,-1,10
 428 429 428 429 428 395 c 0,11,12
 428 365 428 365 405.5 339 c 128,-1,13
 383 313 383 313 327 289 c 128,-1,14
 271 265 271 265 169 243 c 1,15,16
 168 230 168 230 168 216 c 0,17,18
 168 161 168 161 196 128.5 c 128,-1,19
 224 96 224 96 270 96 c 0,20,21
 302 96 302 96 330.5 111 c 128,-1,22
 359 126 359 126 394 158 c 1,23,-1
 397 158 l 1,24,-1
 413 143 l 1,25,26
 395 110 395 110 367 80 c 128,-1,27
 339 50 339 50 312 27 c 1,28,29
 280 -11 280 -11 260.5 -54.5 c 128,-1,30
 241 -98 241 -98 241 -137 c 0,31,32
 241 -192 241 -192 296 -193 c 0,33,34
 307 -193 307 -193 319.5 -188.5 c 128,-1,35
 332 -184 332 -184 342 -176 c 1,36,-1
 346 -176 l 1,37,-1
 341 -196 l 1,38,39
 326 -220 326 -220 302.5 -233 c 128,-1,40
 279 -246 279 -246 248 -246 c 0,41,42
 206 -246 206 -246 182 -224 c 128,-1,43
 158 -202 158 -202 158 -164 c 0,44,45
 158 -122 158 -122 185.5 -83 c 128,-1,46
 213 -44 213 -44 255 -2 c 1,47,48
 239 -6 239 -6 225 -8 c 128,-1,49
 211 -10 211 -10 199 -10 c 0,0,1
286 435 m 0,50,51
 248 435 248 435 216 392 c 128,-1,52
 184 349 184 349 173 281 c 1,53,54
 259 304 259 304 292.5 332.5 c 128,-1,55
 326 361 326 361 326 397 c 0,56,57
 326 412 326 412 317 423.5 c 128,-1,58
 308 435 308 435 286 435 c 0,50,51
EndSplineSet
Validated: 1
Substitution2: "'case' Case-Sensitive Forms lookup 61 subtable" Eogonek
Substitution2: "'smcp' Lowercase to Small Capitals lookup 60 subtable" eogonek.sc
Substitution2: "'c2sc' Capitals to Small Capitals lookup 59 subtable" eogonek.sc
AlternateSubs2: "'aalt' Access All Alternates lookup 1 subtable" eogonek.sc Eogonek
EndChar

StartChar: ecedillabreve
Encoding: 7709 7709 391
Width: 449
GlyphClass: 1
Flags: W
LayerCount: 2
Fore
SplineSet
330 553 m 0,0,1
 257 553 257 553 229 596.5 c 128,-1,2
 201 640 201 640 198 724 c 1,3,-1
 217 724 l 1,4,5
 227 682 227 682 243 661 c 128,-1,6
 259 640 259 640 283 633.5 c 128,-1,7
 307 627 307 627 341 627 c 0,8,9
 374 627 374 627 400.5 633.5 c 128,-1,10
 427 640 427 640 450.5 661 c 128,-1,11
 474 682 474 682 497 724 c 1,12,-1
 516 724 l 1,13,14
 483 633 483 633 440 593 c 128,-1,15
 397 553 397 553 330 553 c 0,0,1
169 -246 m 0,16,17
 143 -246 143 -246 123.5 -239 c 128,-1,18
 104 -232 104 -232 92 -222 c 1,19,-1
 95 -204 l 1,20,-1
 99 -204 l 1,21,22
 122 -215 122 -215 155 -215 c 0,23,24
 183 -215 183 -215 199 -203 c 128,-1,25
 215 -191 215 -191 215 -170 c 0,26,27
 215 -150 215 -150 195.5 -133.5 c 128,-1,28
 176 -117 176 -117 126 -104 c 1,29,-1
 183 -10 l 1,30,31
 107 -5 107 -5 71.5 41.5 c 128,-1,32
 36 88 36 88 36 166 c 0,33,34
 36 223 36 223 57 278.5 c 128,-1,35
 78 334 78 334 116 379 c 128,-1,36
 154 424 154 424 206 450.5 c 128,-1,37
 258 477 258 477 319 477 c 0,38,39
 372 477 372 477 400 453 c 128,-1,40
 428 429 428 429 428 395 c 0,41,42
 428 365 428 365 405.5 339 c 128,-1,43
 383 313 383 313 327 289 c 128,-1,44
 271 265 271 265 169 243 c 1,45,46
 168 230 168 230 168 216 c 0,47,48
 168 161 168 161 196 128.5 c 128,-1,49
 224 96 224 96 270 96 c 0,50,51
 302 96 302 96 330.5 111 c 128,-1,52
 359 126 359 126 394 158 c 1,53,-1
 397 158 l 1,54,-1
 413 143 l 1,55,56
 381 86 381 86 331 42 c 128,-1,57
 281 -2 281 -2 218 -9 c 1,58,-1
 195 -49 l 1,59,60
 244 -63 244 -63 265 -87.5 c 128,-1,61
 286 -112 286 -112 286 -145 c 0,62,63
 286 -188 286 -188 253.5 -217 c 128,-1,64
 221 -246 221 -246 169 -246 c 0,16,17
286 435 m 0,65,66
 248 435 248 435 216 392 c 128,-1,67
 184 349 184 349 173 281 c 1,68,69
 259 304 259 304 292.5 332.5 c 128,-1,70
 326 361 326 361 326 397 c 0,71,72
 326 412 326 412 317 423.5 c 128,-1,73
 308 435 308 435 286 435 c 0,65,66
EndSplineSet
Validated: 1
Substitution2: "'case' Case-Sensitive Forms lookup 61 subtable" Ecedillabreve
Substitution2: "'smcp' Lowercase to Small Capitals lookup 60 subtable" ecedillabreve.sc
Substitution2: "'c2sc' Capitals to Small Capitals lookup 59 subtable" ecedillabreve.sc
AlternateSubs2: "'aalt' Access All Alternates lookup 1 subtable" ecedillabreve.sc Ecedillabreve
EndChar

StartChar: hbar
Encoding: 295 295 399
Width: 565
GlyphClass: 1
Flags: W
LayerCount: 2
Fore
SplineSet
25 0 m 1,0,-1
 119 538 l 1,1,-1
 38 538 l 1,2,-1
 47 584 l 1,3,-1
 127 584 l 1,4,-1
 144 684 l 1,5,-1
 70 718 l 1,6,-1
 70 731 l 1,7,-1
 288 768 l 1,8,-1
 291 768 l 1,9,-1
 258 584 l 1,10,-1
 410 584 l 1,11,-1
 400 538 l 1,12,-1
 250 538 l 1,13,-1
 222 380 l 1,14,-1
 227 380 l 1,15,16
 260 416 260 416 284 437.5 c 128,-1,17
 308 459 308 459 332 468 c 128,-1,18
 356 477 356 477 388 477 c 0,19,20
 441 477 441 477 470 436 c 0,21,22
 490 408 490 408 490 366 c 0,23,24
 490 347 490 347 486 326 c 2,25,-1
 452 129 l 2,26,27
 450 117 450 117 450 109 c 0,28,29
 450 81 450 81 469 81 c 0,30,31
 484 81 484 81 501 98 c 128,-1,32
 518 115 518 115 537 155 c 1,33,-1
 556 148 l 1,34,35
 527 72 527 72 490.5 31 c 128,-1,36
 454 -10 454 -10 404 -10 c 0,37,38
 352 -10 352 -10 330 26 c 0,39,40
 316 48 316 48 316 84 c 0,41,42
 316 105 316 105 321 129 c 2,43,-1
 354 322 l 2,44,45
 355 331 355 331 355 339 c 0,46,47
 355 356 355 356 349 370 c 0,48,49
 340 390 340 390 308 391 c 0,50,51
 283 391 283 391 258.5 372 c 128,-1,52
 234 353 234 353 214 331 c 1,53,-1
 157 0 l 1,54,-1
 25 0 l 1,0,-1
EndSplineSet
Validated: 1
Substitution2: "'case' Case-Sensitive Forms lookup 61 subtable" Hbar
Substitution2: "'smcp' Lowercase to Small Capitals lookup 60 subtable" hbar.sc
Substitution2: "'c2sc' Capitals to Small Capitals lookup 59 subtable" hbar.sc
AlternateSubs2: "'aalt' Access All Alternates lookup 1 subtable" hbar.sc Hbar
EndChar

StartChar: iogonek
Encoding: 303 303 410
Width: 308
GlyphClass: 1
Flags: W
LayerCount: 2
Fore
SplineSet
210 582 m 256,0,1
 179 582 179 582 158.5 602.5 c 128,-1,2
 138 623 138 623 138 653 c 256,3,4
 138 684 138 684 158.5 704.5 c 128,-1,5
 179 725 179 725 210 725 c 256,6,7
 241 725 241 725 261.5 704.5 c 128,-1,8
 282 684 282 684 282 653 c 256,9,10
 282 622 282 622 261.5 602 c 128,-1,11
 241 582 241 582 210 582 c 256,0,1
111 -246 m 0,12,13
 69 -246 69 -246 45.5 -224 c 128,-1,14
 22 -202 22 -202 22 -164 c 0,15,16
 22 -123 22 -123 48 -84 c 128,-1,17
 74 -45 74 -45 113 -7 c 1,18,19
 78 4 78 4 63 38 c 0,20,21
 54 59 54 59 54 87 c 0,22,23
 54 106 54 106 58 129 c 2,24,-1
 105 394 l 1,25,-1
 34 428 l 1,26,-1
 34 440 l 1,27,-1
 248 477 l 1,28,-1
 251 477 l 1,29,-1
 189 129 l 2,30,31
 187 117 187 117 187 107 c 0,32,33
 187 81 187 81 206 81 c 0,34,35
 221 81 221 81 238.5 98 c 128,-1,36
 256 115 256 115 274 155 c 1,37,-1
 293 148 l 1,38,39
 265 74 265 74 230 33.5 c 128,-1,40
 195 -7 195 -7 147 -10 c 1,41,42
 127 -42 127 -42 115 -74 c 128,-1,43
 103 -106 103 -106 103 -137 c 0,44,45
 103 -192 103 -192 159 -193 c 0,46,47
 170 -193 170 -193 182.5 -188.5 c 128,-1,48
 195 -184 195 -184 205 -176 c 1,49,-1
 209 -176 l 1,50,-1
 205 -196 l 1,51,52
 189 -220 189 -220 165.5 -233 c 128,-1,53
 142 -246 142 -246 111 -246 c 0,12,13
EndSplineSet
Validated: 1
Substitution2: "'case' Case-Sensitive Forms lookup 61 subtable" Iogonek
Substitution2: "'smcp' Lowercase to Small Capitals lookup 60 subtable" iogonek.sc
Substitution2: "'c2sc' Capitals to Small Capitals lookup 59 subtable" iogonek.sc
MultipleSubs2: "Multiple Substitution lookup 4 subtable" idotless ogonekcomb
AlternateSubs2: "'aalt' Access All Alternates lookup 1 subtable" iogonek.sc Iogonek
EndChar

StartChar: idotless
Encoding: 305 305 412
Width: 308
GlyphClass: 2
Flags: W
AnchorPoint: "Anchor-3" 189 522 basechar 0
AnchorPoint: "Anchor-2" 186 0 basechar 0
AnchorPoint: "Anchor-0" 132 0 basechar 0
LayerCount: 2
Fore
SplineSet
141 -10 m 0,0,1
 90 -10 90 -10 68 26 c 0,2,3
 54 50 54 50 54 86 c 1,4,5
 54 106 54 106 58 129 c 2,6,-1
 105 394 l 1,7,-1
 34 428 l 1,8,-1
 34 440 l 1,9,-1
 248 477 l 1,10,-1
 251 477 l 1,11,-1
 189 129 l 2,12,13
 187 117 187 117 187 107 c 0,14,15
 187 81 187 81 206 81 c 0,16,17
 221 81 221 81 238.5 98 c 128,-1,18
 256 115 256 115 274 155 c 1,19,-1
 293 148 l 1,20,21
 264 72 264 72 227 31 c 128,-1,22
 190 -10 190 -10 141 -10 c 0,0,1
EndSplineSet
Validated: 1
Substitution2: "'case' Case-Sensitive Forms lookup 62 subtable" I
Substitution2: "'smcp' Lowercase to Small Capitals lookup 60 subtable" i.sc
AlternateSubs2: "'aalt' Access All Alternates lookup 1 subtable" i.sc I
EndChar

StartChar: jdotless
Encoding: 567 567 420
Width: 299
GlyphClass: 2
Flags: W
AnchorPoint: "Anchor-3" 183 522 basechar 0
AnchorPoint: "Anchor-0" 47 -220 basechar 0
LayerCount: 2
Fore
SplineSet
-79 -236 m 1,0,-1
 -79 -217 l 1,1,2
 -42 -192 -42 -192 -20 -168.5 c 128,-1,3
 2 -145 2 -145 15.5 -109.5 c 128,-1,4
 29 -74 29 -74 39 -10 c 2,5,-1
 103 394 l 1,6,-1
 33 428 l 1,7,-1
 33 440 l 1,8,-1
 247 477 l 1,9,-1
 250 477 l 1,10,-1
 175 25 l 2,11,12
 162 -64 162 -64 100 -127 c 128,-1,13
 38 -190 38 -190 -79 -236 c 1,0,-1
EndSplineSet
Validated: 1
EndChar

StartChar: kgreenlandic
Encoding: 312 312 422
Width: 534
GlyphClass: 1
Flags: W
LayerCount: 2
Fore
SplineSet
30 0 m 1,0,-1
 98 393 l 1,1,-1
 25 428 l 1,2,-1
 25 440 l 1,3,-1
 242 477 l 1,4,-1
 245 477 l 1,5,-1
 209 271 l 1,6,7
 288 353 288 353 336 398 c 128,-1,8
 384 443 384 443 412.5 460 c 128,-1,9
 441 477 441 477 462 477 c 0,10,11
 487 477 487 477 498.5 467 c 128,-1,12
 510 457 510 457 510 446 c 0,13,14
 510 441 510 441 505 429 c 2,15,-1
 480 367 l 1,16,-1
 409 393 l 1,17,18
 398 389 398 389 387 382 c 2,19,-1
 309 325 l 1,20,-1
 403 128 l 2,21,22
 414 105 414 105 424 93 c 128,-1,23
 434 81 434 81 447 81 c 0,24,25
 462 81 462 81 475 97.5 c 128,-1,26
 488 114 488 114 502 154 c 1,27,-1
 521 147 l 1,28,29
 497 62 497 62 466.5 26 c 128,-1,30
 436 -10 436 -10 391 -10 c 256,31,32
 346 -10 346 -10 324.5 17 c 128,-1,33
 303 44 303 44 287 83 c 2,34,-1
 208 264 l 1,35,-1
 162 0 l 1,36,-1
 30 0 l 1,0,-1
EndSplineSet
Validated: 1
EndChar

StartChar: lslash
Encoding: 322 322 426
Width: 294
GlyphClass: 1
Flags: W
LayerCount: 2
Fore
SplineSet
131 -10 m 0,0,1
 80 -10 80 -10 58 26 c 0,2,3
 43 50 43 50 43 87 c 0,4,5
 43 106 43 106 47 129 c 2,6,-1
 73 271 l 1,7,-1
 8 227 l 1,8,-1
 19 288 l 1,9,-1
 83 332 l 1,10,-1
 144 684 l 1,11,-1
 67 719 l 1,12,-1
 67 731 l 1,13,-1
 288 768 l 1,14,-1
 291 768 l 1,15,-1
 228 415 l 1,16,-1
 311 471 l 1,17,-1
 300 411 l 1,18,-1
 218 353 l 1,19,-1
 178 129 l 2,20,21
 176 118 176 118 176 109 c 0,22,23
 176 81 176 81 196 81 c 0,24,25
 211 81 211 81 228 98 c 128,-1,26
 245 115 245 115 263 155 c 1,27,-1
 283 148 l 1,28,29
 254 72 254 72 217 31 c 128,-1,30
 180 -10 180 -10 131 -10 c 0,0,1
EndSplineSet
Validated: 1
Substitution2: "'case' Case-Sensitive Forms lookup 61 subtable" Lslash
Substitution2: "'smcp' Lowercase to Small Capitals lookup 60 subtable" lslash.sc
Substitution2: "'c2sc' Capitals to Small Capitals lookup 59 subtable" lslash.sc
AlternateSubs2: "'aalt' Access All Alternates lookup 1 subtable" lslash.sc Lslash
EndChar

StartChar: oogonek
Encoding: 491 491 447
Width: 519
GlyphClass: 1
Flags: W
LayerCount: 2
Fore
SplineSet
208 -246 m 0,0,1
 166 -246 166 -246 142.5 -224 c 128,-1,2
 119 -202 119 -202 119 -164 c 0,3,4
 119 -123 119 -123 144 -85 c 128,-1,5
 169 -47 169 -47 208 -9 c 1,6,7
 150 -6 150 -6 112 22 c 128,-1,8
 74 50 74 50 55 95 c 128,-1,9
 36 140 36 140 36 197 c 0,10,11
 36 249 36 249 55 298.5 c 128,-1,12
 74 348 74 348 107.5 388.5 c 128,-1,13
 141 429 141 429 187 453 c 128,-1,14
 233 477 233 477 288 477 c 0,15,16
 355 477 355 477 398 450 c 128,-1,17
 441 423 441 423 462 376.5 c 128,-1,18
 483 330 483 330 483 270 c 0,19,20
 483 223 483 223 467 175.5 c 128,-1,21
 451 128 451 128 419.5 88 c 128,-1,22
 388 48 388 48 344 22 c 128,-1,23
 300 -4 300 -4 246 -9 c 1,24,25
 226 -41 226 -41 213.5 -73.5 c 128,-1,26
 201 -106 201 -106 201 -137 c 0,27,28
 201 -192 201 -192 256 -193 c 0,29,30
 267 -193 267 -193 280 -188.5 c 128,-1,31
 293 -184 293 -184 303 -176 c 1,32,-1
 306 -176 l 1,33,-1
 302 -196 l 1,34,35
 286 -220 286 -220 262.5 -233 c 128,-1,36
 239 -246 239 -246 208 -246 c 0,0,1
238 38 m 0,37,38
 271 38 271 38 296 74.5 c 128,-1,39
 321 111 321 111 335 169 c 128,-1,40
 349 227 349 227 349 295 c 0,41,42
 349 364 349 364 333.5 397 c 128,-1,43
 318 430 318 430 283 430 c 0,44,45
 251 430 251 430 225.5 395.5 c 128,-1,46
 200 361 200 361 185 304 c 128,-1,47
 170 247 170 247 170 176 c 0,48,49
 170 113 170 113 185 75.5 c 128,-1,50
 200 38 200 38 238 38 c 0,37,38
EndSplineSet
Validated: 1
Substitution2: "'case' Case-Sensitive Forms lookup 61 subtable" Oogonek
Substitution2: "'smcp' Lowercase to Small Capitals lookup 60 subtable" oogonek.sc
Substitution2: "'c2sc' Capitals to Small Capitals lookup 59 subtable" oogonek.sc
AlternateSubs2: "'aalt' Access All Alternates lookup 1 subtable" oogonek.sc Oogonek
EndChar

StartChar: oslash
Encoding: 248 248 463
Width: 519
GlyphClass: 2
Flags: W
AnchorPoint: "Anchor-3" 308 522 basechar 0
LayerCount: 2
Fore
SplineSet
1 -4 m 5,0,-1
 69 68 l 5,1,2
 36 120 36 120 36 197 c 4,3,4
 36 249 36 249 55 298.5 c 132,-1,5
 74 348 74 348 107.5 388.5 c 132,-1,6
 141 429 141 429 187 453 c 132,-1,7
 233 477 233 477 288 477 c 4,8,9
 330 477 330 477 362.5 466 c 132,-1,10
 395 455 395 455 419 434 c 5,11,-1
 454 471 l 5,12,-1
 518 471 l 5,13,-1
 450 399 l 5,14,15
 483 348 483 348 483 274 c 4,16,17
 483 272 483 272 483 270 c 4,18,19
 483 221 483 221 465 171.5 c 132,-1,20
 447 122 447 122 413 80.5 c 132,-1,21
 379 39 379 39 331 14.5 c 132,-1,22
 283 -10 283 -10 224 -10 c 4,23,24
 184 -10 184 -10 153.5 1 c 132,-1,25
 123 12 123 12 99 32 c 5,26,-1
 66 -4 l 5,27,-1
 1 -4 l 5,0,-1
170 176 m 6,28,-1
 170 173 l 5,29,-1
 345 357 l 5,30,31
 334 430 334 430 283 430 c 4,32,33
 251 430 251 430 225.5 395.5 c 132,-1,34
 200 361 200 361 185 304 c 132,-1,35
 170 247 170 247 170 176 c 6,28,-1
238 38 m 4,36,37
 271 38 271 38 296 74.5 c 132,-1,38
 321 111 321 111 335 169 c 132,-1,39
 349 227 349 227 349 294 c 5,40,-1
 175 111 l 5,41,42
 181 76 181 76 196 57 c 132,-1,43
 211 38 211 38 238 38 c 4,36,37
EndSplineSet
Validated: 1
Substitution2: "'case' Case-Sensitive Forms lookup 61 subtable" Oslash
Substitution2: "'smcp' Lowercase to Small Capitals lookup 60 subtable" oslash.sc
Substitution2: "'c2sc' Capitals to Small Capitals lookup 59 subtable" oslash.sc
AlternateSubs2: "'aalt' Access All Alternates lookup 1 subtable" oslash.sc Oslash
EndChar

StartChar: ohorn
Encoding: 417 417 465
Width: 519
GlyphClass: 2
Flags: W
AnchorPoint: "Anchor-3" 308 522 basechar 0
AnchorPoint: "Anchor-2" 254 0 basechar 0
AnchorPoint: "Anchor-0" 222 0 basechar 0
LayerCount: 2
Fore
SplineSet
224 -10 m 0,0,1
 161 -10 161 -10 119 17 c 128,-1,2
 77 44 77 44 56.5 91 c 128,-1,3
 36 138 36 138 36 197 c 0,4,5
 36 249 36 249 55 298.5 c 128,-1,6
 74 348 74 348 107.5 388.5 c 128,-1,7
 141 429 141 429 187 453 c 128,-1,8
 233 477 233 477 288 477 c 0,9,10
 344 477 344 477 387 456 c 1,11,-1
 416 456 l 2,12,13
 440 456 440 456 456 458 c 128,-1,14
 472 460 472 460 485 466 c 1,15,-1
 498 554 l 1,16,-1
 548 554 l 2,17,18
 572 554 572 554 581.5 543 c 128,-1,19
 591 532 591 532 591 513 c 0,20,21
 591 471 591 471 560.5 445 c 128,-1,22
 530 419 530 419 463 419 c 2,23,-1
 435 419 l 1,24,25
 460 390 460 390 471.5 352 c 128,-1,26
 483 314 483 314 483 270 c 0,27,28
 483 221 483 221 465 171.5 c 128,-1,29
 447 122 447 122 413 80.5 c 128,-1,30
 379 39 379 39 330.5 14.5 c 128,-1,31
 282 -10 282 -10 224 -10 c 0,0,1
238 38 m 0,32,33
 271 38 271 38 296 74.5 c 128,-1,34
 321 111 321 111 335 169 c 128,-1,35
 349 227 349 227 349 295 c 0,36,37
 349 364 349 364 333.5 397 c 128,-1,38
 318 430 318 430 283 430 c 0,39,40
 251 430 251 430 225.5 395.5 c 128,-1,41
 200 361 200 361 185 304 c 128,-1,42
 170 247 170 247 170 176 c 0,43,44
 170 113 170 113 185 75.5 c 128,-1,45
 200 38 200 38 238 38 c 0,32,33
EndSplineSet
Validated: 1
Substitution2: "'case' Case-Sensitive Forms lookup 61 subtable" Ohorn
Substitution2: "'smcp' Lowercase to Small Capitals lookup 60 subtable" ohorn.sc
Substitution2: "'c2sc' Capitals to Small Capitals lookup 59 subtable" ohorn.sc
AlternateSubs2: "'aalt' Access All Alternates lookup 1 subtable" ohorn.sc Ohorn
EndChar

StartChar: oe
Encoding: 339 339 471
Width: 763
GlyphClass: 1
Flags: W
LayerCount: 2
Fore
SplineSet
224 -10 m 0,0,1
 161 -10 161 -10 119 17 c 128,-1,2
 77 44 77 44 56.5 91 c 128,-1,3
 36 138 36 138 36 197 c 0,4,5
 36 249 36 249 55 298.5 c 128,-1,6
 74 348 74 348 107.5 388.5 c 128,-1,7
 141 429 141 429 187 453 c 128,-1,8
 233 477 233 477 288 477 c 0,9,10
 345 477 345 477 385 456 c 128,-1,11
 425 435 425 435 449 399 c 1,12,13
 486 435 486 435 533 456 c 128,-1,14
 580 477 580 477 633 477 c 256,15,16
 686 477 686 477 713.5 452.5 c 128,-1,17
 741 428 741 428 741 395 c 0,18,19
 741 365 741 365 719 339 c 128,-1,20
 697 313 697 313 641 289 c 128,-1,21
 585 265 585 265 482 243 c 1,22,23
 481 230 481 230 481 216 c 0,24,25
 481 164 481 164 508.5 130 c 128,-1,26
 536 96 536 96 584 96 c 0,27,28
 616 96 616 96 644.5 111 c 128,-1,29
 673 126 673 126 708 158 c 1,30,-1
 711 158 l 1,31,-1
 726 143 l 1,32,33
 703 104 703 104 671 69 c 128,-1,34
 639 34 639 34 598.5 12 c 128,-1,35
 558 -10 558 -10 512 -10 c 0,36,37
 465 -10 465 -10 432.5 5 c 128,-1,38
 400 20 400 20 381 48 c 1,39,40
 349 21 349 21 309.5 5.5 c 128,-1,41
 270 -10 270 -10 224 -10 c 0,0,1
599 435 m 0,42,43
 559 435 559 435 528.5 391.5 c 128,-1,44
 498 348 498 348 486 281 c 1,45,46
 573 304 573 304 606 332.5 c 128,-1,47
 639 361 639 361 639 397 c 0,48,49
 639 412 639 412 630.5 423.5 c 128,-1,50
 622 435 622 435 599 435 c 0,42,43
238 38 m 0,51,52
 271 38 271 38 296 74.5 c 128,-1,53
 321 111 321 111 335 169 c 128,-1,54
 349 227 349 227 349 295 c 0,55,56
 349 364 349 364 333.5 397 c 128,-1,57
 318 430 318 430 283 430 c 0,58,59
 251 430 251 430 225.5 395.5 c 128,-1,60
 200 361 200 361 185 304 c 128,-1,61
 170 247 170 247 170 176 c 0,62,63
 170 113 170 113 185 75.5 c 128,-1,64
 200 38 200 38 238 38 c 0,51,52
EndSplineSet
Validated: 1
Substitution2: "'case' Case-Sensitive Forms lookup 61 subtable" OE
Substitution2: "'smcp' Lowercase to Small Capitals lookup 60 subtable" oe.sc
Substitution2: "'c2sc' Capitals to Small Capitals lookup 59 subtable" oe.sc
AlternateSubs2: "'aalt' Access All Alternates lookup 1 subtable" oe.sc OE
EndChar

StartChar: scedilla
Encoding: 351 351 482
Width: 390
GlyphClass: 1
Flags: W
LayerCount: 2
Fore
SplineSet
118 -246 m 0,0,1
 92 -246 92 -246 72.5 -239 c 128,-1,2
 53 -232 53 -232 41 -222 c 1,3,-1
 45 -204 l 1,4,-1
 48 -204 l 1,5,6
 72 -215 72 -215 103 -215 c 0,7,8
 132 -215 132 -215 148 -203 c 128,-1,9
 164 -191 164 -191 164 -170 c 0,10,11
 164 -150 164 -150 144.5 -133.5 c 128,-1,12
 125 -117 125 -117 75 -104 c 1,13,-1
 132 -10 l 1,14,15
 100 -9 100 -9 73.5 1.5 c 128,-1,16
 47 12 47 12 31 28.5 c 128,-1,17
 15 45 15 45 15 61 c 0,18,19
 15 70 15 70 19 76.5 c 128,-1,20
 23 83 23 83 28 88 c 2,21,-1
 59 119 l 1,22,-1
 142 39 l 1,23,24
 150 38 150 38 159 38 c 0,25,26
 198 38 198 38 221 55 c 128,-1,27
 244 72 244 72 244 97 c 0,28,29
 244 113 244 113 237 126.5 c 128,-1,30
 230 140 230 140 210 155 c 128,-1,31
 190 170 190 170 152 193 c 0,32,33
 104 221 104 221 82 247 c 128,-1,34
 60 273 60 273 60 325 c 0,35,36
 60 360 60 360 88.5 395 c 128,-1,37
 117 430 117 430 163 453.5 c 128,-1,38
 209 477 209 477 262 477 c 0,39,40
 314 477 314 477 339.5 454 c 128,-1,41
 365 431 365 431 365 412 c 0,42,43
 365 401 365 401 353 391 c 2,44,-1
 316 357 l 1,45,-1
 238 435 l 1,46,47
 201 433 201 433 183 415.5 c 128,-1,48
 165 398 165 398 165 375 c 0,49,50
 165 355 165 355 179.5 337 c 128,-1,51
 194 319 194 319 246 291 c 0,52,53
 291 265 291 265 316 237.5 c 128,-1,54
 341 210 341 210 341 163 c 0,55,56
 341 123 341 123 320 86 c 128,-1,57
 299 49 299 49 260 23.5 c 128,-1,58
 221 -2 221 -2 167 -8 c 1,59,-1
 143 -49 l 1,60,61
 192 -63 192 -63 214 -87.5 c 128,-1,62
 236 -112 236 -112 236 -145 c 0,63,64
 236 -188 236 -188 203.5 -217 c 128,-1,65
 171 -246 171 -246 118 -246 c 0,0,1
EndSplineSet
Validated: 1
Substitution2: "'case' Case-Sensitive Forms lookup 61 subtable" Scedilla
Substitution2: "'smcp' Lowercase to Small Capitals lookup 60 subtable" scedilla.sc
Substitution2: "'c2sc' Capitals to Small Capitals lookup 59 subtable" scedilla.sc
Substitution2: "'locl' Localized Forms in Latin lookup 14 subtable" scommaaccent
Substitution2: "'locl' Localized Forms in Latin lookup 11 subtable" scommaaccent
AlternateSubs2: "'aalt' Access All Alternates lookup 1 subtable" scommaaccent scedilla.sc Scedilla
EndChar

StartChar: germandbls
Encoding: 223 223 489
Width: 655
GlyphClass: 1
Flags: W
LayerCount: 2
Fore
SplineSet
77 420 m 5,0,-1
 77 467 l 5,1,-1
 168 467 l 5,2,-1
 171 490 l 6,3,4
 179 542 179 542 205 592 c 132,-1,5
 231 642 231 642 272 681.5 c 132,-1,6
 313 721 313 721 366 744.5 c 132,-1,7
 419 768 419 768 480 768 c 4,8,9
 562 768 562 768 602.5 732.5 c 132,-1,10
 643 697 643 697 643 647 c 4,11,12
 643 612 643 612 626 586 c 132,-1,13
 609 560 609 560 584.5 538.5 c 132,-1,14
 560 517 560 517 535.5 495.5 c 132,-1,15
 511 474 511 474 494.5 449 c 132,-1,16
 478 424 478 424 478 392 c 4,17,18
 478 366 478 366 489 349 c 132,-1,19
 500 332 500 332 518.5 315.5 c 132,-1,20
 537 299 537 299 560 278 c 4,21,22
 596 245 596 245 608 217.5 c 132,-1,23
 620 190 620 190 620 160 c 4,24,25
 620 113 620 113 595 74.5 c 132,-1,26
 570 36 570 36 525.5 13 c 132,-1,27
 481 -10 481 -10 420 -10 c 4,28,29
 379 -10 379 -10 351.5 0.5 c 132,-1,30
 324 11 324 11 308 27 c 4,31,32
 286 45 286 45 286 62 c 4,33,34
 286 63 286 63 286 63 c 4,35,36
 286 69 286 69 288.5 75.5 c 132,-1,37
 291 82 291 82 298 86 c 6,38,-1
 336 114 l 5,39,-1
 342 114 l 5,40,-1
 359 89 l 6,41,42
 376 64 376 64 397 50 c 132,-1,43
 418 36 418 36 442 36 c 4,44,45
 482 36 482 36 501 55.5 c 132,-1,46
 520 75 520 75 520 109 c 4,47,48
 520 134 520 134 507 151 c 132,-1,49
 494 168 494 168 472 185 c 132,-1,50
 450 202 450 202 423 223 c 4,51,52
 401 242 401 242 385 264.5 c 132,-1,53
 369 287 369 287 369 324 c 4,54,55
 369 363 369 363 386 393 c 132,-1,56
 403 423 403 423 428.5 448.5 c 132,-1,57
 454 474 454 474 479 501 c 132,-1,58
 504 528 504 528 521 561 c 132,-1,59
 538 594 538 594 538 638 c 4,60,61
 538 674 538 674 518 697 c 132,-1,62
 498 720 498 720 455 720 c 4,63,64
 396 720 396 720 363 675.5 c 132,-1,65
 330 631 330 631 316 555 c 6,66,-1
 221 7 l 6,67,68
 217 -20 217 -20 199 -53 c 132,-1,69
 181 -86 181 -86 154.5 -120 c 132,-1,70
 128 -154 128 -154 97 -182.5 c 132,-1,71
 66 -211 66 -211 33 -228.5 c 132,-1,72
 0 -246 0 -246 -29 -246 c 4,73,74
 -55 -246 -55 -246 -72 -236 c 132,-1,75
 -89 -226 -89 -226 -89 -215 c 4,76,77
 -89 -206 -89 -206 -84 -197 c 6,78,-1
 -54 -146 l 5,79,-1
 -48 -146 l 5,80,-1
 -18 -172 l 6,81,82
 -4 -184 -4 -184 16 -184 c 4,83,84
 42 -184 42 -184 56.5 -155.5 c 132,-1,85
 71 -127 71 -127 82 -59 c 6,86,-1
 160 420 l 5,87,-1
 77 420 l 5,0,-1
EndSplineSet
Validated: 1
Substitution2: "'case' Case-Sensitive Forms lookup 62 subtable" Germandbls
Substitution2: "'smcp' Lowercase to Small Capitals lookup 60 subtable" germandbls.sc
AlternateSubs2: "'aalt' Access All Alternates lookup 1 subtable" germandbls.sc Germandbls
EndChar

StartChar: tbar
Encoding: 359 359 492
Width: 352
GlyphClass: 1
Flags: W
LayerCount: 2
Fore
SplineSet
153 -10 m 0,0,1
 104 -10 104 -10 77 18.5 c 128,-1,2
 50 47 50 47 50 102 c 0,3,4
 50 113 50 113 51 125.5 c 128,-1,5
 52 138 52 138 54 151 c 2,6,-1
 74 261 l 1,7,-1
 13 261 l 1,8,-1
 22 306 l 1,9,-1
 82 306 l 1,10,-1
 102 422 l 1,11,-1
 36 422 l 1,12,-1
 39 436 l 1,13,-1
 148 487 l 1,14,-1
 242 575 l 1,15,-1
 260 575 l 1,16,-1
 242 467 l 1,17,-1
 366 467 l 1,18,-1
 366 422 l 1,19,-1
 233 422 l 1,20,-1
 213 306 l 1,21,-1
 335 306 l 1,22,-1
 327 261 l 1,23,-1
 205 261 l 1,24,-1
 189 172 l 2,25,26
 187 163 187 163 186.5 155 c 128,-1,27
 186 147 186 147 186 140 c 0,28,29
 186 94 186 94 222 94 c 0,30,31
 246 94 246 94 270 116 c 128,-1,32
 294 138 294 138 314 188 c 1,33,-1
 334 181 l 1,34,35
 303 88 303 88 257 39 c 128,-1,36
 211 -10 211 -10 153 -10 c 0,0,1
EndSplineSet
Validated: 1
Substitution2: "'case' Case-Sensitive Forms lookup 61 subtable" Tbar
Substitution2: "'smcp' Lowercase to Small Capitals lookup 60 subtable" tbar.sc
Substitution2: "'c2sc' Capitals to Small Capitals lookup 59 subtable" tbar.sc
AlternateSubs2: "'aalt' Access All Alternates lookup 1 subtable" tbar.sc Tbar
EndChar

StartChar: tcedilla
Encoding: 355 355 493
Width: 352
GlyphClass: 1
Flags: W
LayerCount: 2
Fore
SplineSet
111 -246 m 0,0,1
 85 -246 85 -246 65.5 -239 c 128,-1,2
 46 -232 46 -232 34 -222 c 1,3,-1
 38 -204 l 1,4,-1
 41 -204 l 1,5,6
 65 -215 65 -215 96 -215 c 0,7,8
 125 -215 125 -215 141 -203 c 128,-1,9
 157 -191 157 -191 157 -170 c 0,10,11
 157 -150 157 -150 137.5 -133.5 c 128,-1,12
 118 -117 118 -117 68 -104 c 1,13,-1
 127 -8 l 1,14,15
 50 7 50 7 50 102 c 0,16,17
 50 113 50 113 51 125.5 c 128,-1,18
 52 138 52 138 54 151 c 2,19,-1
 102 422 l 1,20,-1
 36 422 l 1,21,-1
 39 436 l 1,22,-1
 148 487 l 1,23,-1
 242 575 l 1,24,-1
 260 575 l 1,25,-1
 242 467 l 1,26,-1
 366 467 l 1,27,-1
 366 422 l 1,28,-1
 233 422 l 1,29,-1
 189 172 l 2,30,31
 187 163 187 163 186.5 155 c 128,-1,32
 186 147 186 147 186 140 c 0,33,34
 186 94 186 94 222 94 c 0,35,36
 246 94 246 94 270 116 c 128,-1,37
 294 138 294 138 314 188 c 1,38,-1
 334 181 l 1,39,40
 304 91 304 91 259.5 42 c 128,-1,41
 215 -7 215 -7 159 -10 c 1,42,-1
 136 -49 l 1,43,44
 185 -63 185 -63 206.5 -87.5 c 128,-1,45
 228 -112 228 -112 228 -145 c 0,46,47
 228 -188 228 -188 196 -217 c 128,-1,48
 164 -246 164 -246 111 -246 c 0,0,1
EndSplineSet
Validated: 1
Substitution2: "'case' Case-Sensitive Forms lookup 61 subtable" Tcedilla
Substitution2: "'smcp' Lowercase to Small Capitals lookup 60 subtable" tcedilla.sc
Substitution2: "'c2sc' Capitals to Small Capitals lookup 59 subtable" tcedilla.sc
AlternateSubs2: "'aalt' Access All Alternates lookup 1 subtable" tcedilla.sc Tcedilla
EndChar

StartChar: uogonek
Encoding: 371 371 506
Width: 565
GlyphClass: 1
Flags: W
LayerCount: 2
Fore
SplineSet
156 -10 m 4,0,1
 113 -10 113 -10 85.5 20 c 132,-1,2
 58 50 58 50 58 102 c 4,3,4
 58 111 58 111 59 121 c 132,-1,5
 60 131 60 131 62 141 c 6,6,-1
 106 393 l 5,7,-1
 39 428 l 5,8,-1
 39 440 l 5,9,-1
 248 477 l 5,10,-1
 252 477 l 5,11,-1
 194 145 l 6,12,13
 193 136 193 136 193 126 c 4,14,15
 193 106 193 106 203 91 c 132,-1,16
 213 76 213 76 237 76 c 4,17,18
 260 76 260 76 281.5 94 c 132,-1,19
 303 112 303 112 323 132 c 5,20,-1
 368 393 l 5,21,-1
 311 428 l 5,22,-1
 311 440 l 5,23,-1
 510 477 l 5,24,-1
 513 477 l 5,25,-1
 452 129 l 6,26,27
 450 118 450 118 450 109 c 4,28,29
 450 81 450 81 470 81 c 4,30,31
 485 81 485 81 502.5 98 c 132,-1,32
 520 115 520 115 539 155 c 5,33,-1
 557 148 l 5,34,35
 541 102 541 102 518.5 72 c 132,-1,36
 496 42 496 42 472 16 c 4,37,38
 442 -18 442 -18 424 -58 c 132,-1,39
 406 -98 406 -98 406 -136 c 4,40,41
 406 -192 406 -192 461 -193 c 4,42,43
 472 -193 472 -193 484.5 -189 c 132,-1,44
 497 -185 497 -185 507 -176 c 5,45,-1
 511 -176 l 5,46,-1
 507 -196 l 5,47,48
 491 -220 491 -220 467 -233 c 132,-1,49
 443 -246 443 -246 413 -246 c 4,50,51
 371 -246 371 -246 347.5 -224 c 132,-1,52
 324 -202 324 -202 324 -164 c 4,53,54
 324 -124 324 -124 348 -87 c 132,-1,55
 372 -50 372 -50 412 -10 c 5,56,57
 409 -10 409 -10 406 -10 c 4,58,59
 363 -10 363 -10 340 16 c 4,60,61
 318 40 318 40 318 85 c 4,62,63
 318 87 318 87 318 89 c 5,64,-1
 315 89 l 5,65,66
 282 53 282 53 258 31 c 132,-1,67
 234 9 234 9 211 -0.5 c 132,-1,68
 188 -10 188 -10 156 -10 c 4,0,1
EndSplineSet
Validated: 1
Substitution2: "'case' Case-Sensitive Forms lookup 61 subtable" Uogonek
Substitution2: "'smcp' Lowercase to Small Capitals lookup 60 subtable" uogonek.sc
Substitution2: "'c2sc' Capitals to Small Capitals lookup 59 subtable" uogonek.sc
AlternateSubs2: "'aalt' Access All Alternates lookup 1 subtable" uogonek.sc Uogonek
EndChar

StartChar: uhorn
Encoding: 432 432 513
Width: 565
GlyphClass: 2
Flags: W
AnchorPoint: "Anchor-3" 327 522 basechar 0
AnchorPoint: "Anchor-2" 459 0 basechar 0
AnchorPoint: "Anchor-0" 234 0 basechar 0
LayerCount: 2
Fore
SplineSet
156 -10 m 4,0,1
 113 -10 113 -10 85.5 20 c 132,-1,2
 58 50 58 50 58 102 c 4,3,4
 58 111 58 111 59 121 c 132,-1,5
 60 131 60 131 62 141 c 6,6,-1
 106 393 l 5,7,-1
 39 428 l 5,8,-1
 39 440 l 5,9,-1
 248 477 l 5,10,-1
 252 477 l 5,11,-1
 194 145 l 6,12,13
 193 136 193 136 193 126 c 4,14,15
 193 106 193 106 203 91 c 132,-1,16
 213 76 213 76 237 76 c 4,17,18
 260 76 260 76 281.5 94 c 132,-1,19
 303 112 303 112 323 132 c 5,20,-1
 368 393 l 5,21,-1
 311 428 l 5,22,-1
 311 440 l 5,23,-1
 510 477 l 5,24,-1
 513 477 l 5,25,-1
 510 456 l 5,26,-1
 523 456 l 6,27,28
 547 456 547 456 563.5 458 c 132,-1,29
 580 460 580 460 593 466 c 5,30,-1
 605 554 l 5,31,-1
 655 554 l 6,32,33
 679 554 679 554 688.5 543 c 132,-1,34
 698 532 698 532 698 513 c 4,35,36
 698 471 698 471 668 445 c 132,-1,37
 638 419 638 419 570 419 c 6,38,-1
 503 419 l 5,39,-1
 452 129 l 6,40,41
 450 118 450 118 450 109 c 4,42,43
 450 81 450 81 470 81 c 4,44,45
 485 81 485 81 502.5 98 c 132,-1,46
 520 115 520 115 539 155 c 5,47,-1
 557 148 l 5,48,49
 528 72 528 72 491.5 31 c 132,-1,50
 455 -10 455 -10 406 -10 c 4,51,52
 363 -10 363 -10 340 16 c 4,53,54
 318 40 318 40 318 85 c 4,55,56
 318 87 318 87 318 89 c 5,57,-1
 315 89 l 5,58,59
 282 53 282 53 258 31 c 132,-1,60
 234 9 234 9 211 -0.5 c 132,-1,61
 188 -10 188 -10 156 -10 c 4,0,1
EndSplineSet
Validated: 1
Substitution2: "'case' Case-Sensitive Forms lookup 61 subtable" Uhorn
Substitution2: "'smcp' Lowercase to Small Capitals lookup 60 subtable" uhorn.sc
Substitution2: "'c2sc' Capitals to Small Capitals lookup 59 subtable" uhorn.sc
AlternateSubs2: "'aalt' Access All Alternates lookup 1 subtable" uhorn.sc Uhorn
EndChar

StartChar: schwa
Encoding: 601 601 536
Width: 449
GlyphClass: 1
Flags: W
LayerCount: 2
Fore
SplineSet
136 -10 m 0,0,1
 83 -10 83 -10 56 14.5 c 128,-1,2
 29 39 29 39 29 72 c 0,3,4
 29 103 29 103 51 129 c 128,-1,5
 73 155 73 155 129 178.5 c 128,-1,6
 185 202 185 202 288 224 c 1,7,8
 289 237 289 237 289 252 c 0,9,10
 289 303 289 303 261 337.5 c 128,-1,11
 233 372 233 372 186 372 c 0,12,13
 153 372 153 372 124.5 357 c 128,-1,14
 96 342 96 342 61 310 c 1,15,-1
 59 310 l 1,16,-1
 44 325 l 1,17,18
 66 364 66 364 98.5 399 c 128,-1,19
 131 434 131 434 172.5 455.5 c 128,-1,20
 214 477 214 477 262 477 c 0,21,22
 344 477 344 477 382.5 430 c 128,-1,23
 421 383 421 383 421 302 c 0,24,25
 421 245 421 245 399.5 189 c 128,-1,26
 378 133 378 133 340 88.5 c 128,-1,27
 302 44 302 44 249.5 17 c 128,-1,28
 197 -10 197 -10 136 -10 c 0,0,1
131 71 m 0,29,30
 131 56 131 56 139.5 44 c 128,-1,31
 148 32 148 32 170 32 c 0,32,33
 210 32 210 32 241 75.5 c 128,-1,34
 272 119 272 119 284 187 c 1,35,36
 197 163 197 163 164 135 c 128,-1,37
 131 107 131 107 131 71 c 0,29,30
EndSplineSet
Validated: 1
Substitution2: "'case' Case-Sensitive Forms lookup 61 subtable" Schwa
Substitution2: "'smcp' Lowercase to Small Capitals lookup 60 subtable" schwa.sc
Substitution2: "'c2sc' Capitals to Small Capitals lookup 59 subtable" schwa.sc
AlternateSubs2: "'aalt' Access All Alternates lookup 1 subtable" schwa.sc Schwa
EndChar

StartChar: eng
Encoding: 331 331 537
Width: 568
GlyphClass: 1
Flags: W
LayerCount: 2
Fore
SplineSet
36 0 m 5,0,-1
 104 393 l 5,1,-1
 37 428 l 5,2,-1
 37 440 l 5,3,-1
 226 477 l 5,4,-1
 229 477 l 5,5,-1
 229 374 l 5,6,-1
 234 374 l 5,7,8
 268 413 268 413 293 435.5 c 132,-1,9
 318 458 318 458 342.5 467.5 c 132,-1,10
 367 477 367 477 399 477 c 4,11,12
 452 477 452 477 480 436 c 4,13,14
 501 406 501 406 501 362 c 4,15,16
 501 345 501 345 498 326 c 6,17,-1
 444 25 l 6,18,19
 429 -64 429 -64 367.5 -126.5 c 132,-1,20
 306 -189 306 -189 190 -236 c 5,21,-1
 190 -217 l 5,22,23
 226 -192 226 -192 248 -168.5 c 132,-1,24
 270 -145 270 -145 283.5 -109.5 c 132,-1,25
 297 -74 297 -74 308 -10 c 6,26,-1
 366 322 l 6,27,28
 368 331 368 331 368 340 c 4,29,30
 368 356 368 356 361 370 c 4,31,32
 351 390 351 390 319 391 c 4,33,34
 293 391 293 391 268.5 371 c 132,-1,35
 244 351 244 351 223 329 c 5,36,-1
 168 0 l 5,37,-1
 36 0 l 5,0,-1
EndSplineSet
Validated: 1
Substitution2: "'case' Case-Sensitive Forms lookup 61 subtable" Eng
Substitution2: "'smcp' Lowercase to Small Capitals lookup 60 subtable" eng.sc
Substitution2: "'c2sc' Capitals to Small Capitals lookup 59 subtable" eng.sc
AlternateSubs2: "'aalt' Access All Alternates lookup 1 subtable" eng.sc Eng
EndChar

StartChar: eth
Encoding: 240 240 538
Width: 519
GlyphClass: 1
Flags: W
LayerCount: 2
Fore
SplineSet
221 -10 m 0,0,1
 163 -10 163 -10 121.5 15.5 c 128,-1,2
 80 41 80 41 57.5 85.5 c 128,-1,3
 35 130 35 130 35 187 c 256,4,5
 35 244 35 244 55.5 296.5 c 128,-1,6
 76 349 76 349 111.5 389.5 c 128,-1,7
 147 430 147 430 195.5 453.5 c 128,-1,8
 244 477 244 477 300 477 c 0,9,10
 317 477 317 477 331 475.5 c 128,-1,11
 345 474 345 474 357 472 c 1,12,13
 346 545 346 545 313 600 c 1,14,-1
 233 536 l 1,15,-1
 160 536 l 1,16,-1
 288 639 l 1,17,18
 236 704 236 704 146 738 c 1,19,-1
 154 767 l 1,20,21
 259 739 259 739 338 679 c 1,22,-1
 436 758 l 1,23,-1
 509 758 l 1,24,-1
 373 648 l 1,25,26
 434 590 434 590 467 512.5 c 128,-1,27
 500 435 500 435 500 346 c 0,28,29
 500 271 500 271 479.5 206.5 c 128,-1,30
 459 142 459 142 421.5 93.5 c 128,-1,31
 384 45 384 45 333 17.5 c 128,-1,32
 282 -10 282 -10 221 -10 c 0,0,1
169 162 m 0,33,34
 169 106 169 106 184 72 c 128,-1,35
 199 38 199 38 231 38 c 0,36,37
 267 38 267 38 297 84 c 128,-1,38
 327 130 327 130 344.5 210 c 128,-1,39
 362 290 362 290 362 391 c 0,40,41
 362 394 362 394 362 397 c 0,42,43
 351 411 351 411 335 420.5 c 128,-1,44
 319 430 319 430 297 430 c 0,45,46
 243 430 243 430 206 359 c 128,-1,47
 169 288 169 288 169 162 c 0,33,34
EndSplineSet
Validated: 1
Substitution2: "'case' Case-Sensitive Forms lookup 61 subtable" Eth
Substitution2: "'smcp' Lowercase to Small Capitals lookup 60 subtable" eth.sc
Substitution2: "'c2sc' Capitals to Small Capitals lookup 59 subtable" eth.sc
AlternateSubs2: "'aalt' Access All Alternates lookup 1 subtable" eth.sc Eth
EndChar

StartChar: thorn
Encoding: 254 254 539
Width: 544
GlyphClass: 1
Flags: W
LayerCount: 2
Fore
SplineSet
-50 -236 m 1,0,-1
 -50 -219 l 1,1,-1
 9 -188 l 1,2,-1
 163 684 l 1,3,-1
 85 719 l 1,4,-1
 85 731 l 1,5,-1
 306 768 l 1,6,-1
 309 768 l 1,7,-1
 240 370 l 1,8,-1
 246 370 l 1,9,10
 288 426 288 426 321.5 451.5 c 128,-1,11
 355 477 355 477 402 477 c 0,12,13
 448 477 448 477 477 438.5 c 128,-1,14
 506 400 506 400 506 329 c 0,15,16
 506 261 506 261 485 199.5 c 128,-1,17
 464 138 464 138 427 91 c 128,-1,18
 390 44 390 44 342 17 c 128,-1,19
 294 -10 294 -10 240 -10 c 0,20,21
 205 -10 205 -10 175 -2 c 1,22,-1
 143 -187 l 1,23,-1
 229 -219 l 1,24,-1
 229 -236 l 1,25,-1
 -50 -236 l 1,0,-1
326 383 m 0,26,27
 300 383 300 383 275 361.5 c 128,-1,28
 250 340 250 340 230 312 c 1,29,-1
 189 77 l 1,30,31
 198 57 198 57 212 45 c 128,-1,32
 226 33 226 33 248 33 c 0,33,34
 283 33 283 33 311.5 68 c 128,-1,35
 340 103 340 103 356.5 162.5 c 128,-1,36
 373 222 373 222 373 295 c 0,37,38
 373 336 373 336 363 359.5 c 128,-1,39
 353 383 353 383 326 383 c 0,26,27
EndSplineSet
Validated: 1
Substitution2: "'case' Case-Sensitive Forms lookup 61 subtable" Thorn
Substitution2: "'smcp' Lowercase to Small Capitals lookup 60 subtable" thorn.sc
Substitution2: "'c2sc' Capitals to Small Capitals lookup 59 subtable" thorn.sc
AlternateSubs2: "'aalt' Access All Alternates lookup 1 subtable" thorn.sc Thorn
EndChar

StartChar: uni0431
Encoding: 1073 1073 544
Width: 523
GlyphClass: 1
Flags: W
LayerCount: 2
Fore
SplineSet
526 764 m 5,0,-1
 552 764 l 5,1,-1
 555 760 l 5,2,-1
 549 721 l 6,3,4
 539 651 539 651 501.5 618.5 c 132,-1,5
 464 586 464 586 398 583 c 4,6,7
 372 582 372 582 352 582 c 4,8,9
 345 582 345 582 339 582 c 4,10,11
 327 582 327 582 318 583 c 4,12,13
 315 583 315 583 313 583 c 4,14,15
 289 583 289 583 269 575 c 4,16,17
 243 569 243 569 232 549.5 c 132,-1,18
 221 530 221 530 215.5 497 c 132,-1,19
 210 464 210 464 202 417 c 5,20,21
 224 434 224 434 251.5 445.5 c 132,-1,22
 279 457 279 457 314 457 c 4,23,24
 363 457 363 457 401.5 433 c 132,-1,25
 440 409 440 409 462 365.5 c 132,-1,26
 484 322 484 322 484 263 c 4,27,28
 484 211 484 211 465.5 162 c 132,-1,29
 447 113 447 113 413 74 c 132,-1,30
 379 35 379 35 330 12.5 c 132,-1,31
 281 -10 281 -10 220 -10 c 4,32,33
 157 -10 157 -10 117.5 19 c 132,-1,34
 78 48 78 48 60 95 c 132,-1,35
 42 142 42 142 42 198 c 4,36,37
 42 310 42 310 83.5 412.5 c 132,-1,38
 125 515 125 515 213.5 592.5 c 132,-1,39
 302 670 302 670 443 708 c 4,40,41
 492 721 492 721 507.5 732.5 c 132,-1,42
 523 744 523 744 526 764 c 5,0,-1
170 166 m 4,43,44
 170 105 170 105 187 71.5 c 132,-1,45
 204 38 204 38 236 38 c 4,46,47
 270 38 270 38 295.5 70 c 132,-1,48
 321 102 321 102 335 157 c 132,-1,49
 349 212 349 212 349 280 c 4,50,51
 349 332 349 332 334 370 c 132,-1,52
 319 408 319 408 280 408 c 4,53,54
 255 408 255 408 231.5 393.5 c 132,-1,55
 208 379 208 379 190 355 c 5,56,57
 180 305 180 305 175 260 c 132,-1,58
 170 215 170 215 170 166 c 4,43,44
EndSplineSet
Validated: 1
Substitution2: "'smcp' Lowercase to Small Capitals lookup 60 subtable" uni0431.sc
Substitution2: "'c2sc' Capitals to Small Capitals lookup 59 subtable" uni0431.sc
Substitution2: "'ss05' Style Set 5 lookup 18 subtable" uni0431.locl
Substitution2: "'locl' Localized Forms in Cyrillic lookup 16 subtable" uni0431.locl
AlternateSubs2: "'aalt' Access All Alternates lookup 1 subtable" uni0431.locl uni0431.sc
EndChar

StartChar: uni0432
Encoding: 1074 1074 545
Width: 486
GlyphClass: 1
Flags: W
LayerCount: 2
Fore
SplineSet
441 157 m 0,0,1
 441 111 441 111 411 73 c 128,-1,2
 381 35 381 35 332 12.5 c 128,-1,3
 283 -10 283 -10 224 -10 c 0,4,5
 137 -10 137 -10 86.5 37.5 c 128,-1,6
 36 85 36 85 36 167 c 0,7,8
 36 226 36 226 55 282 c 128,-1,9
 74 338 74 338 109.5 382 c 128,-1,10
 145 426 145 426 196.5 451.5 c 128,-1,11
 248 477 248 477 313 477 c 0,12,13
 392 477 392 477 425.5 448.5 c 128,-1,14
 459 420 459 420 459 386 c 0,15,16
 459 298 459 298 322 261 c 1,17,18
 381 261 381 261 411 230.5 c 128,-1,19
 441 200 441 200 441 157 c 0,0,1
290 433 m 0,20,21
 246 433 246 433 216 384 c 128,-1,22
 186 335 186 335 174 256 c 1,23,-1
 216 264 l 2,24,25
 281 277 281 277 305.5 312.5 c 128,-1,26
 330 348 330 348 330 388 c 0,27,28
 330 433 330 433 290 433 c 0,20,21
225 35 m 0,29,30
 251 35 251 35 270 52.5 c 128,-1,31
 289 70 289 70 299 97 c 128,-1,32
 309 124 309 124 309 153 c 0,33,34
 309 187 309 187 293.5 206.5 c 128,-1,35
 278 226 278 226 245 226 c 0,36,37
 229 226 229 226 206 222 c 0,38,39
 189 219 189 219 169 215 c 1,40,41
 165 176 165 176 165 134 c 0,42,43
 165 93 165 93 178.5 64 c 128,-1,44
 192 35 192 35 225 35 c 0,29,30
EndSplineSet
Validated: 1
Substitution2: "'smcp' Lowercase to Small Capitals lookup 60 subtable" uni0432.sc
Substitution2: "'c2sc' Capitals to Small Capitals lookup 59 subtable" uni0432.sc
Substitution2: "'ss06' Style Set 6 lookup 19 subtable" uni0432.bgr
Substitution2: "'locl' Localized Forms in Cyrillic lookup 17 subtable" uni0432.bgr
AlternateSubs2: "'aalt' Access All Alternates lookup 1 subtable" uni0432.bgr uni0432.sc
EndChar

StartChar: uni0433
Encoding: 1075 1075 546
Width: 448
GlyphClass: 2
Flags: W
AnchorPoint: "Anchor-3" 284 519 basechar 0
LayerCount: 2
Fore
SplineSet
200 -10 m 0,0,1
 123 -10 123 -10 78.5 18.5 c 128,-1,2
 34 47 34 47 34 106 c 0,3,4
 34 150 34 150 55.5 180 c 128,-1,5
 77 210 77 210 109.5 231.5 c 128,-1,6
 142 253 142 253 177 270 c 0,7,8
 208 286 208 286 234.5 301.5 c 128,-1,9
 261 317 261 317 278 335.5 c 128,-1,10
 295 354 295 354 295 379 c 0,11,12
 295 431 295 431 241 431 c 0,13,14
 189 431 189 431 139 373 c 2,15,-1
 98 325 l 1,16,-1
 82 325 l 1,17,-1
 103 446 l 1,18,19
 139 462 139 462 182 469.5 c 128,-1,20
 225 477 225 477 264 477 c 0,21,22
 333 477 333 477 373 447.5 c 128,-1,23
 413 418 413 418 413 358 c 0,24,25
 413 313 413 313 389.5 282.5 c 128,-1,26
 366 252 366 252 331 231 c 128,-1,27
 296 210 296 210 261 191 c 0,28,29
 220 168 220 168 189 146 c 128,-1,30
 158 124 158 124 158 88 c 0,31,32
 158 63 158 63 172 49.5 c 128,-1,33
 186 36 186 36 216 36 c 0,34,35
 283 36 283 36 331 92 c 2,36,-1
 376 145 l 1,37,-1
 391 145 l 1,38,-1
 371 27 l 1,39,40
 331 7 331 7 290 -1.5 c 128,-1,41
 249 -10 249 -10 200 -10 c 0,0,1
EndSplineSet
Validated: 1
Substitution2: "'smcp' Lowercase to Small Capitals lookup 60 subtable" uni0433.sc
Substitution2: "'c2sc' Capitals to Small Capitals lookup 59 subtable" uni0433.sc
Substitution2: "'ss06' Style Set 6 lookup 19 subtable" uni0433.bgr
Substitution2: "'ss05' Style Set 5 lookup 18 subtable" uni0433.locl
Substitution2: "'locl' Localized Forms in Cyrillic lookup 17 subtable" uni0433.bgr
Substitution2: "'locl' Localized Forms in Cyrillic lookup 16 subtable" uni0433.locl
AlternateSubs2: "'aalt' Access All Alternates lookup 1 subtable" uni0433.locl uni0433.bgr uni0433.sc
EndChar

StartChar: uni0493
Encoding: 1171 1171 548
Width: 448
GlyphClass: 1
Flags: W
LayerCount: 2
Fore
SplineSet
200 -10 m 0,0,1
 123 -10 123 -10 78.5 18 c 128,-1,2
 34 46 34 46 34 111 c 0,3,4
 34 145 34 145 50.5 170 c 128,-1,5
 67 195 67 195 92 214 c 1,6,-1
 26 214 l 1,7,-1
 34 262 l 1,8,-1
 174 262 l 2,9,10
 176 263 176 263 178 264 c 128,-1,11
 180 265 180 265 182 266 c 0,12,13
 226 290 226 290 260.5 315.5 c 128,-1,14
 295 341 295 341 295 379 c 0,15,16
 295 431 295 431 241 431 c 0,17,18
 189 431 189 431 139 373 c 2,19,-1
 98 325 l 1,20,-1
 82 325 l 1,21,-1
 103 446 l 1,22,23
 139 462 139 462 182 469.5 c 128,-1,24
 225 477 225 477 264 477 c 0,25,26
 333 477 333 477 373 447.5 c 128,-1,27
 413 418 413 418 413 358 c 0,28,29
 413 327 413 327 400 304 c 128,-1,30
 387 281 387 281 367 262 c 1,31,-1
 435 262 l 1,32,-1
 428 214 l 1,33,-1
 293 214 l 1,34,35
 284 210 284 210 274.5 205 c 128,-1,36
 265 200 265 200 257 196 c 0,37,38
 216 174 216 174 187 149.5 c 128,-1,39
 158 125 158 125 158 88 c 0,40,41
 158 63 158 63 172 49.5 c 128,-1,42
 186 36 186 36 216 36 c 0,43,44
 283 36 283 36 331 92 c 2,45,-1
 376 145 l 1,46,-1
 391 145 l 1,47,-1
 371 27 l 1,48,49
 331 7 331 7 290 -1.5 c 128,-1,50
 249 -10 249 -10 200 -10 c 0,0,1
EndSplineSet
Validated: 1
Substitution2: "'smcp' Lowercase to Small Capitals lookup 60 subtable" uni0493.sc
Substitution2: "'c2sc' Capitals to Small Capitals lookup 59 subtable" uni0493.sc
Substitution2: "'aalt' Access All Alternates lookup 0 subtable" uni0493.sc
EndChar

StartChar: uni0434
Encoding: 1076 1076 549
Width: 529
GlyphClass: 1
Flags: W
LayerCount: 2
Fore
SplineSet
219 -10 m 0,0,1
 162 -10 162 -10 121 15.5 c 128,-1,2
 80 41 80 41 57.5 85.5 c 128,-1,3
 35 130 35 130 35 187 c 256,4,5
 35 244 35 244 55 296.5 c 128,-1,6
 75 349 75 349 110.5 389.5 c 128,-1,7
 146 430 146 430 194 453.5 c 128,-1,8
 242 477 242 477 298 477 c 0,9,10
 322 477 322 477 340 473 c 128,-1,11
 358 469 358 469 374 463 c 1,12,13
 372 530 372 530 358.5 586 c 128,-1,14
 345 642 345 642 318.5 676.5 c 128,-1,15
 292 711 292 711 250 711 c 0,16,17
 227 711 227 711 206 700.5 c 128,-1,18
 185 690 185 690 169 669 c 1,19,-1
 146 688 l 1,20,21
 166 718 166 718 194.5 739 c 128,-1,22
 223 760 223 760 274 760 c 0,23,24
 330 760 330 760 373.5 731 c 128,-1,25
 417 702 417 702 445.5 652.5 c 128,-1,26
 474 603 474 603 489 540 c 128,-1,27
 504 477 504 477 504 410 c 0,28,29
 504 332 504 332 486.5 256.5 c 128,-1,30
 469 181 469 181 433 121 c 128,-1,31
 397 61 397 61 344 25.5 c 128,-1,32
 291 -10 291 -10 219 -10 c 0,0,1
169 162 m 0,33,34
 169 106 169 106 184 72 c 128,-1,35
 199 38 199 38 230 38 c 0,36,37
 258 38 258 38 282.5 69.5 c 128,-1,38
 307 101 307 101 326.5 154 c 128,-1,39
 346 207 346 207 358 272 c 128,-1,40
 370 337 370 337 373 403 c 1,41,42
 346 430 346 430 300 430 c 0,43,44
 243 430 243 430 206 359 c 128,-1,45
 169 288 169 288 169 162 c 0,33,34
EndSplineSet
Validated: 1
Substitution2: "'smcp' Lowercase to Small Capitals lookup 60 subtable" uni0434.sc
Substitution2: "'c2sc' Capitals to Small Capitals lookup 59 subtable" uni0434.sc
Substitution2: "'ss06' Style Set 6 lookup 19 subtable" uni0434.bgr
Substitution2: "'ss05' Style Set 5 lookup 18 subtable" uni0434.locl
Substitution2: "'locl' Localized Forms in Cyrillic lookup 17 subtable" uni0434.bgr
Substitution2: "'locl' Localized Forms in Cyrillic lookup 16 subtable" uni0434.locl
AlternateSubs2: "'aalt' Access All Alternates lookup 1 subtable" uni0434.locl uni0434.bgr uni0434.sc
EndChar

StartChar: uni0436
Encoding: 1078 1078 552
Width: 890
GlyphClass: 1
Flags: W
LayerCount: 2
Fore
SplineSet
420 467 m 1,0,-1
 550 467 l 1,1,-1
 515 272 l 1,2,-1
 601 278 l 1,3,4
 620 333 620 333 652 378 c 128,-1,5
 684 423 684 423 722.5 450 c 128,-1,6
 761 477 761 477 801 477 c 0,7,8
 829 477 829 477 848.5 465.5 c 128,-1,9
 868 454 868 454 879 437.5 c 128,-1,10
 890 421 890 421 890 407 c 0,11,12
 890 400 890 400 887.5 393 c 128,-1,13
 885 386 885 386 876 381 c 2,14,-1
 831 350 l 1,15,-1
 773 440 l 1,16,17
 746 428 746 428 723.5 365 c 128,-1,18
 701 302 701 302 701 197 c 0,19,20
 701 132 701 132 713.5 105 c 128,-1,21
 726 78 726 78 745 78 c 0,22,23
 762 78 762 78 779.5 92 c 128,-1,24
 797 106 797 106 822 151 c 1,25,-1
 827 151 l 1,26,-1
 842 138 l 1,27,28
 808 62 808 62 766 26 c 128,-1,29
 724 -10 724 -10 680 -10 c 0,30,31
 630 -10 630 -10 601.5 29.5 c 128,-1,32
 573 69 573 69 573 135 c 0,33,34
 573 180 573 180 586 228 c 1,35,-1
 507 223 l 1,36,-1
 468 0 l 1,37,-1
 338 0 l 1,38,-1
 375 214 l 1,39,-1
 294 209 l 1,40,41
 275 150 275 150 242.5 100 c 128,-1,42
 210 50 210 50 169.5 20 c 128,-1,43
 129 -10 129 -10 87 -10 c 0,44,45
 59 -10 59 -10 39 1.5 c 128,-1,46
 19 13 19 13 8.5 29.5 c 128,-1,47
 -2 46 -2 46 -2 60 c 0,48,49
 -2 67 -2 67 0.5 74 c 128,-1,50
 3 81 3 81 12 87 c 2,51,-1
 56 117 l 1,52,-1
 115 27 l 1,53,54
 142 39 142 39 164 102 c 128,-1,55
 186 165 186 165 186 270 c 0,56,57
 186 335 186 335 174 362 c 128,-1,58
 162 389 162 389 142 389 c 0,59,60
 125 389 125 389 108 374.5 c 128,-1,61
 91 360 91 360 65 316 c 1,62,-1
 60 316 l 1,63,-1
 46 329 l 1,64,65
 80 405 80 405 122 441 c 128,-1,66
 164 477 164 477 208 477 c 0,67,68
 258 477 258 477 286 437.5 c 128,-1,69
 314 398 314 398 314 332 c 0,70,71
 314 296 314 296 306 258 c 1,72,-1
 384 263 l 1,73,-1
 420 467 l 1,0,-1
EndSplineSet
Validated: 1
Substitution2: "'smcp' Lowercase to Small Capitals lookup 60 subtable" uni0436.sc
Substitution2: "'c2sc' Capitals to Small Capitals lookup 59 subtable" uni0436.sc
Substitution2: "'ss06' Style Set 6 lookup 19 subtable" uni0436.bgr
Substitution2: "'locl' Localized Forms in Cyrillic lookup 17 subtable" uni0436.bgr
AlternateSubs2: "'aalt' Access All Alternates lookup 1 subtable" uni0436.bgr uni0436.sc
EndChar

StartChar: uni0437
Encoding: 1079 1079 553
Width: 441
GlyphClass: 1
Flags: W
LayerCount: 2
Fore
SplineSet
172 -10 m 0,0,1
 97 -10 97 -10 56.5 15 c 128,-1,2
 16 40 16 40 16 66 c 0,3,4
 16 78 16 78 31 91 c 2,5,-1
 73 131 l 1,6,-1
 158 33 l 2,7,8
 164 32 164 32 171 32 c 0,9,10
 212 32 212 32 237 59 c 128,-1,11
 262 86 262 86 262 132 c 0,12,13
 262 168 262 168 239 190 c 128,-1,14
 216 212 216 212 172 212 c 2,15,-1
 133 212 l 1,16,-1
 140 257 l 1,17,-1
 177 257 l 2,18,19
 227 257 227 257 255.5 281.5 c 128,-1,20
 284 306 284 306 284 342 c 0,21,22
 284 370 284 370 268 385.5 c 128,-1,23
 252 401 252 401 220 401 c 0,24,25
 185 401 185 401 154.5 385.5 c 128,-1,26
 124 370 124 370 83 326 c 1,27,-1
 81 326 l 1,28,-1
 66 340 l 1,29,30
 107 409 107 409 160 443 c 128,-1,31
 213 477 213 477 288 477 c 0,32,33
 347 477 347 477 378.5 447.5 c 128,-1,34
 410 418 410 418 410 370 c 0,35,36
 410 328 410 328 373 289.5 c 128,-1,37
 336 251 336 251 266 239 c 1,38,39
 329 232 329 232 360.5 204.5 c 128,-1,40
 392 177 392 177 392 134 c 0,41,42
 392 74 392 74 335 32 c 128,-1,43
 278 -10 278 -10 172 -10 c 0,0,1
EndSplineSet
Validated: 1
Substitution2: "'smcp' Lowercase to Small Capitals lookup 60 subtable" uni0437.sc
Substitution2: "'c2sc' Capitals to Small Capitals lookup 59 subtable" uni0437.sc
Substitution2: "'ss06' Style Set 6 lookup 19 subtable" uni0437.bgr
Substitution2: "'locl' Localized Forms in Cyrillic lookup 17 subtable" uni0437.bgr
AlternateSubs2: "'aalt' Access All Alternates lookup 1 subtable" uni0437.bgr uni0437.sc
EndChar

StartChar: uni043A
Encoding: 1082 1082 557
Width: 532
GlyphClass: 2
Flags: W
AnchorPoint: "Anchor-3" 336 522 basechar 0
LayerCount: 2
Fore
SplineSet
36 0 m 1,0,-1
 104 393 l 1,1,-1
 37 428 l 1,2,-1
 37 440 l 1,3,-1
 245 477 l 1,4,-1
 248 477 l 1,5,-1
 208 236 l 1,6,7
 274 318 274 318 315.5 366 c 128,-1,8
 357 414 357 414 384 438 c 128,-1,9
 411 462 411 462 428.5 469.5 c 128,-1,10
 446 477 446 477 462 477 c 0,11,12
 486 477 486 477 499.5 466 c 128,-1,13
 513 455 513 455 513 442 c 0,14,15
 513 440 513 440 511 434.5 c 128,-1,16
 509 429 509 429 504 417 c 2,17,-1
 483 366 l 1,18,-1
 413 393 l 1,19,20
 403 387 403 387 390 377 c 128,-1,21
 377 367 377 367 362 352 c 2,22,-1
 308 295 l 1,23,-1
 406 128 l 2,24,25
 422 98 422 98 431 89.5 c 128,-1,26
 440 81 440 81 452 81 c 0,27,28
 468 81 468 81 481 97.5 c 128,-1,29
 494 114 494 114 506 154 c 1,30,-1
 525 147 l 1,31,32
 501 63 501 63 471.5 26.5 c 128,-1,33
 442 -10 442 -10 398 -10 c 0,34,35
 364 -10 364 -10 343 10.5 c 128,-1,36
 322 31 322 31 298 73 c 2,37,-1
 207 229 l 1,38,-1
 207 230 l 1,39,-1
 168 0 l 1,40,-1
 36 0 l 1,0,-1
EndSplineSet
Validated: 1
Substitution2: "'smcp' Lowercase to Small Capitals lookup 60 subtable" uni043A.sc
Substitution2: "'c2sc' Capitals to Small Capitals lookup 59 subtable" uni043A.sc
Substitution2: "'ss06' Style Set 6 lookup 19 subtable" uni043A.bgr
Substitution2: "'locl' Localized Forms in Cyrillic lookup 17 subtable" uni043A.bgr
AlternateSubs2: "'aalt' Access All Alternates lookup 1 subtable" uni043A.bgr uni043A.sc
EndChar

StartChar: uni043B
Encoding: 1083 1083 559
Width: 532
GlyphClass: 1
Flags: W
LayerCount: 2
Fore
SplineSet
372 -10 m 4,0,1
 322 -10 322 -10 299 26 c 4,2,3
 284 49 284 49 284 84 c 4,4,5
 284 104 284 104 289 129 c 6,6,-1
 339 419 l 5,7,-1
 237 419 l 5,8,-1
 231 387 l 6,9,10
 208 261 208 261 185.5 182 c 132,-1,11
 163 103 163 103 137 60 c 4,12,13
 111 18 111 18 91 4 c 132,-1,14
 71 -10 71 -10 44 -10 c 4,15,16
 19 -10 19 -10 9 -1.5 c 132,-1,17
 -1 7 -1 7 -1 26 c 4,18,19
 -1 34 -1 34 3 54 c 6,20,-1
 9 95 l 5,21,-1
 75 95 l 5,22,23
 100 120 100 120 118 157.5 c 132,-1,24
 136 195 136 195 150.5 250.5 c 132,-1,25
 165 306 165 306 178 387 c 6,26,-1
 184 418 l 5,27,-1
 120 451 l 5,28,-1
 122 467 l 5,29,-1
 478 467 l 5,30,-1
 419 129 l 6,31,32
 417 117 417 117 417 109 c 4,33,34
 417 81 417 81 436 81 c 4,35,36
 451 81 451 81 468.5 98 c 132,-1,37
 486 115 486 115 505 155 c 5,38,-1
 523 148 l 5,39,40
 495 72 495 72 458 31 c 132,-1,41
 421 -10 421 -10 372 -10 c 4,0,1
EndSplineSet
Validated: 1
Substitution2: "'smcp' Lowercase to Small Capitals lookup 60 subtable" uni043B.sc
Substitution2: "'c2sc' Capitals to Small Capitals lookup 59 subtable" uni043B.sc
Substitution2: "'ss06' Style Set 6 lookup 19 subtable" uni043B.bgr
Substitution2: "'locl' Localized Forms in Cyrillic lookup 17 subtable" uni043B.bgr
AlternateSubs2: "'aalt' Access All Alternates lookup 1 subtable" uni043B.bgr uni043B.sc
EndChar

